
<svg xmlns="http://www.w3.org/2000/svg" viewBox="0 0 24 24" fill="#41780c">
  <path d="M20.52 3.48A11.9 11.9 0 0012 0a12 12 0 00-10.7 17.63L0 24l6.58-1.73A12 12 0 0012 24a12 12 0 008.48-20.52zM12 22a9.93 9.93 0 01-5-1.36l-.35-.21-3.91 1.02 1-3.81-.25-.39A9.94 9.94 0 1122 12a9.93 9.93 0 01-10 10zm5.2-7.65c-.29-.15-1.72-.85-1.98-.95s-.46-.15-.65.15-.75.95-.92 1.14-.34.22-.63.07a8.12 8.12 0 01-2.4-1.47 9 9 0 01-1.65-2c-.17-.29 0-.45.13-.6s.29-.34.43-.52a2 2 0 00.29-.49.56.56 0 000-.53c-.08-.15-.64-1.54-.88-2.11s-.46-.47-.65-.48H7.4a1.3 1.3 0 00-.95.44 3.9 3.9 0 00-1.2 2.91 6.83 6.83 0 001.2 3.47 10.34 10.34 0 004.9 4.31c.7.3 1.35.48 1.94.48a5.58 5.58 0 002.34-.61 4.27 4.27 0 001.62-1.44c.23-.34.23-.63.16-.7-.07-.07-.26-.15-.55-.3z"/>
</svg>
