<?xml version="1.0" encoding="utf-8"?>
<!-- Generator: Adobe Illustrator 15.1.0, SVG Export Plug-In . SVG Version: 6.00 Build 0)  -->
<!DOCTYPE svg PUBLIC "-//W3C//DTD SVG 1.1//EN" "http://www.w3.org/Graphics/SVG/1.1/DTD/svg11.dtd">
<svg version="1.1" id="Layer_1" xmlns="http://www.w3.org/2000/svg" xmlns:xlink="http://www.w3.org/1999/xlink" x="0px" y="0px"
	 width="595.28px" height="719.964px" viewBox="0 0 595.28 719.964" enable-background="new 0 0 595.28 719.964"
	 xml:space="preserve">
<g>
	<path fill="#676734" d="M366.818,322.977c5.71,3.19,13.104,6.93,21.127,11.6c1.124-4.68,4.044-14.106,9.301-13.834
		c0,0-4.243,11.249-5.096,16.338c5.78,3.523,11.774,7.538,17.615,12.185c1.849-4.349,6.221-14.194,9.211-17.347
		c3.881-4.09,17.465-18.679,25.095-15.497c0,0-11.641,8.461-16.815,15.497c-4.05,5.508-9.368,17.482-11.487,22.424
		c1.093,0.979,2.175,1.983,3.243,3.013c5.795-0.637,16.692-1.784,26.684-2.558c2.791-5.739,14.863-17.388,29.938-17.656
		c0,0-14.343,11.265-20.465,17.039c4.721-0.231,8.584-0.267,10.635,0.035c8.796,1.294,32.854,7.245,36.993,6.727
		c4.14-0.518,7.503-0.468,2.587,1.318c-4.916,1.785-22.766,0.801-25.094,0c-2.329-0.801-11.123-2.611-16.039-2.353
		c-4.915,0.259-19.144,1.035-21.73,1.035c-1.805,0-12.164,1.128-18.268,1.812c0.902,0.995,1.797,2.002,2.671,3.041
		c3.438,4.089,6.822,8.207,10.059,12.378c5.695,2.53,13.749,5.947,17.956,7.498c6.726,2.484,18.884,12.523,18.884,12.523
		c-4.139,0-17.074-6.468-20.256-8.02c-2.19-1.068-7.828-3.362-11.132-4.689c5.063,7.098,9.525,14.397,12.969,22.018
		c0.067,0.149,0.133,0.3,0.199,0.45c0.627,1.404,1.217,2.819,1.769,4.247c0.104,0.269,0.214,0.536,0.315,0.805
		c0.082,0.22,0.176,0.436,0.257,0.656c3.056-2.274,10.056-7.364,12.257-7.964c1.775-0.484,8.893-1.971,16.005-2.958
		c0.21-2.302,0.366-5.585-0.277-6.873c-3.622-6.208-8.742-4.542-9-7.444c0,0-6.469-4.456,3.362-7.561s9.572-3.406,14.487-5.734
		c4.914-2.328,18.113-9.534,18.626-14.96c0.776-2.588-14.229-8.538-16.556-9.573c-2.328-1.036-12.417,2.328-15.265,0
		c-2.845-2.329-1.611-4.48,2.848-9.278c3.879-4.175,11.381-9.958,10.863-10.965c-0.518-1.006-15.521-5.627-20.953-3.557
		c-5.433,2.069-15.781,4.656-18.627,3.88c-2.846-0.776-8.433-5.479-2.147-14.252c6.286-8.772,9.8-12.408,9.024-13.184
		c-0.775-0.776-16.707,0.533-18.519,1.051c-1.812,0.516-15.005,3.879-29.75,13.192c-4.916,2.846-5.951,1.505-6.209-1.059
		c-0.259-2.563,3.882-16.273,3.363-18.602c-0.519-2.328-2.588-10.614-4.141-10.61c-1.551,0.004-5.173,4.277-10.089,6.409
		c-4.915,2.132-15.005,6.012-17.85,8.599C377.063,304.34,369.682,317.564,366.818,322.977z"/>
	<path fill="#96934E" d="M368.258,315.41l8.584-15.996l17.42-7.804l11.32-9.313l8.558,11.382v10.866c0,0-10.446-2.069-19.878,0.518
		C384.829,307.649,368.258,315.41,368.258,315.41z"/>
	<path fill="#676734" d="M132.064,382.69c2.781-4.639,6.826-10.813,11.644-17.313c-3.365-2.106-9.086-6.133-6.131-7.54
		c0.455-0.216,6.556,2.14,9.593,2.994c9.533-12.179,21.349-24.511,32.436-29.322c1.241-0.539,2.513-1.074,3.809-1.605
		c-0.521-0.535-1.122-1.152-1.804-1.854c-4.965,0.703-18.38,2.153-20.139-2.42c0,0,11.685,0.793,16.419-1.435
		c-6.57-6.843-15.196-16.027-15.673-17.58c-0.776-2.522-1.759-7.953,1.746-4.656c0,0,19.504,18.322,26.533,25.179
		c6.194-2.31,12.74-4.476,19.243-6.362c-1.647-4.362-6.124-16.704-5.807-21.145c0.253-3.553,8.183,14.271,10.527,19.824
		c6.852-1.849,13.534-3.343,19.571-4.319c0.423-5.382-1.386-9.629,0.946-9.296c0,0,3.677,4.551,4.019,8.595
		c2.227-0.266,4.336-0.447,6.288-0.525c0,0,2.436-2.122,6.159-5.127c-5.376-6.178-20.486-20.249-21.777-20.599
		c-1.431-0.388-3.419,5.238-4.002,7.955c-0.582,2.716-3.298,1.94-5.626,1.164c-2.329-0.776-4.657-3.104-8.731-6.209
		c-4.074-3.104-23.671-6.985-22.701-5.238c0.97,1.746-1.747,15.522-2.134,17.656s-3.082,3.832-4.657,1.94
		c-5.239-6.984-16.298-12.806-18.432-14.164c-2.135-1.357-14.164-3.492-12.418-1.357c1.747,2.134,3.493,15.716,3.298,19.402
		c-0.194,3.686-2.716,12.029-3.298,17.462c-0.582,5.433-0.362,15.291-3.104,19.402c-6.208,6.209-14.939-2.522-18.626-0.388
		C126.184,347.575,130.49,373.732,132.064,382.69z"/>
	<path fill="#676734" d="M215.222,547.838c-11.487-4.782-21.781-9.745-28.038-13.508c-0.645-0.388-1.314-0.805-1.994-1.234
		c-3.92,7.781-12.567,24.532-16.115,28.08c-4.657,4.656-29.692,15.522-29.692,15.522s20.896-15.522,27.104-23.74
		c4.053-5.363,9.206-16.856,12.298-24.194c-8.01-5.73-17.313-13.481-26.009-22.261c-1.085,1.359-2.396,3.118-3.799,5.264
		c3.153,24.703-2.279,27.548-4.952,25.607c4.312-4.14,0.733-20.178-1.157-17.44c-1.891,2.738-8.459,8.127-18.806,11.232
		c-10.348,3.104-23.283,6.726-28.457,9.831c-5.174,3.104-10.866,8.795-6.726,0c4.14-8.796,31.561-12.937,37.66-17.592
		c4.888-3.732,16.349-17.429,20.708-22.721c-5.035-5.538-9.686-11.369-13.553-17.275c-10.63,1.723-41.62,9.073-44.814,9.986
		c-3.622,1.035-12.418,11.9-18.626,14.261c-6.209,2.359-29.492,7.987-37.252,11.091c-7.761,3.105-9.313-0.517-4.14-3.621
		c5.173-3.104,34.666-9.313,37.77-11.382c3.104-2.07,11.383-11.384,18.109-16.041c2.395-1.657,9.156-4.038,16.867-6.414
		c-4.457-3.121-11.727-7.781-15.832-8.103c-30.289-9.774-35.184-3.074-38.288-8.248c0,0,17.074-4.14,28.458-2.069
		c10.689,1.943,25.904,6.512,35.663,15.469c6.486-1.842,12.645-3.478,16.593-4.507c-0.173-0.354-0.355-0.71-0.521-1.064
		c-4.265-9.123-6.013-21.41-6.197-33.93c-8.651-2.476-31.755-2.125-30.016-9.081c0,0,21.687-1.652,30.092,1.26
		c0.007-0.195,0.017-0.389,0.024-0.583c0.016-0.428,0.033-0.854,0.051-1.277c0.017-0.359,0.033-0.717,0.051-1.075
		c0.013-0.257,0.028-0.514,0.042-0.771c0.042-0.765,0.09-1.526,0.142-2.285c0.008-0.122,0.016-0.245,0.025-0.365
		c0.312-4.431,0.776-8.752,1.356-12.816c-12.55,1.473-37.829,6.116-42.518,8.082c-5.552,2.329-10.81,10.606-10.81,10.606
		s7.304,5.949,8.765,8.538c1.461,2.588,4.091,11.642,1.461,12.676c-2.629,1.035-17.159-0.022-20.374,0.388
		s-14.052,4.528-17.85,7.373c-3.798,2.846-11.434,9.541-14.94,13.681c7.89-0.777,8.624,1.26,11.254,2.035
		c2.63,0.776,4.162,1.94,6.791,2.716c2.63,0.777,6.979,3.816,8.731,4.075c1.753,0.26-2.114,3.945-7.374,6.015
		c-5.258,2.069-22.393,15.198-26.774,19.629c-4.384,4.43-13.425,25.752-10.796,24.976s21.554-4.571,24.183-4.054
		c2.63,0.519,14.424,5.95,16.177,6.985c1.754,1.034,8.056-2.781,13.315-3.299c5.258-0.517,20.287-3.944,20.287-3.944
		s8.352-0.518,3.384,4.139c-4.967,4.657-12.15,19.145-11.565,24.317c0.583,5.173,4.091,7.776,4.968,7
		c0.876-0.775,10.073-3.896,14.164-4.93c4.091-1.034,14.911-3.363,22.507-4.657c7.597-1.293,16.506-8.537,17.432-7.243
		c0.927,1.294-1.388,12.87-3.074,15.975c-1.685,3.105-2.302,9.12-4.055,13.777c-1.753,4.655-11.621,24.315-8.992,25.352
		c2.63,1.034,36.395-13.841,44.285-17.98c7.889-4.139,9.597-8.536,11.641-10.089c2.046-1.552,8.992-0.582,16.88-6.016
		C196.492,563.739,209.674,552.582,215.222,547.838z"/>
	<path fill="#676734" d="M571.609,472.7c-11.641-8.537-18.109-14.443-49.411-22.097c-11.301-2.846-12.418-4.291-12.418-4.291
		c2.841-5.67,21.214-17.333,24.318-28.456c-1.979-5.352-27.681-8.537-31.561-8.537c-6.307-0.561-21.122-4.666-42.605,10.528
		c0.098,0.349,0.187,0.7,0.278,1.05c0.024,0.094,0.05,0.188,0.073,0.28c0.219,0.847,0.425,1.694,0.613,2.549
		c0.029,0.13,0.055,0.258,0.082,0.387c0.156,0.723,0.302,1.45,0.436,2.179c0.034,0.185,0.07,0.37,0.104,0.555
		c0.14,0.798,0.267,1.601,0.38,2.406c0.034,0.229,0.062,0.462,0.092,0.694c0.084,0.646,0.16,1.296,0.229,1.948
		c0.022,0.229,0.049,0.456,0.07,0.686c0.071,0.783,0.13,1.57,0.176,2.361c0.017,0.291,0.029,0.583,0.043,0.875
		c0.028,0.612,0.047,1.227,0.058,1.843c0.005,0.261,0.015,0.521,0.018,0.782c0.005,0.769-0.007,1.542-0.026,2.32
		c-0.009,0.354-0.022,0.713-0.037,1.069c-0.024,0.552-0.056,1.105-0.091,1.661c-0.034,0.524-0.076,1.051-0.122,1.578
		c-0.047,0.532-0.097,1.068-0.157,1.606c-0.049,0.452-0.104,0.907-0.164,1.364c-0.053,0.398-0.111,0.8-0.17,1.2
		c-0.059,0.403-0.105,0.802-0.17,1.207c-1.116,6.827-1.897,12.619-2.661,17.766c4.084-6.991,13.252-22.476,17.553-28.11
		c5.626-7.373,32.208-16.815,32.208-16.815c2.574-0.952,3.105,1.293,0.582,2.266c-32.401,14.94-32.014,23.475-32.014,23.475
		s2.91-4.462,10.477-5.045c7.568-0.582,13.582,5.821,12.406,10.09c-0.205-3.492-9.495-5.432-12.212-6.015
		c-2.717-0.582-13.387,7.955-17.655,14.021c-2.652,3.767-9.008,12.188-13.446,18.031c-0.863,3.857-1.933,7.44-3.432,11.013
		c9.389,0.363,27.687,1.312,32.475,3.307c0.366,0.152,0.917,0.409,1.611,0.749c2.52-1.762,7.331-5.064,9.566-6.182
		c0.775-1.94,1.941-14.746,6.209-20.338c4.269-5.592,9.313-7.214,10.477-6.371c1.165,0.842,0.777,5.754-3.88,8.083
		c-4.656,2.327-6.597,9.701-6.597,16.298c1.553-0.776,14.358-3.881,19.402-4.27c1.164-2.716,10.089-16.298,13.97-17.85
		c3.881-1.553,6.208,0.775,3.881,2.328c-2.328,1.552-10.09,12.029-10.09,12.029s0,0,10.866-1.939
		c10.864-1.941,23.282,3.168,23.282,3.168c6.984,3.558-13.484,2.167-18.724,1.973c-5.238-0.194-21.827,6.499-21.827,6.499
		s8.73,1.941,12.611,2.33c-0.97,4.56,20.955-3.784,14.358,0c-6.209,4.269-10.807,6.224-17.851,5.378
		c-7.044-0.845-15.911-5.378-15.911-5.378s-10.864,2.716-13.192,2.716c-1.633,0-6.314,3.432-8.968,5.484
		c8.107,4.378,20.147,11.198,31.718,18.354c8.216-0.855,23.879,1.17,25.562,2.938c3.882,4.075-6.984,2.328-10.477,1.94
		c-1.94-0.216-4.656,0.107-6.689,0.438c12.433,8.077,22.895,15.914,25.122,20.516c1.163,3.104-6.598-0.776-9.313-2.716
		c-2.271-1.623-22.17-12.888-31.581-18.288c0.365,2.209,1.809,5.422,3.06,7.229c1.746,2.522-0.582,5.045,0,7.762
		c0.581,2.715,3.472,7.177,3.472,7.177c-6.228-0.971-7.353-10.282-8.322-12.998c-0.972-2.716-5.82-7.374-5.82-9.313
		c0-0.935,0.224-2.588,0.457-4.054c-7.832-4.674-24.722-14.651-30.727-16.318c-5.27-1.465-23.95-0.719-34.58,0.903
		c-3.437,4.969-8.009,10.399-14.18,16.846c2.601,4.321,9.04,14.901,10.731,16.593c0.185,0.185,0.458,0.445,0.792,0.765
		c3.488-0.004,11.125,0.093,13.275,0.981c2.813,1.164,12.32,5.239,13.679,7.373c1.357,2.135,2.328,5.627,1.357,6.791
		c0,0-3.881-3.687-5.237-4.075c-1.359-0.387-7.18-3.106-10.478-3.493c-1.778-0.208-4.057-0.697-5.786-1.105
		c4.073,3.966,8.342,8.407,9.084,10.421c1.357,3.686,2.91,13.774,4.463,16.491c1.552,2.717,3.88,4.269,3.492,5.821
		c-0.389,1.552-5.239-0.776-6.791-2.717c-1.553-1.941-3.88-14.747-4.852-16.298c-0.97-1.553-14.251-16.299-16.632-18.045
		c-0.999-0.731-3.388-3.753-5.84-7.083c-0.745,1.924-1.626,4.85-1.393,7.503c0.388,4.432,3.493,14.909,2.328,16.655
		c-1.443,2.165-6.014-9.703-6.985-13.583c-0.858-3.434-1.386-13.658,0.903-17.888c-0.288-0.431-0.546-0.824-0.777-1.183
		c-6.414,4.479-16.218,9.023-26.532,13.174c-2.861,3.855-8.615,12.165-8.323,16.307c0.388,5.5,0.755,10.122-0.011,10.818
		c-0.766,0.697-3.87-6.617-3.676-10.818c0.139-3.007,2.265-9.524,3.462-12.988c-9.16,3.442-18.087,6.477-24.819,8.79
		c4.366,5.164,12.771,16.003,15.523,25.899c5.227,3.067,13.37,7.649,14.241,6.952c1.294-1.034,1.294-19.144,7.502-19.402
		c6.21-0.259,5.692,5.95,19.145,11.383c13.452,5.434,19.919,16.816,49.152,10.866c2.588,0,3.105-2.328,3.105-2.328
		s8.17-13.683,9-18.354c0.831-4.671-1.605-12.433,0-13.467c1.606-1.034,6.004-1.791,7.815-0.896
		c1.811,0.896,18.108,12.825,23.8,14.362s22.766,3.865,40.616-1.826c17.85-5.691,19.919-7.761,19.919-7.761
		s-2.585-13.452-5.174-23.282c-2.588-9.831-8.019-14.745-27.681-25.094c-2.677-1.436-7.242-7.504-3.104-7.244
		c4.14,0.259,23.282-1.81,29.75-4.396c6.468-2.589,13.97-7.762,13.97-7.762S583.252,481.237,571.609,472.7z"/>
	<path fill="#676734" d="M370.795,563.824c-2.047-2.582-7.062-9.452-9.406-12.683c-14.393,5.017-22.123,7.783-36.929,10.611
		c-9.157,1.751-17.715,2.08-26.778,2.082c-0.033,1.117-0.068,2.533-0.098,4.203c4.592,1.916,16.836,7.049,27.89,11.858
		c3.079-0.702,9.135-2.034,10.85-2.034c2.328,0,11.9,1.552,12.547,3.363c0.646,1.812-8.278-0.13-10.219,0
		c-1.325,0.089-5.119,0.779-7.395,1.209c7.118,3.152,12.919,5.852,14.509,6.939c4.915,3.364,12.806,16.944,14.229,22.119
		c1.422,5.175-8.278-9.959-12.677-13.711c-4.397-3.75-24.835-12.417-24.835-12.417l-2.672-1.072
		c-0.024,2.365,0.028,6.39,0.538,9.868c0.776,5.304,2.095,6.338,4.164,9.184c2.07,2.845,13.971,9.442,10.607,9.83
		c-3.363,0.389-17.229-8.473-19.04-12.612c-1.433-3.274-1.149-13.866-0.969-18.153l-17.596-7.056
		c-0.008,9.638,0.307,22.618,1.688,34.005c3.787,2.478,12.402,8.387,15.001,12.483c3.363,5.303,11.59,23.152,10.258,27.293
		c-1.333,4.14-2.108,2.845-2.108,2.845s-1.682-9.442-5.563-15.91c-3.88-6.467-10.347-13.97-12.676-15.651
		c-1.187-0.856-2.507-1.611-3.517-2.148c0.21,1.052,0.434,2.072,0.672,3.055c5.174,21.343,22.766,57.561,23.929,60.019
		c1.165,2.457,1.682,7.115-0.646,6.467c-2.328-0.646-6.078-9.184-7.89-15.263s-8.149-15.265-9.443-19.145
		c-1.25-3.749-8.418-22.356-10.182-27.806c-0.999,2.524-2.586,6.521-3.27,8.145c-1.034,2.458-3.623,14.229-3.752,18.432
		c-0.129,4.201,2.976,4.723,3.623,14.683c-2.458,6.985-3.623,2.199-3.623,2.199s-3.751-12.159-3.492-25.224
		c0.218-10.979,6.556-22.779,8.573-26.266c-1.483-6.882-3.43-16.797-4.699-24.359c-3.006,1.128-9.206,3.568-10.083,4.836
		c-1.164,1.681-2.198,6.208-4.139,8.277c-1.94,2.07-7.761,9.313-9.701,10.866c-1.941,1.553-8.407,10.735-9.831,11.361
		c-1.423,0.625-2.716-1.014-2.457-4.477c0.259-3.462,8.795-10.377,10.995-13.612c2.198-3.233,10.995-15.908,13.193-18.756
		c1.647-2.131,7.937-4.335,10.992-5.306c-0.129-1.04-0.218-1.916-0.255-2.583c-0.156-2.813-0.271-7.176-0.352-11.386
		c-3.048,1.18-8.323,3.137-10.643,3.494c-3.363,0.519-13.324,5.95-17.85,8.149c-4.528,2.199-15.135,5.045-20.696,5.837
		c-5.563,0.792-22.377,5.546-24.964,5.935c-2.587,0.388-4.916-2.199-4.14-3.364c0.776-1.163,20.566-5.173,28.328-6.854
		c0.923-0.2,1.924-0.451,2.975-0.741c-2.026-0.089-3.997-0.253-5.044-0.553c-2.716-0.776-19.273-5.045-19.273-6.468
		c0-1.281,6.727-2.199,8.02-2.199c1.293,0,7.502,4.657,16.168,4.657c5.931,0,10.464,0.122,12.738,0.197
		c4.258-1.727,8.117-3.546,10.415-4.982c4.291-2.683,18.977-7.406,23.872-8.942c-0.015-1.034-0.025-1.982-0.035-2.82
		c-5.362-0.055-10.994-0.103-17.11,0.052c-10.768,0.271-30.947-5.935-49.538-13.249c-2.813,2.669-8.123,7.008-13.905,11.521
		c-0.023,0.027-8.478,9.303-10.157,12.272c-1.682,2.976-7.308,6.145-9.507,16.88c-2.199,10.736-6.539,22.446-6.539,22.446
		s12.942-2.202,17.081-2.591c4.14-0.387,18.239-0.97,20.696-1.229c2.458-0.258,15.133-5.624,16.427-4.331
		c2.458,0.389,3.363,1.681,2.717,4.785s-4.138,10.22-4.397,13.323c-0.259,3.105-2.851,15.402,2.457,30.01
		c2.458,7.373,10.187,9.612,10.187,9.612s0.421-14.116,5.207-19.679c4.785-5.562,8.02-11.02,10.089-11.407
		c2.07-0.388,5.562,4.916,6.726,7.244c1.164,2.328,3.524,3.459,4.429,9.149c0.906,5.692,3.009,17.043,4.561,19.501
		c1.552,2.458,7.684,8.537,8.459,10.09c0.776,1.552,4.541,6.597,4.541,6.597s4.475-14.81,10.968-14.552
		c3.132,0.26,5.588,4.251,12.186,16.297c2.975,4.527,12.884,18.563,20.515,18.046c-0.905-5.304-0.078-16.881,0.053-19.726
		c0.128-2.846,0.518-14.487,0.258-17.462c-0.258-2.977-3.881-24.447-3.363-30.785c0.519-6.338,2.2-9.313,2.976-10.22
		c0.776-0.904,5.304-4.009,5.95-5.174c0.646-1.164,1.035-4.526,2.069-4.656s9.701,5.852,12.03,7.532
		c2.327,1.682,12.934,10.317,16.426,9.671c0.906-4.397,1.229-7.601,2.394-9.671c1.165-2.069,4.528-9.829,5.045-11.511
		c1.94-8.408,1.423-26.484-0.388-33.34C376.356,572.363,373.511,567.247,370.795,563.824z"/>
	<path fill="#42441D" d="M460.785,440.881l12.012,18.161v-4.495c0,0,1.981-6.834,6.548,4.495c4.566,11.33-8.379,14.186-9.279,19.354
		c-0.9,5.168-3.003,17.846-3.003,17.846l5.734,1.023c0,0-9.659,1.539-18.287,13.321c-8.628,11.783,0,7.126,0,7.126
		s-11.727-7.615-14.385,0.907s-1.228,15.65-1.228,15.65l-6.984-6.209l-1.811,14.487c0,0-1.036-7.242-13.971-2.327
		c-12.935,4.914-22.248,12.157-23.801,19.143c-0.517-2.846-1.034-6.345-1.034-6.345s-5.949-0.655-9.313,0
		c-3.363,0.653-3.88,13.07-3.88,13.07l-5.951-6.466c0,0-9.83-0.518-12.675,4.138c-2.847,4.658-21.731,16.04-21.731,16.04
		l-11.9,3.362l-15.522-6.208c0,0-7.502,3.622-6.209,7.761c1.294,4.139-7.759-2.327-8.536-2.587
		c-0.776-0.26-12.676-4.915-17.333-2.07c-4.657,2.847-11.641-1.551-11.641-1.551l6.984-4.658c0,0-21.212-2.844-27.421-5.69
		c-6.208-2.846-13.71-5.175-22.507-3.363c-8.796,1.813-23.542,4.141-23.542,4.141l10.089-13.712c0,0-9.831-3.88-16.298-3.363
		c-6.467,0.517-15.263-10.089-15.263-10.089s-17.333-5.691-23.024-3.881c-5.691,1.812-7.502-8.278-7.502-8.278l-4.108-16.126
		l-5.622,5.26c0,0,1.71-17.867-2.946-22.904c-4.656-5.035-26.387-11.032-26.387-11.032l11.382-6.415c0,0,0-13.976-16.557-21.735
		c0,0,21.213-2.723,21.731-8.347c0.517-5.624,10.348,30.082,10.348,30.082L152,497.266l19.813,19.39l22.097,15.495l35.757,15.496
		l27.413,9.398l40.561,2.062l39.882-6.087l24.023-5.373l22.248-5.615l15.522-7.482l22.096-12.999l21.365-18.612l10.788-27.134
		L460.785,440.881z"/>
	<path fill="#96934E" d="M78.271,539.704l-6.208,15.78l6.208,12.159l9.055-3.104l9.572-3.363c0,0-15.781,0.517-13.97-5.692
		c1.811-6.208,5.691-12.417,5.691-12.417s-8.558,0.758-5.563-6.872C86.051,528.565,78.271,539.704,78.271,539.704z"/>
	<path fill="#96934E" d="M126.908,569.971c0,0-2.33,18.626,2.845,20.438c5.174,1.812,37.253-6.468,37.253-6.468l-35.441,17.074
		l-18.368,3.623L126.908,569.971z"/>
	<path fill="#96934E" d="M335.289,655.471l2.233,53.162l-13.063-4.06l-20.991-30.477l-6.383,1.94l-4.002,13.97l-15.615-16.299
		l-6.984-24.058c0,0,6.08,13.969,12.806,16.686c6.725,2.718,8.81,0.389,8.81,0.389l-2.213-7.374c0,0,11.159,3.493,14.116,2.329
		c2.958-1.164,5.675-8.537,5.675-8.537l11.641,22.507c0,0,8.149,4.268,10.089,0.775
		C333.349,672.933,335.289,655.471,335.289,655.471z"/>
	<path fill="#96934E" d="M349.649,620.59c0,0,14.523,14.702,20.259,15.866c5.737,1.164,3.6-6.208,3.6-6.208l6.281-16.688
		c0,0-9.38,14.443-12.971,14.013C363.228,627.144,349.649,620.59,349.649,620.59z"/>
	<path fill="#96934E" d="M232.844,617.443c0,0,1.552,19.402,6.209,21.729c4.657,2.328,14.904,5.821,14.904,5.821l-2.556,13.971
		l-2.647,7.761l-10.478-5.045l-5.433-12.029l-3.177-17.075L232.844,617.443z"/>
	<path fill="#96934E" d="M432.689,582.13c0,0,17.851,1.033,21.988-3.622c4.141-4.658,0-27.934,0-27.934l9.056,22.242
		c0,0,9.813,0.775,13.314-4.657c3.501-5.432,11.003-17.585,11.003-17.585l1.552,13.704l-9.285,20.956l-19.171,5.174L432.689,582.13z
		"/>
	<path fill="#96934E" d="M557.899,509.435c0,0,12.159,20.955,9.056,30.786c-3.105,9.829-9.056,2.068-9.056,2.068l-12.417-7.243
		l-18.886-12.935c0,0,4.916,12.159,5.176,21.989c0.258,9.829,43.72,13.452,43.72,13.452l6.466-1.294l-5.432-26.387L557.899,509.435z
		"/>
	<path fill="#96934E" d="M467.269,411.818l25.956-7.094l22.7,2.008l16.104,5.111l6.209,6.919l-13.581,16.824
		c0,0,4.655-15.977-2.33-15.431c-6.983,0.545-19.573,5.458-19.573,5.458s9.484-8.404,5.217-9.957
		C503.701,414.104,488.656,408.756,467.269,411.818z"/>
	<path fill="#96934E" d="M513.432,448.041l34.896,6.507l28.974,17.637l12.417,12.628l-13.969,10.859c0,0,1.544-15.848-16.432-17.274
		c-17.975-1.428,8.671-3.246,6.084-6.541C562.814,468.562,517.082,449.769,513.432,448.041z"/>
	<path fill="#96934E" d="M149.414,295.749l-3.104-8.54l9.83-1.789l20.697,10.329l5.038,6.726l4.275-17.055l3.658-3.123l16.003,3.123
		l17.689,8.259l6.168-11.382l12.465,11.382l13.817,15.004l-8.748,9.313l-27.422,2.806c0,0-21.455-0.462-28.457-2.546
		c-7.149-2.126-28.065-14.229-28.065-14.229s-5.27,1.064,0,11.383c5.27,10.32-1.784,10.219-1.784,10.219l10.339,1.94
		c0,0-5.318,7.502-8.555,9.831c-3.237,2.328-9.446,18.366-9.446,18.366l-7.502,9.573l-6.926-4.397c0,0-1.869-3.105-4.715,1.552
		c-2.846,4.656-4.916,18.109-4.916,18.109l-5.433-26.646l2.329-12.58l9.055,3.267l8.308,0.776l3.333-5.691v-14.487l3.622-16.298
		L149.414,295.749z"/>
	<path fill="#96934E" d="M124.319,409.578l-27.939,4.421l-19.92,6.185l-8.795,10.607l6.209,7.502l5.173,10.35l-12.935,2.021
		l-16.815,1.858l-15.005,8.537l-12.159,14.745l11.383,2.593l13.969,4.134c0,0-3.88-6.985,0.258-9.055
		c4.139-2.07,18.626-7.503,18.626-7.503l28.458,5.692c0,0-16.816-11.9-13.711-16.04c3.104-4.139,43.203-8.02,43.203-8.02V409.578z"
		/>
	<path fill="#96934E" d="M44.64,486.412c0,0-5.433,6.209-2.328,9.831c3.104,3.621,46.307-8.539,46.307-8.539l-16.557,16.041
		c0,0-23.283,9.83-21.989,14.228c1.294,4.398,13.711,17.074,13.711,17.074l-14.747,4.657l-17.333-7.244l-18.367,1.294l-7.761,4.656
		l2.768-19.662l13.789-17.591L44.64,486.412z"/>
	<path fill="#96934E" d="M418.612,311.271c0,0,10.538,3.658,2.8,22.784c5.844-2.137,27.187-8.978,28.738-2.299
		c1.553,6.679-10.025,25.323-10.025,25.323l-8.406,3.668c0,0,43.655,4.93,43.849,12.167c0.194,7.236-7.179,5.911-6.791,9.775
		c0.389,3.864,11.448,9.852,13.194,11.61c1.746,1.761,4.075,2.148,5.433,4.67c1.358,2.523,0-8.148,0-8.148l-8.925-5.088
		l17.656-8.493l19.79-14.94v-4.463l-13.193-7.403l-7.955-2.41l-8.149,2.41l-2.91-2.41l7.179-9.007l7.956-9.896l-6.791-4.074
		l-11.743-1.552l-10.182,2.134l-6.403,1.747l-8.149-0.388l-2.018-5.433l9.585-13.776l2.91-6.403l-10.671-1.962l-18.045,3.32
		L418.612,311.271z"/>
	<path fill="#010101" d="M589.46,490.033c2.587-1.552,3.363,0.518,2.847-4.139c-0.518-4.657-10.09-15.264-24.577-25.094
		c-14.487-9.829-42.428-16.558-47.624-16.558c1.27-1.552,19.168-20.954,19.168-20.954s3.608-5.269,2.587-7.502
		c-5.175-10.089-35.7-13.712-43.98-13.962c-1.414-0.042-3.073,0.021-4.862,0.158c-0.239-2.221-0.687-5.599-1.347-7.41
		c-1.033-2.846-1.551-5.174-7.76-8.69c12.158-2.999,19.66-9.159,26.388-13.04c6.726-3.881,10.865-12.935,9.572-15.019
		c-1.295-2.083-13.971-9.558-22.249-11.627c-8.277-2.07-9.313,2.846-9.571,0c-0.261-2.846,17.332-15.264,14.745-19.661
		c-2.588-4.397-23.283-5.691-29.227-4.942c-5.943,0.75-10.354,3.649-15.012,3.622c-1.551-11.668,10.607-18.34,11.384-19.394
		c0.776-1.053,7.761-1.534,0-6.655c-7.762-5.122-21.73-0.312-31.044,0c-9.313,0.312-24.06,11.739-24.06,11.739
		s0.777-8.946,2.328-11.739c1.553-2.793-5.432-18.162-9.313-19.05c-3.88-0.888-3.104,1.665-10.09,7.093
		c-6.984,5.428-19.401,5.436-25.611,13.717c-4.382,5.845-8.761,14.253-10.96,18.697c-8.079-5.185-16.905-12.075-24.765-17.872
		c-0.017-0.011-0.034-0.023-0.048-0.035c-0.362-0.267-0.72-0.529-1.077-0.791c-0.06-0.044-0.12-0.089-0.181-0.132
		c-0.321-0.235-0.639-0.467-0.957-0.698c-0.088-0.063-0.177-0.128-0.264-0.191c-0.295-0.214-0.588-0.424-0.879-0.634
		c-0.104-0.075-0.207-0.15-0.311-0.224c-0.273-0.196-0.544-0.388-0.815-0.579c-0.116-0.083-0.234-0.168-0.351-0.25
		c-0.251-0.178-0.499-0.35-0.746-0.523c-0.132-0.092-0.266-0.187-0.398-0.278c-0.237-0.166-0.474-0.327-0.709-0.489
		c-0.132-0.091-0.267-0.185-0.399-0.274c-0.228-0.156-0.453-0.308-0.678-0.459c-0.136-0.091-0.274-0.186-0.41-0.275
		c-0.221-0.147-0.438-0.29-0.655-0.433c-0.135-0.087-0.27-0.177-0.401-0.263c-0.219-0.142-0.434-0.279-0.647-0.416
		c-0.127-0.081-0.257-0.165-0.384-0.245c-0.218-0.138-0.432-0.27-0.646-0.402c-0.117-0.073-0.238-0.148-0.354-0.22
		c-0.231-0.141-0.457-0.274-0.684-0.408c-0.095-0.056-0.192-0.116-0.287-0.171c-0.318-0.186-0.632-0.366-0.939-0.537
		c-9.953-5.542-29.758-7.838-42.917-2.902c-0.428,0.161-0.867,0.338-1.312,0.527c-0.155,0.065-0.314,0.14-0.471,0.209
		c-0.295,0.13-0.589,0.259-0.89,0.401c-0.189,0.088-0.384,0.185-0.576,0.278c-0.275,0.133-0.55,0.266-0.83,0.407
		c-0.207,0.105-0.417,0.216-0.625,0.325c-0.271,0.141-0.541,0.282-0.814,0.43c-0.219,0.119-0.439,0.24-0.66,0.362
		c-0.271,0.15-0.541,0.3-0.813,0.457c-0.225,0.127-0.45,0.258-0.676,0.39c-0.274,0.16-0.548,0.321-0.826,0.485
		c-0.225,0.136-0.45,0.271-0.677,0.409c-0.281,0.172-0.564,0.345-0.847,0.522c-0.222,0.137-0.443,0.275-0.665,0.415
		c-0.294,0.186-0.588,0.375-0.884,0.564c-0.211,0.136-0.422,0.272-0.634,0.41c-0.312,0.203-0.623,0.41-0.935,0.617
		c-0.195,0.13-0.39,0.258-0.586,0.39c-0.341,0.229-0.683,0.462-1.024,0.694c-0.161,0.111-0.323,0.22-0.485,0.332
		c-0.414,0.285-0.827,0.572-1.237,0.861c-0.087,0.061-0.174,0.121-0.261,0.183c-2.589,1.823-5.097,3.694-7.388,5.46
		c-4.731-6.335-17.375-22.239-26.507-24.305c-3.797-0.352-8.334,8.795-8.334,8.795s-29.193-15.523-37.879-6.727
		c-1.604,1.788-2.025,13.518-2.025,13.518s-23.283-20.373-38.223-10.09c0.971,6.209,4.401,11.987,5.433,19.985
		c-0.776,8.149-2.716,13-3.299,18.044c-0.582,5.044,0,15.853-2.134,17.045c-3.104,2.551-10.089,0.224-14.746-4.627
		c-4.656-4.851-7.589,15.134-6.996,22.313c0.474,5.736,3.665,25.336,5.622,34.57c-0.141,0.466-0.281,0.946-0.419,1.439
		c-0.009,0.029-0.016,0.058-0.024,0.087c-0.132,0.469-0.263,0.951-0.392,1.443c-0.007,0.026-0.014,0.053-0.021,0.079
		c-0.269,1.029-0.533,2.108-0.789,3.231c-0.011,0.044-0.021,0.09-0.031,0.135c-0.255,1.125-0.504,2.294-0.743,3.501
		c-0.008,0.04-0.016,0.078-0.024,0.119c-0.242,1.224-0.474,2.485-0.695,3.783c-0.002,0.009-0.003,0.017-0.005,0.025
		c-15.205,1.014-54.124,5.392-58.695,23.763c-1.022,2.459,10.956,10.22,10.518,16.299c-2.776,1.94-10.957-0.775-17.969,0.518
		c-7.012,1.292-15.778,5.044-18.408,6.338c-2.629,1.293-22.499,21.343-23.375,25.805c-0.877,4.463,5.259-2.134,11.834-0.711
		c6.574,1.423,11.833,3.363,14.9,4.139c-4.235,1.94-40.175,18.885-39.882,54.585c-0.73,8.15,8.035-3.104,23.375-2.586
		c15.339,0.517,13.733,5.166,21.622,5.559c7.889,0.392,30.241-6.595,30.241-6.595s-18.407,24.966-0.876,36.219
		c3.069-0.906,10.665-4.268,15.778-5.303s22.936-2.2,33.454-9.443c-4.82,20.309-14.9,41.264-16.215,49.8
		c-1.315,8.538,39.298-8.277,45.141-11.383c5.846-3.104,24.691-12.806,29.512-15.392c0.484-0.261,1.256-0.748,2.249-1.415
		c-4.506,7.071-5.532,15.638-7.334,20.301c-2.2,5.69-4.915,20.826-4.915,21.989c0,1.164-0.129,6.467,3.75,3.622
		c3.881-2.847,21.343-6.727,28.199-7.374c6.856-0.646,11.512,0.13,15.651-0.517c4.14-0.648,8.666-3.881,8.666-2.717
		c0,1.163-2.457,4.916-2.975,9.701c-0.518,4.785-1.552,23.024,3.751,34.924c5.303,11.9,18.498,13.712,19.273,13.453
		c0.776-0.258,1.811-0.905,1.165-3.233c-1.553-8.279,2.456-13.453,3.75-17.204c1.294-3.751,5.174-9.441,5.691-9.441
		s4.269,3.751,5.174,6.078c0.905,2.328,4.527,22.896,5.691,25.482c1.164,2.587,4.527,6.468,9.313,10.865
		c4.786,4.397,8.279,11.124,10.03,11.899c1.75,0.776,3.294,0,3.294,0c0.388-15.909,6.699-18.238,6.699-18.238
		s4.555,9.701,7.27,13.971c2.717,4.268,8.15,10.864,15.172,16.298c7.022,5.433,17.036,4.655,15.803,1.163
		c-1.235-3.492-0.317-29.103,0-36.088c0.317-6.984-4.586-28.328-3.422-36.477c1.163-8.149,3.492-5.045,6.984-10.865
		c19.79,14.358,32.596,16.297,31.82,12.417c-0.776-3.88,7.372-17.073,8.926-22.507c1.423-4.981,1.539-19.424,0.353-32.857
		c2.735,1.067,8.293,3.21,12.064,4.53c5.174,1.811,6.758-0.32,6.467-2.846c-1.293-8.796,0.26-7.761,3.622-14.487
		c2.847,4.14,23.283,13.97,31.044,18.367c7.761,4.398,23.283,4.916,28.717,4.14c5.431-0.776,10.347-2.328,12.158-2.328
		s3.621,5.433,4.915,4.398c1.294-1.036-0.258-5.175-0.258-8.021c0-2.847,3.104-9.83,6.984-17.074
		c3.881-7.243,1.552-12.159,1.552-12.159s10.606,7.761,23.283,11.901c12.677,4.14,26.128,2.328,34.407,1.553
		c8.278-0.777,26.387-9.056,28.974-9.832c2.586-0.775,5.951,1.552,8.278,3.378c2.328,1.826,5.951-0.791,3.104-2.602
		c-2.846-1.811-6.467-10.865-7.502-15.483c-1.035-4.619-1.812-12.974-7.502-23.563c-5.691-10.588-16.298-15.539-19.921-17.609
		c0,0,15.004-3.104,19.662-4.398C579.629,498.828,586.874,491.584,589.46,490.033z M379.396,302.217
		c2.845-2.587,12.935-6.467,17.85-8.599c4.916-2.131,8.538-6.405,10.089-6.409c1.553-0.004,3.622,8.282,4.141,10.61
		c0.519,2.329-3.622,16.039-3.363,18.602c0.258,2.564,1.293,3.905,6.209,1.059c14.745-9.313,27.938-12.676,29.75-13.192
		c1.812-0.518,17.743-1.827,18.519-1.051c0.775,0.776-2.738,4.412-9.024,13.184c-6.285,8.773-0.698,13.477,2.147,14.252
		c2.846,0.776,13.194-1.811,18.627-3.88c5.432-2.07,20.436,2.551,20.953,3.557c0.518,1.007-6.984,6.791-10.863,10.965
		c-4.459,4.798-5.692,6.949-2.848,9.278c2.848,2.328,12.937-1.036,15.265,0c2.327,1.035,17.332,6.985,16.556,9.573
		c-0.513,5.426-13.712,12.632-18.626,14.96c-4.915,2.328-4.656,2.63-14.487,5.734s-3.362,7.561-3.362,7.561
		c0.258,2.902,5.378,1.236,9,7.444c0.644,1.288,0.487,4.571,0.277,6.873c-7.112,0.987-14.229,2.474-16.005,2.958
		c-2.201,0.6-9.201,5.689-12.257,7.964c-0.081-0.221-0.175-0.437-0.257-0.656c-0.102-0.269-0.212-0.536-0.315-0.805
		c-0.552-1.428-1.142-2.843-1.769-4.247c-0.066-0.15-0.132-0.301-0.199-0.45c-3.443-7.62-7.905-14.92-12.969-22.018
		c3.304,1.327,8.941,3.621,11.132,4.689c3.182,1.552,16.117,8.02,20.256,8.02c0,0-12.158-10.039-18.884-12.523
		c-4.207-1.551-12.261-4.968-17.956-7.498c-3.236-4.171-6.62-8.289-10.059-12.378c-0.874-1.039-1.769-2.046-2.671-3.041
		c6.104-0.684,16.463-1.812,18.268-1.812c2.587,0,16.815-0.776,21.73-1.035c4.916-0.258,13.71,1.552,16.039,2.353
		c2.328,0.801,20.178,1.785,25.094,0c4.916-1.786,1.553-1.836-2.587-1.318c-4.14,0.518-28.197-5.433-36.993-6.727
		c-2.051-0.301-5.914-0.266-10.635-0.035c6.122-5.774,20.465-17.039,20.465-17.039c-15.074,0.268-27.146,11.917-29.938,17.656
		c-9.991,0.774-20.889,1.92-26.684,2.558c-1.068-1.03-2.15-2.034-3.243-3.013c2.119-4.942,7.438-16.917,11.487-22.424
		c5.175-7.035,16.815-15.497,16.815-15.497c-7.63-3.182-21.214,11.407-25.095,15.497c-2.99,3.153-7.362,12.999-9.211,17.347
		c-5.841-4.647-11.835-8.662-17.615-12.185c0.853-5.089,5.096-16.338,5.096-16.338c-5.257-0.272-8.177,9.154-9.301,13.834
		c-8.022-4.669-15.417-8.409-21.127-11.6C369.682,317.564,377.063,304.34,379.396,302.217z M279.697,300.802
		c9.286-5.239,20.377-9.352,28.7-5.78c17.333,7.437,31.975,17.054,61.813,56.75c12.68,16.869,20.37,39.848,25.14,60.046
		c6.456,27.338,7.557,49.579,8.417,44.662c2.485-21.065,1.536-39.318-1.263-54.84c-8.25-45.754-32.595-67.733-32.595-67.733
		s13.459,5.302,20.392,12.752c15.803,14.19,25.041,46.835,28.313,51.382c0.348,0.483,0.629,0.651,0.842,0.444
		c1.672-2.414,1.94-5.855,1.358-9.734c-1.99-13.269-13.945-31.671-13.945-31.671s7.891,6.266,14.382,14.403
		c3.741,4.688,7.02,9.999,8.05,15.092c5.548,21.787-10.349,47.515-1.587,41.013c8.762-6.501,10.021-34.764,10.021-34.764
		s9.913,5.433,2.823,30.662c-4.03,14.343-8.814,37.78-5.186,34.187c12.868-15.486,13.864-43.038,15.882-35.422
		c0.947,3.569,2.227,10.962,2.309,20.571c0.006,0.621,0.006,1.252,0,1.891c-0.084,10.568-1.648,23.545-6.569,36.972
		c-9.822,26.8-24.92,35.968-33.208,41.247c-8.287,5.283-25.525,10.804-31.521,12.384c-5.995,1.579-15.374,4.655-15.374,4.655
		s6.164-11.441-1.807-7.1c-9.594,6.355-50.103,19.57-50.103,19.57c-78.615,5.443-112.375-29.293-116.981-28.123
		c-4.609,1.167,1.387,6.102-2.615,3.968c-23.992-12.908-56.5-44.985-61.822-77.966c-1.582-9.803-1.961-32.223,4.885-54.682
		c3.557-11.664,9.06-23.339,17.361-33.263c20.006-19.705,27.326-24.382,47.719-30.618c13.529,2.934,36.577,4.91,57.645,12.69
		c44.504,16.434,72.719,43.331,86.286,60.94c9.786,12.701,18.507,27.797,26.05,41.681c2.917,5.364,5.661,10.555,8.216,15.346
		c9.165,17.186,14.658,34.016,21.418,29.178c0.881-0.75,0.747-3.372,0.121-6.778c-1.238-6.735-4.402-16.555-5.481-21.118
		c-1.623-6.854-5.615-17.398-8.984-38.869c-0.008-0.047-0.015-0.091-0.022-0.139c-1.427-9.11-3.927-18.709-6.955-28.051
		c-4.141-12.77-9.277-25.056-14.066-34.936c-8.294-17.109-39.67-47.563-58.73-55.319c-19.058-7.755-47.312,7.091-47.312,7.091
		S269.644,306.476,279.697,300.802z M280.686,323c6.241,2.103-11.875,9.293-0.192,7.632c10.994-1.564,25.906-8.041,16.213,2.626
		c12.772-0.157,19.904-2.169,27.012-1.192c6.154,0.846-4.782,3.096-8.532,7.244c-3.75,4.147,21.358,1.775,22.729,7.163
		c1.373,5.387-13.859,0.091-12.196,4.521c1.662,4.431,25.003-0.358,26.461,5.369c1.457,5.725-12.481,3.401-10.704,8.287
		c1.778,4.887,23.422,5.25,23.353,10.607c-0.068,5.356-13.278-2.492-11.374,2.896c1.906,5.387,22.359,14.595,19.687,20.081
		c-2.674,5.485-7.176-0.844-6.474,2.182c0.701,3.025,9.23,11.531,12.473,21.384c3.244,9.853,8.26,28.864,8.26,28.864
		s-21.052-41.291-55.863-76.209c-34.811-34.918-94.082-47.07-104.611-48.304C226.926,326.15,261.758,316.624,280.686,323z
		 M129.234,345.809c3.687-2.135,12.418,6.597,18.626,0.388c2.743-4.112,2.522-13.97,3.104-19.402
		c0.582-5.434,3.104-13.776,3.298-17.462c0.194-3.687-1.552-17.268-3.298-19.402c-1.746-2.134,10.283,0,12.418,1.357
		c2.134,1.358,13.193,7.18,18.432,14.164c1.575,1.892,4.269,0.194,4.657-1.94s3.104-15.91,2.134-17.656
		c-0.97-1.747,18.626,2.134,22.701,5.238c4.075,3.105,6.403,5.433,8.731,6.209c2.328,0.777,5.044,1.552,5.626-1.164
		c0.583-2.717,2.571-8.343,4.002-7.955c1.291,0.35,16.401,14.421,21.777,20.599c-3.723,3.005-6.159,5.127-6.159,5.127
		c-1.952,0.078-4.062,0.259-6.288,0.525c-0.341-4.044-4.019-8.595-4.019-8.595c-2.332-0.333-0.523,3.914-0.946,9.296
		c-6.038,0.977-12.72,2.471-19.571,4.319c-2.344-5.553-10.273-23.377-10.527-19.824c-0.317,4.44,4.16,16.782,5.807,21.145
		c-6.502,1.886-13.049,4.053-19.243,6.362c-7.029-6.857-26.533-25.179-26.533-25.179c-3.505-3.297-2.522,2.134-1.746,4.656
		c0.477,1.553,9.103,10.737,15.673,17.58c-4.735,2.228-16.419,1.435-16.419,1.435c1.759,4.573,15.174,3.123,20.139,2.42
		c0.682,0.702,1.283,1.32,1.804,1.854c-1.296,0.531-2.568,1.066-3.809,1.605c-11.087,4.812-22.903,17.143-32.436,29.322
		c-3.037-0.854-9.138-3.21-9.593-2.994c-2.955,1.407,2.766,5.434,6.131,7.54c-4.818,6.499-8.863,12.674-11.644,17.313
		C130.49,373.732,126.184,347.575,129.234,345.809z M173.472,573.981c-2.044,1.553-3.752,5.95-11.641,10.089
		c-7.89,4.14-41.655,19.015-44.285,17.98c-2.629-1.036,7.238-20.696,8.992-25.352c1.753-4.657,2.37-10.672,4.055-13.777
		c1.686-3.104,4-14.681,3.074-15.975c-0.926-1.294-9.835,5.95-17.432,7.243c-7.596,1.294-18.416,3.623-22.507,4.657
		c-4.09,1.034-13.287,4.154-14.164,4.93c-0.877,0.776-4.386-1.827-4.968-7c-0.585-5.173,6.598-19.66,11.565-24.317
		c4.968-4.656-3.384-4.139-3.384-4.139s-15.028,3.428-20.287,3.944c-5.259,0.518-11.562,4.333-13.315,3.299
		c-1.753-1.035-13.547-6.467-16.177-6.985c-2.629-0.518-21.554,3.277-24.183,4.054s6.412-20.546,10.796-24.976
		c4.382-4.431,21.516-17.56,26.774-19.629c5.259-2.069,9.126-5.755,7.374-6.015c-1.752-0.259-6.101-3.298-8.731-4.075
		c-2.629-0.775-4.161-1.939-6.791-2.716c-2.63-0.775-3.364-2.813-11.254-2.035c3.506-4.14,11.142-10.835,14.94-13.681
		c3.798-2.845,14.636-6.963,17.85-7.373s17.744,0.647,20.374-0.388c2.63-1.034,0-10.088-1.461-12.676
		c-1.461-2.589-8.765-8.538-8.765-8.538s5.258-8.277,10.81-10.606c4.688-1.966,29.968-6.609,42.518-8.082
		c-0.58,4.064-1.045,8.386-1.356,12.816c-0.009,0.12-0.017,0.243-0.025,0.365c-0.051,0.759-0.099,1.521-0.142,2.285
		c-0.014,0.257-0.029,0.514-0.042,0.771c-0.018,0.358-0.034,0.716-0.051,1.075c-0.019,0.424-0.036,0.85-0.051,1.277
		c-0.008,0.194-0.017,0.388-0.024,0.583c-8.405-2.912-30.092-1.26-30.092-1.26c-1.739,6.956,21.364,6.605,30.016,9.081
		c0.185,12.52,1.933,24.807,6.197,33.93c0.167,0.354,0.349,0.71,0.521,1.064c-3.948,1.029-10.107,2.665-16.593,4.507
		c-9.758-8.957-24.973-13.525-35.663-15.469c-11.383-2.07-28.458,2.069-28.458,2.069c3.104,5.174,8-1.526,38.288,8.248
		c4.105,0.321,11.375,4.981,15.832,8.103c-7.711,2.376-14.472,4.757-16.867,6.414c-6.726,4.657-15.004,13.971-18.109,16.041
		c-3.104,2.069-32.597,8.277-37.77,11.382c-5.174,3.104-3.622,6.727,4.14,3.621c7.761-3.104,31.043-8.731,37.252-11.091
		c6.208-2.36,15.005-13.226,18.626-14.261c3.194-0.913,34.184-8.264,44.814-9.986c3.868,5.906,8.519,11.737,13.553,17.275
		c-4.359,5.292-15.82,18.988-20.708,22.721c-6.099,4.655-33.52,8.796-37.66,17.592c-4.14,8.795,1.552,3.104,6.726,0
		c5.174-3.105,18.109-6.728,28.457-9.831c10.347-3.105,16.916-8.494,18.806-11.232c1.89-2.737,5.469,13.301,1.157,17.44
		c2.673,1.94,8.105-0.904,4.952-25.607c1.403-2.146,2.714-3.904,3.799-5.264c8.697,8.779,18,16.53,26.009,22.261
		c-3.092,7.338-8.245,18.831-12.298,24.194c-6.208,8.218-27.104,23.74-27.104,23.74s25.035-10.866,29.692-15.522
		c3.547-3.548,12.195-20.299,16.115-28.08c0.68,0.43,1.349,0.847,1.994,1.234c6.257,3.763,16.551,8.726,28.038,13.508
		c-5.548,4.743-18.73,15.9-24.87,20.127C182.464,573.399,175.518,572.429,173.472,573.981z M378.556,612.559
		c-0.517,1.682-3.88,9.441-5.045,11.511c-1.164,2.07-1.487,5.273-2.394,9.671c-3.492,0.646-14.099-7.989-16.426-9.671
		c-2.329-1.681-10.996-7.662-12.03-7.532s-1.424,3.492-2.069,4.656c-0.646,1.165-5.174,4.27-5.95,5.174
		c-0.775,0.906-2.457,3.882-2.976,10.22c-0.518,6.338,3.105,27.809,3.363,30.785c0.26,2.975-0.13,14.616-0.258,17.462
		c-0.131,2.845-0.958,14.422-0.053,19.726c-7.631,0.518-17.54-13.519-20.515-18.046c-6.598-12.046-9.054-16.037-12.186-16.297
		c-6.493-0.258-10.968,14.552-10.968,14.552s-3.764-5.045-4.541-6.597c-0.775-1.553-6.907-7.632-8.459-10.09
		c-1.552-2.458-3.654-13.809-4.561-19.501c-0.905-5.69-3.265-6.821-4.429-9.149c-1.165-2.328-4.656-7.632-6.726-7.244
		c-2.069,0.388-5.304,5.846-10.089,11.407c-4.786,5.563-5.207,19.679-5.207,19.679s-7.729-2.239-10.187-9.612
		c-5.308-14.607-2.716-26.904-2.457-30.01c0.259-3.104,3.751-10.219,4.397-13.323s-0.258-4.396-2.717-4.785
		c-1.293-1.293-13.968,4.073-16.427,4.331c-2.458,0.26-16.557,0.843-20.696,1.229c-4.139,0.389-17.081,2.591-17.081,2.591
		s4.34-11.71,6.539-22.446c2.199-10.735,7.826-13.904,9.507-16.88c1.68-2.97,10.134-12.245,10.157-12.272
		c5.782-4.514,11.091-8.853,13.905-11.521c18.59,7.314,38.77,13.52,49.538,13.249c6.117-0.154,11.749-0.106,17.11-0.052
		c0.01,0.838,0.021,1.786,0.035,2.82c-4.895,1.536-19.582,6.26-23.872,8.942c-2.298,1.437-6.157,3.256-10.415,4.982
		c-2.274-0.075-6.808-0.197-12.738-0.197c-8.667,0-14.875-4.657-16.168-4.657c-1.293,0-8.02,0.918-8.02,2.199
		c0,1.423,16.558,5.691,19.273,6.468c1.047,0.3,3.018,0.464,5.044,0.553c-1.051,0.29-2.052,0.541-2.975,0.741
		c-7.761,1.682-27.551,5.691-28.328,6.854c-0.776,1.165,1.553,3.752,4.14,3.364c2.587-0.389,19.402-5.143,24.964-5.935
		c5.562-0.792,16.168-3.638,20.696-5.837c4.526-2.199,14.487-7.631,17.85-8.149c2.32-0.357,7.595-2.314,10.643-3.494
		c0.082,4.21,0.196,8.573,0.352,11.386c0.037,0.667,0.126,1.543,0.255,2.583c-3.055,0.971-9.345,3.175-10.992,5.306
		c-2.199,2.848-10.995,15.522-13.193,18.756c-2.199,3.235-10.735,10.15-10.995,13.612c-0.259,3.463,1.034,5.102,2.457,4.477
		c1.424-0.626,7.89-9.809,9.831-11.361c1.94-1.553,7.761-8.796,9.701-10.866c1.94-2.069,2.975-6.597,4.139-8.277
		c0.876-1.268,7.076-3.708,10.083-4.836c1.27,7.563,3.216,17.478,4.699,24.359c-2.017,3.486-8.355,15.286-8.573,26.266
		c-0.259,13.064,3.492,25.224,3.492,25.224s1.164,4.786,3.623-2.199c-0.646-9.96-3.752-10.481-3.623-14.683
		c0.129-4.202,2.718-15.974,3.752-18.432c0.684-1.623,2.271-5.62,3.27-8.145c1.764,5.449,8.932,24.057,10.182,27.806
		c1.294,3.88,7.632,13.065,9.443,19.145s5.562,14.616,7.89,15.263c2.328,0.648,1.812-4.01,0.646-6.467
		c-1.163-2.458-18.755-38.676-23.929-60.019c-0.238-0.982-0.462-2.003-0.672-3.055c1.01,0.537,2.33,1.292,3.517,2.148
		c2.329,1.682,8.796,9.185,12.676,15.651c3.882,6.468,5.563,15.91,5.563,15.91s0.775,1.295,2.108-2.845
		c1.332-4.141-6.895-21.99-10.258-27.293c-2.599-4.097-11.214-10.006-15.001-12.483c-1.381-11.387-1.695-24.367-1.688-34.005
		l17.596,7.056c-0.181,4.287-0.464,14.879,0.969,18.153c1.811,4.14,15.677,13.001,19.04,12.612c3.363-0.388-8.537-6.985-10.607-9.83
		c-2.069-2.846-3.388-3.88-4.164-9.184c-0.51-3.479-0.563-7.503-0.538-9.868l2.672,1.072c0,0,20.438,8.667,24.835,12.417
		c4.398,3.752,14.099,18.886,12.677,13.711c-1.423-5.175-9.313-18.755-14.229-22.119c-1.59-1.088-7.391-3.787-14.509-6.939
		c2.275-0.43,6.069-1.12,7.395-1.209c1.94-0.13,10.864,1.812,10.219,0c-0.646-1.812-10.219-3.363-12.547-3.363
		c-1.715,0-7.771,1.332-10.85,2.034c-11.054-4.81-23.298-9.942-27.89-11.858c0.029-1.67,0.064-3.086,0.098-4.203
		c9.063-0.002,17.621-0.331,26.778-2.082c14.806-2.828,22.536-5.595,36.929-10.611c2.345,3.23,7.359,10.101,9.406,12.683
		c2.716,3.423,5.562,8.539,7.373,15.396C379.979,586.075,380.496,604.151,378.556,612.559z M542.118,498.57
		c-4.138-0.26,0.428,5.809,3.104,7.244c19.662,10.349,25.093,15.263,27.681,25.094c2.589,9.83,5.174,23.282,5.174,23.282
		s-2.069,2.069-19.919,7.761c-17.851,5.691-34.925,3.363-40.616,1.826s-21.989-13.467-23.8-14.362
		c-1.812-0.896-6.209-0.139-7.815,0.896c-1.605,1.034,0.831,8.796,0,13.467c-0.83,4.671-9,18.354-9,18.354s-0.518,2.328-3.105,2.328
		c-29.233,5.95-35.7-5.433-49.152-10.866c-13.452-5.433-12.935-11.642-19.145-11.383c-6.208,0.259-6.208,18.368-7.502,19.402
		c-0.871,0.697-9.015-3.885-14.241-6.952c-2.752-9.896-11.157-20.735-15.523-25.899c6.732-2.313,15.659-5.348,24.819-8.79
		c-1.197,3.464-3.323,9.981-3.462,12.988c-0.194,4.201,2.91,11.516,3.676,10.818c0.766-0.696,0.398-5.318,0.011-10.818
		c-0.292-4.142,5.462-12.451,8.323-16.307c10.314-4.15,20.118-8.694,26.532-13.174c0.231,0.358,0.489,0.752,0.777,1.183
		c-2.289,4.229-1.762,14.454-0.903,17.888c0.972,3.88,5.542,15.748,6.985,13.583c1.165-1.746-1.94-12.224-2.328-16.655
		c-0.233-2.653,0.647-5.579,1.393-7.503c2.452,3.33,4.841,6.352,5.84,7.083c2.381,1.746,15.662,16.492,16.632,18.045
		c0.972,1.551,3.299,14.356,4.852,16.298c1.552,1.94,6.402,4.269,6.791,2.717c0.388-1.553-1.94-3.104-3.492-5.821
		c-1.553-2.717-3.105-12.806-4.463-16.491c-0.742-2.014-5.011-6.455-9.084-10.421c1.729,0.408,4.008,0.897,5.786,1.105
		c3.298,0.387,9.118,3.106,10.478,3.493c1.356,0.389,5.237,4.075,5.237,4.075c0.971-1.164,0-4.656-1.357-6.791
		c-1.358-2.134-10.865-6.209-13.679-7.373c-2.15-0.889-9.787-0.985-13.275-0.981c-0.334-0.319-0.607-0.58-0.792-0.765
		c-1.691-1.691-8.131-12.271-10.731-16.593c6.171-6.446,10.743-11.877,14.18-16.846c10.63-1.622,29.311-2.368,34.58-0.903
		c6.005,1.667,22.895,11.645,30.727,16.318c-0.233,1.466-0.457,3.119-0.457,4.054c0,1.939,4.849,6.598,5.82,9.313
		c0.97,2.716,2.095,12.027,8.322,12.998c0,0-2.891-4.462-3.472-7.177c-0.582-2.717,1.746-5.239,0-7.762
		c-1.251-1.807-2.694-5.02-3.06-7.229c9.411,5.4,29.31,16.665,31.581,18.288c2.716,1.939,10.477,5.819,9.313,2.716
		c-2.228-4.602-12.689-12.438-25.122-20.516c2.033-0.331,4.749-0.654,6.689-0.438c3.492,0.388,14.358,2.135,10.477-1.94
		c-1.683-1.768-17.346-3.793-25.562-2.938c-11.57-7.155-23.61-13.976-31.718-18.354c2.653-2.053,7.335-5.484,8.968-5.484
		c2.328,0,13.192-2.716,13.192-2.716s8.867,4.533,15.911,5.378c7.044,0.846,11.642-1.109,17.851-5.378
		c6.597-3.784-15.328,4.56-14.358,0c-3.881-0.389-12.611-2.33-12.611-2.33s16.589-6.693,21.827-6.499
		c5.239,0.194,25.708,1.585,18.724-1.973c0,0-12.418-5.109-23.282-3.168c-10.866,1.939-10.866,1.939-10.866,1.939
		s7.762-10.478,10.09-12.029c2.327-1.553,0-3.881-3.881-2.328c-3.881,1.552-12.806,15.134-13.97,17.85
		c-5.044,0.389-17.85,3.493-19.402,4.27c0-6.597,1.94-13.971,6.597-16.298c4.657-2.329,5.045-7.241,3.88-8.083
		c-1.163-0.843-6.208,0.779-10.477,6.371c-4.268,5.592-5.434,18.397-6.209,20.338c-2.235,1.117-7.047,4.42-9.566,6.182
		c-0.694-0.34-1.245-0.597-1.611-0.749c-4.788-1.995-23.086-2.943-32.475-3.307c1.499-3.572,2.568-7.155,3.432-11.013
		c4.438-5.843,10.794-14.265,13.446-18.031c4.269-6.066,14.938-14.604,17.655-14.021c2.717,0.583,12.007,2.522,12.212,6.015
		c1.176-4.269-4.838-10.672-12.406-10.09c-7.566,0.583-10.477,5.045-10.477,5.045s-0.388-8.534,32.014-23.475
		c2.523-0.973,1.992-3.218-0.582-2.266c0,0-26.582,9.442-32.208,16.815c-4.301,5.635-13.469,21.119-17.553,28.11
		c0.764-5.146,1.545-10.938,2.661-17.766c0.064-0.405,0.111-0.804,0.17-1.207c0.059-0.4,0.117-0.802,0.17-1.2
		c0.06-0.457,0.115-0.912,0.164-1.364c0.061-0.538,0.11-1.074,0.157-1.606c0.046-0.527,0.088-1.054,0.122-1.578
		c0.035-0.556,0.066-1.109,0.091-1.661c0.015-0.356,0.028-0.715,0.037-1.069c0.02-0.778,0.031-1.552,0.026-2.32
		c-0.003-0.262-0.013-0.521-0.018-0.782c-0.011-0.616-0.029-1.23-0.058-1.843c-0.014-0.292-0.026-0.584-0.043-0.875
		c-0.046-0.791-0.104-1.578-0.176-2.361c-0.021-0.229-0.048-0.457-0.07-0.686c-0.068-0.652-0.145-1.302-0.229-1.948
		c-0.03-0.232-0.058-0.465-0.092-0.694c-0.113-0.806-0.24-1.608-0.38-2.406c-0.034-0.185-0.07-0.37-0.104-0.555
		c-0.134-0.729-0.279-1.456-0.436-2.179c-0.027-0.129-0.053-0.257-0.082-0.387c-0.188-0.854-0.395-1.702-0.613-2.549
		c-0.023-0.093-0.049-0.187-0.073-0.28c-0.092-0.35-0.181-0.701-0.278-1.05c21.483-15.194,36.299-11.089,42.605-10.528
		c3.88,0,29.581,3.186,31.561,8.537c-3.104,11.123-21.478,22.786-24.318,28.456c0,0,1.117,1.445,12.418,4.291
		c31.302,7.653,37.771,13.56,49.411,22.097c11.643,8.537,14.229,13.712,14.229,13.712s-7.502,5.173-13.97,7.762
		C565.4,496.76,546.258,498.829,542.118,498.57z"/>
	<path fill="#9A6732" d="M309.022,306.38c19.061,7.756,50.437,38.21,58.73,55.319c4.789,9.88,9.926,22.166,14.066,34.936
		c-1.203-10.424-4.188-25.889-11.607-38.41c-12.416-20.955-32.208-35.312-45.752-47.73c-13.544-12.417-26.425-11.253-32.434-10.865
		c-2.748,0.177-7.73,0.679-12.329,1.171c-10.053,5.674-17.986,12.669-17.986,12.669S289.964,298.625,309.022,306.38z"/>
	<path fill="#9A6732" d="M388.797,424.825c3.369,21.471,7.361,32.015,8.984,38.869c1.079,4.563,4.243,14.383,5.481,21.118
		l0.503-28.332c-0.86,4.917-1.961-17.324-8.417-44.662C393.584,416.485,390.888,421.358,388.797,424.825z"/>
	<path fill="#9A6732" d="M139.383,408.397c2.442,6.57,13.03,16.619,18.309,21.229c7.653,6.686,27.846,22.979,32.114,24.921
		c4.269,1.939,45.625,30.125,55.326,32.123c9.701,1.997,23.695,12.048,62.031,9.001c27.962-2.222,32.228-17.084,32.491-24.968
		c-3.597,5.64-22.602,6.364-32.266,7.49c-11.948,1.392-59.409-3.913-105.588-29.881c-32.458-18.25-57.775-53.161-57.775-53.161
		s-0.449-13.129,3.868-6.275c4.318,6.854,30.701,35.492,71.661,58.46c40.961,22.966,75.689,20.093,75.689,20.093
		c30.642,2.291,37.787-11.823,44.055-1.615c0,0,21.213,8.438,27.521,2.227s0-31.026,0-31.026l6.689,10.053
		c-7.543-13.884-16.264-28.979-26.05-41.681c-13.567-17.609-41.782-44.506-86.286-60.94c-21.067-7.78-44.116-9.756-57.645-12.69
		c-20.393,6.236-27.713,10.913-47.719,30.618c-8.301,9.924-13.804,21.599-17.361,33.263
		C138.285,400.647,138.418,405.796,139.383,408.397z M169.798,352.405c8.355-8.926,32.39-18.35,32.39-18.35
		s20.869,1.104,58.577,14.082c37.708,12.976,67.927,43.849,72.195,48.894c4.269,5.044,22.895,24.835,16.687,28.583
		c-6.209,3.75-13.582-1.032-17.074,0c-3.492,1.033,1.94,19.923,0,21.475c-1.94,1.554-20.567,11.254-42.297,5.82
		c-21.731-5.432-59.759-34.924-66.776-41.065c-7.017-6.143-54.683-29.559-58.952-37.319
		C160.279,366.763,167.804,354.534,169.798,352.405z"/>
	<path fill="#9A6732" d="M418.612,398.041c-3.271-4.547-12.51-37.192-28.313-51.382c-6.933-7.45-20.392-12.752-20.392-12.752
		s24.345,21.979,32.595,67.733C411.202,407.433,416.022,404.4,418.612,398.041z"/>
	<path fill="#9A6732" d="M421.249,371.482c-6.491-8.137-14.382-14.403-14.382-14.403s11.955,18.403,13.945,31.671
		C421.554,382.819,421.488,376.363,421.249,371.482z"/>
	<path fill="#734D21" d="M403.263,484.812c0.626,3.406,0.76,6.028-0.121,6.778c-6.76,4.838-12.253-11.992-21.418-29.178
		c-2.555-4.791-5.299-9.981-8.216-15.346l-6.689-10.053c0,0,6.308,24.814,0,31.026s-27.521-2.227-27.521-2.227
		c1.197,1.952,1.205,3.559,0.356,4.89c-0.264,7.884-4.529,22.746-32.491,24.968c-38.335,3.047-52.33-7.004-62.031-9.001
		c-9.701-1.998-51.058-30.184-55.326-32.123c-4.269-1.941-24.461-18.235-32.114-24.921c-5.279-4.61-15.866-14.659-18.309-21.229
		c-0.965-2.601-1.098-7.75-0.936-12.76c-6.847,22.459-6.467,44.879-4.885,54.682c5.322,32.98,37.83,65.058,61.822,77.966
		c4.002,2.134-1.994-2.801,2.615-3.968c4.606-1.17,38.366,33.566,116.981,28.123c0,0,40.509-13.215,50.103-19.57
		c7.971-4.342,1.807,7.1,1.807,7.1s9.379-3.076,15.374-4.655c5.995-1.58,23.233-7.101,31.521-12.384
		c8.288-5.279,23.386-14.447,33.208-41.247c4.921-13.427,6.485-26.403,6.569-36.972c0.006-0.639,0.006-1.27,0-1.891
		c-0.082-9.609-1.361-17.002-2.309-20.571c-2.018-7.616-3.014,19.936-15.882,35.422c-3.629,3.594,1.155-19.844,5.186-34.187
		c7.09-25.229-2.823-30.662-2.823-30.662s-1.26,28.263-10.021,34.764c-8.762,6.502,7.135-19.226,1.587-41.013
		c-1.03-5.093-4.309-10.403-8.05-15.092c0.239,4.881,0.305,11.337-0.437,17.269c0.582,3.879,0.313,7.32-1.358,9.734
		c-0.213,0.207-0.494,0.039-0.842-0.444c-2.59,6.359-7.41,9.393-16.109,3.6c2.799,15.521,3.748,33.774,1.263,54.84L403.263,484.812z
		 M179.941,472.843c-17.101-12.651-36.278-33.076-37.704-35.255s-4.771-10.773-1.391-11.948c2.642-0.919,21.034,22.944,34.58,31.914
		c13.546,8.971,30.836,29.392,70.611,38.823c39.775,9.432,70.859,3.69,85.581,0.022c14.721-3.668,25.922-4.779,28.129-2.593
		c2.209,2.185,6.672,3.618,0.641,5.494c-6.032,1.874-13.742,2.771-24.015,5.14c-10.271,2.368-51.983,10.372-84.972,3.275
		C218.412,500.621,197.042,485.495,179.941,472.843z"/>
	<path fill="#B0753A" d="M324.46,310.496c13.544,12.418,33.336,26.775,45.752,47.73c7.42,12.521,10.404,27.986,11.607,38.41
		c3.028,9.342,5.528,18.94,6.955,28.051c0.008,0.048,0.015,0.092,0.022,0.139c2.091-3.467,4.787-8.34,6.552-13.007
		c-4.77-20.198-12.46-43.178-25.14-60.046c-29.838-39.696-44.479-49.313-61.813-56.75c-8.322-3.571-19.414,0.541-28.7,5.78
		c4.599-0.492,9.581-0.994,12.329-1.171C298.035,299.243,310.916,298.079,324.46,310.496z"/>
	<path fill="#734D21" d="M331.537,374.455c34.812,34.918,55.863,76.209,55.863,76.209s-5.016-19.012-8.26-28.864
		c-3.242-9.853-11.771-18.358-12.473-21.384c-0.702-3.025,3.8,3.304,6.474-2.182c2.673-5.486-17.78-14.694-19.687-20.081
		c-1.904-5.389,11.306,2.46,11.374-2.896c0.069-5.356-21.574-5.72-23.353-10.607c-1.777-4.886,12.161-2.562,10.704-8.287
		c-1.458-5.727-24.799-0.938-26.461-5.369c-1.663-4.43,13.569,0.866,12.196-4.521c-1.37-5.388-26.479-3.016-22.729-7.163
		c3.75-4.148,14.687-6.398,8.532-7.244c-7.108-0.977-14.24,1.036-27.012,1.192c9.693-10.667-5.219-4.19-16.213-2.626
		c-11.683,1.662,6.433-5.529,0.192-7.632c-18.928-6.377-53.76,3.15-53.76,3.15C237.455,327.384,296.726,339.537,331.537,374.455z"/>
	<path fill="#010101" d="M295.243,467.429c0,0-34.728,2.873-75.689-20.093c-40.96-22.968-67.343-51.605-71.661-58.46
		c-4.316-6.854-3.868,6.275-3.868,6.275s25.317,34.911,57.775,53.161c46.18,25.968,93.64,31.272,105.588,29.881
		c9.664-1.126,28.669-1.851,32.266-7.49c0.849-1.331,0.841-2.938-0.356-4.89C333.029,455.606,325.885,469.72,295.243,467.429z"/>
	<path fill="#B0753A" d="M223.499,411.843c7.017,6.142,45.045,35.634,66.776,41.065c21.73,5.434,40.357-4.267,42.297-5.82
		c1.94-1.552-3.492-20.441,0-21.475c3.492-1.032,10.865,3.75,17.074,0c6.208-3.748-12.418-23.539-16.687-28.583
		c-4.269-5.045-34.487-35.918-72.195-48.894c-37.708-12.977-58.577-14.082-58.577-14.082s-24.035,9.424-32.39,18.35
		c-1.994,2.129-9.519,14.357-5.251,22.119C168.816,382.285,216.482,405.701,223.499,411.843z M201.041,342.058
		c9.699,2.777,47.693,23.745,68.33,36.578c20.638,12.832,59.484,56.156,54.682,56.92c-9.205,1.463-58.274-47.517-65.544-52.92
		c-7.272-5.404-44.816-22.518-54.83-27.993c-10.014-5.475-19.855-2.767-20.215-5.85C183.104,345.709,191.342,339.28,201.041,342.058
		z M173.445,366.759c0,0,43.757,16.781,57.689,25.706c13.931,8.925,49.896,32.601,52.875,38.051c2.979,5.451,5.768,5.907,0.757,6.49
		c-5.012,0.584-49.568-29.777-58.358-34.809c-8.79-5.032-49.732-24.485-52.243-29.271
		C171.653,368.139,170.766,370.585,173.445,366.759z"/>
	<path fill="#010101" d="M226.407,402.197c8.791,5.031,53.347,35.393,58.358,34.809c5.011-0.583,2.222-1.039-0.757-6.49
		c-2.978-5.45-38.943-29.126-52.875-38.051c-13.932-8.925-57.689-25.706-57.689-25.706c-2.679,3.827-1.792,1.38,0.719,6.167
		C176.675,377.711,217.617,397.165,226.407,402.197z"/>
	<path fill="#010101" d="M203.679,354.642c10.014,5.476,47.558,22.589,54.83,27.993c7.271,5.403,56.339,54.383,65.544,52.92
		c4.803-0.764-34.044-44.088-54.682-56.92c-20.637-12.833-58.631-33.801-68.33-36.578c-9.699-2.778-17.937,3.652-17.578,6.734
		C183.823,351.875,193.665,349.167,203.679,354.642z"/>
	<path fill="#010101" d="M336.373,504.441c10.272-2.368,17.982-3.266,24.015-5.14c6.031-1.876,1.568-3.31-0.641-5.494
		c-2.207-2.187-13.408-1.075-28.129,2.593c-14.722,3.668-45.806,9.409-85.581-0.022c-39.775-9.432-57.065-29.853-70.611-38.823
		c-13.546-8.97-31.938-32.833-34.58-31.914c-3.379,1.175-0.035,9.77,1.391,11.948s20.603,22.604,37.704,35.255
		c17.1,12.651,38.47,27.777,71.459,34.873C284.39,514.813,326.102,506.809,336.373,504.441z"/>
</g>
<g>
	<g>
		<path fill="none" d="M91.226,174.198c0.908,2.366,2.34,4.57,4.297,6.617c1.954,2.046,4.614,3.752,7.981,5.116
			c3.363,1.364,7.729,2.046,13.097,2.046c5.819,0,11.14-0.591,15.961-1.773c4.818-1.181,9.093-2.818,12.823-4.911
			c2.637-1.454,5.594-3.82,8.868-7.094c3.274-3.274,6.501-7.865,9.686-13.778c0.362-1,0.726-1.91,1.091-2.729
			c0.362-0.818,0.546-1.683,0.546-2.592c0-3.364-1.07-6.252-3.206-8.663c-2.139-2.409-4.754-4.411-7.844-6.002
			c-3.094-1.59-6.368-2.865-9.823-3.82c-3.458-0.955-6.459-1.614-9.004-1.979l-32.469-5.593c-0.912-0.182-2.025-0.362-3.343-0.546
			c-1.32-0.182-2.434-0.089-3.342,0.272c-2.276,0.91-4.049,2.251-5.321,4.025c-1.274,1.773-2.298,3.73-3.07,5.866
			c-0.774,2.137-1.251,4.184-1.432,6.139c-0.183,1.958-0.273,3.616-0.273,4.979c0,6.094,0.863,12.052,2.592,17.872
			C89.588,169.65,90.314,171.833,91.226,174.198z"/>
		<path fill="#676734" d="M320.417,171.606c-2.002,10.186-3.001,19.01-3.001,26.466c0,5.184,0.361,9.368,1.092,12.551
			c4.272-0.728,7.434-2.024,9.48-3.888c2.047-1.863,3.069-4.933,3.069-9.208c0-2.638-0.545-5.116-1.637-7.436
			c-1.091-2.319-2.411-4.796-3.956-7.435c-0.911-1.819-1.773-3.616-2.593-5.389C322.054,175.494,321.235,173.606,320.417,171.606z"
			/>
		<path fill="#676734" d="M166.122,165.467c-3.185,5.367-6.412,9.572-9.686,12.62c-3.274,3.048-6.187,5.343-8.732,6.889
			c-8.185,4.822-18.553,7.23-31.104,7.23c-7.367,0-13.121-1.113-17.258-3.342c-4.139-2.228-7.299-4.843-9.482-7.845
			c0.363,9.368-1.593,17.28-5.866,23.738c0.546,0.729,1.228,1.433,2.046,2.115c0.818,0.682,2.067,1.296,3.752,1.841
			c1.681,0.546,3.977,1.002,6.889,1.364c2.909,0.364,6.592,0.546,11.05,0.546h23.738c6.91,0,12.687-0.796,17.325-2.387
			c4.639-1.59,8.366-3.637,11.188-6.14c2.817-2.501,4.955-5.273,6.411-8.321c1.454-3.047,2.592-6.071,3.411-9.072
			c0.363-1.546,0.546-3.773,0.546-6.685c0-2.272-0.297-4.57-0.887-6.889C168.872,168.81,167.759,166.922,166.122,165.467z"/>
		<path fill="#676734" d="M272.941,142.207c0.09-1.683,0.044-3.432-0.136-5.252c0-2.092-0.319-4.864-0.955-8.322
			c-0.639-3.456-2.275-6.548-4.912-9.276c-2.093-2.456-5.184-4.616-9.276-6.48c-4.092-1.863-8.458-3.159-13.097-3.888l-6.685-1.091
			c-4.822-0.819-9.233-1.546-13.233-2.183c-4.003-0.635-7.05-1.137-9.14-1.501c-2.821-0.545-5.662-1.705-8.527-3.479
			s-5.072-3.978-6.617-6.617c-0.729,2.274-1.32,4.525-1.773,6.753c-0.456,2.23-0.682,4.388-0.682,6.48
			c0,3.91,0.819,6.957,2.456,9.141c1.181,1.455,2.661,2.66,4.434,3.615s3.5,1.705,5.184,2.251c1.681,0.545,3.795,1.091,6.343,1.637
			l23.192,3.683c3.363,0.546,6.729,1.343,10.095,2.388c3.364,1.046,6.524,2.41,9.481,4.093c2.955,1.684,5.594,3.594,7.913,5.729
			c2.319,2.137,4.161,4.571,5.525,7.299C272.713,145.549,272.849,143.891,272.941,142.207z"/>
		<path fill="#676734" d="M97.91,123.721l38.335,6.412c0.908,0.273,2.817,0.637,5.729,1.091c2.909,0.457,6.024,1.319,9.345,2.592
			c3.318,1.275,6.569,3.093,9.754,5.457c3.182,2.366,5.593,5.321,7.23,8.868c0.545-2.818,0.727-5.273,0.545-7.367
			c-0.365-9.639-2.775-16.553-7.23-20.736c-4.458-4.182-11.234-7.047-20.327-8.595c-10.461-1.638-19.692-3.115-27.694-4.434
			c-8.005-1.317-13.506-2.251-16.507-2.797c-3.001-0.545-5.891-1.705-8.663-3.479c-2.775-1.773-4.936-3.978-6.48-6.617
			c-0.73,2.274-1.321,4.525-1.774,6.753c-0.457,2.23-0.682,4.388-0.682,6.48c0,3.638,0.818,6.685,2.456,9.141
			c1.18,1.455,2.66,2.66,4.434,3.615c1.773,0.955,3.5,1.705,5.184,2.251C93.248,122.903,95.362,123.359,97.91,123.721z"/>
		<path fill="#676734" d="M262.983,181.019c-1.821,1.547-3.708,2.819-5.662,3.82c-1.957,1.001-4.253,1.82-6.89,2.455
			c-2.638,0.637-5.661,1.16-9.072,1.569c-3.411,0.409-7.571,0.614-12.483,0.614c-2.548,0-5.32,0.091-8.321,0.272
			c-3.001,0.184-5.935,0.593-8.799,1.228c-2.865,0.637-5.481,1.706-7.845,3.206c-2.366,1.5-4.093,3.57-5.184,6.208
			c-1.637,4.638-2.367,9.004-2.183,13.096c1.817-1.91,4.955-2.865,9.413-2.865l34.106-0.273c7.274,0,13.186-0.635,17.735-1.91
			c4.545-1.273,8.229-3.047,11.05-5.321c2.818-2.272,4.933-4.796,6.344-7.572c1.409-2.773,2.477-5.57,3.206-8.39
			c0.181-0.362,0.273-0.864,0.273-1.501c0-0.635,0.089-1.41,0.273-2.319c-2.455,1.455-5.276,2.183-8.458,2.183
			C267.029,185.521,264.528,184.021,262.983,181.019z"/>
		<path fill="#676734" d="M403.499,170.378c-2.094,5.094-5.185,9.004-9.277,11.732c-2.821,2.094-5.524,3.594-8.117,4.502
			c-2.592,0.91-5.139,1.616-7.64,2.115c-2.503,0.5-5.071,0.886-7.707,1.159c-2.64,0.272-5.321,0.773-8.05,1.5
			c-3.366,0.729-5.935,1.705-7.707,2.933c-1.773,1.228-3.206,3.253-4.298,6.071c-1.184,2.546-1.82,4.89-1.91,7.025
			c-0.092,2.137-0.137,4.161-0.137,6.071c2.091-1.91,5.365-2.865,9.822-2.865l8.868-0.273c7.094,0,12.981-0.635,17.667-1.91
			c4.682-1.273,8.411-3.047,11.187-5.321c2.771-2.272,4.865-4.796,6.275-7.572c1.408-2.773,2.478-5.57,3.206-8.39
			c0.181-0.908,0.316-1.773,0.409-2.592c0.089-0.819,0.044-1.727-0.136-2.729C405.955,177.383,405.137,173.563,403.499,170.378z"/>
		<path fill="#676734" d="M478.806,193.024c0-3.909,0.999-7.64,3.001-11.187c-3.367,1.729-6.48,3.39-9.346,4.98
			c-2.864,1.591-5.027,3.117-6.479,4.57c-3.368,3.73-5.048,7.458-5.048,11.187c0,3.001,1.067,5.047,3.205,6.139
			c2.137,1.091,4.523,1.637,7.163,1.637h15.279c-1.821-1.637-3.57-3.865-5.253-6.685C479.644,200.847,478.806,197.3,478.806,193.024
			z"/>
		<path fill="#676734" d="M498.313,110.625c-8.004-0.908-15.825-1.841-23.465-2.796c-7.64-0.956-15.463-2.16-23.465-3.616
			c-2.64-0.545-5.389-1.705-8.254-3.479s-5.027-3.978-6.479-6.617c-1.91,5.275-2.865,9.686-2.865,13.233
			c0,3.638,0.862,6.685,2.593,9.141c2.362,3.184,5.456,5.184,9.275,6.002c3.82,0.818,7.504,1.411,11.051,1.773
			c3.182,0.456,7.524,0.955,13.028,1.501c5.501,0.545,12.255,1.455,20.26,2.729c2.544,0.546,5.501,1.296,8.867,2.251
			c3.363,0.955,6.549,2.229,9.55,3.82c3.001,1.592,5.478,3.594,7.434,6.002c1.955,2.41,2.934,5.389,2.934,8.936
			c1.271-2.272,2.272-4.616,3.002-7.026c0.726-2.408,1.091-5.024,1.091-7.844c0-5-1.956-9.979-5.866-14.938
			C513.092,114.74,506.861,111.716,498.313,110.625z"/>
		<path fill="#676734" d="M405.682,140.774c0-3.547-0.409-6.935-1.228-10.163c-0.818-3.228-2.549-6.161-5.184-8.8
			c-3.731-3.729-8.574-6.525-14.53-8.39c-5.958-1.863-11.527-2.797-16.711-2.797c-5.822,0-10.733,1.773-14.734,5.32
			c-4.004,3.547-7.049,7.64-9.141,12.278c0.999-0.182,1.91-0.318,2.729-0.409c0.818-0.089,1.772-0.137,2.864-0.137
			c3.728,0,7.593,0.32,11.597,0.955c4,0.637,7.865,1.455,11.596,2.456c3.001,0.546,6.092,1.228,9.276,2.046
			c3.182,0.819,6.251,1.933,9.209,3.342c2.954,1.412,5.615,3.138,7.979,5.185c2.365,2.046,4.183,4.48,5.459,7.298
			C405.409,145.958,405.682,143.229,405.682,140.774z"/>
		<path fill="#676734" d="M444.153,69.834c1.271-1.999,2.659-4.274,4.16-6.821c1.501-2.545,2.341-5.093,2.524-7.64
			c0-2.818-0.934-5.639-2.797-8.458c-1.865-2.818-5.026-5.23-9.481-7.23c-2.639-1.091-5.163-2.774-7.571-5.048
			c-2.411-2.271-4.071-4.864-4.979-7.775c-1.547,2.183-2.912,4.865-4.093,8.049c-1.184,3.185-1.685,6.003-1.501,8.458
			c0,2.183,0.363,3.91,1.092,5.184c1.454,2.82,3.591,5.071,6.412,6.753c2.817,1.684,4.865,2.797,6.139,3.343
			c2.818,1.091,5.069,2.478,6.753,4.161C442.491,64.492,443.607,66.833,444.153,69.834z"/>
		<path fill="#676734" d="M328.671,110.352c-2.319-3.001-6.255-5.048-11.801-6.14c-2.821-0.545-5.618-1.705-8.39-3.479
			c-2.775-1.773-4.937-3.978-6.48-6.617c-1.638,4.457-2.456,8.868-2.456,13.233c0,3.91,0.818,6.957,2.456,9.141
			c1.91,2.456,4.434,4.183,7.571,5.184c3.138,1.002,5.389,1.684,6.754,2.046c4.092,1.001,6.957,2.319,8.594,3.956
			c0.908,0.546,1.613,1.296,2.115,2.251c0.498,0.955,0.93,1.888,1.296,2.796c0.908-2.092,1.772-4.387,2.592-6.89
			c0.819-2.501,1.228-4.57,1.228-6.207C332.149,116.445,330.99,113.353,328.671,110.352z"/>
		<path fill="#96934E" d="M80.175,100.87c0,0-3.162,9.082,17.792,12.923c20.955,3.842,69.52,7.546,72.383,18.932
			c2.864,11.386-1.433,21.097-1.433,21.097l-11.579-16.396l-41.909-10.079l-24.447-2.727L77.79,113.793L80.175,100.87z"/>
		<path fill="#96934E" d="M197.917,100.87c0,0-2.659,9.082,14.957,12.923c17.616,3.842,58.44,7.546,60.848,18.932
			c2.408,11.386-1.205,21.097-1.205,21.097l-9.733-16.396l-35.23-10.079l-20.551-2.727l-11.092-10.827L197.917,100.87z"/>
		<path fill="#96934E" d="M434.519,100.722c0,0-3.09,9.082,17.394,12.923s67.957,7.545,70.757,18.932
			c2.801,11.386-1.401,21.098-1.401,21.098l-11.318-16.397l-40.967-10.079l-23.896-2.727l-12.897-10.826L434.519,100.722z"/>
		<path fill="#96934E" d="M86.451,188.045c0,0,8.025,13.021,25.875,12.245c17.851-0.776,37.132-5.817,43.85-12.245
			c6.5-6.219,10.089-10.941,12.743-22.578l-2.459-2.139l-4.851,4.753l-8.828,11.06l-14.067,7.179l-18.335,2.813l-15.91-0.679
			l-15.424-11.35L86.451,188.045z"/>
		<path fill="#010101" d="M168.032,161.511c3.547-6.731,5.32-13.643,5.32-20.737c0.181-11.003-2.435-18.963-7.844-23.874
			c-5.413-4.912-13.212-8.095-23.396-9.55c-10.096-1.727-19.236-3.251-27.421-4.57c-8.186-1.317-13.779-2.251-16.78-2.796
			c-2.002-0.363-4.161-1.249-6.48-2.661c-2.319-1.41-4.071-3.115-5.252-5.116c-0.729-0.908-1.091-2.135-1.091-3.683
			c0-1.091,0.273-2.16,0.818-3.206c0.546-1.044,1-2.023,1.364-2.933c0.636-1.273,0.363-2.183-0.818-2.729
			c-1.456-0.728-2.456-0.455-3.001,0.818c-2.094,4.093-4.025,8.458-5.798,13.096c-1.773,4.639-2.66,9.414-2.66,14.325
			c0.18,2,0.521,3.979,1.022,5.934c0.499,1.957,1.386,3.707,2.661,5.252c1.454,2.001,3.411,3.662,5.866,4.979
			c2.456,1.319,4.682,2.251,6.685,2.797c-2.002,1.455-3.615,3.206-4.843,5.252c-1.228,2.046-2.115,4.14-2.661,6.275
			c-0.545,2.137-0.911,4.229-1.091,6.275c-0.183,2.047-0.273,3.752-0.273,5.116c-0.272,2.819-0.16,5.616,0.341,8.391
			c0.499,2.775,0.931,5.572,1.296,8.39c0.362,1.821,0.635,3.616,0.818,5.389c0.181,1.774,0.363,3.526,0.546,5.252
			c0.362,6.639-0.252,12.802-1.842,18.485c-1.593,5.684-5.252,10.664-10.982,14.938c-0.546,0.364-1.593,0.955-3.138,1.773
			c-1.274,0.546-1.547,1.548-0.818,3.002c0.726,1.091,1.773,1.364,3.138,0.818c2-1.091,3.66-2.16,4.98-3.206
			c1.317-1.044,2.797-2.569,4.434-4.57c1.726,1.82,4.366,3.342,7.913,4.57c3.547,1.228,9.775,1.842,18.69,1.842h23.738
			c7.82,0,14.3-0.932,19.44-2.797c5.137-1.863,9.276-4.182,12.415-6.958c3.138-2.773,5.5-5.887,7.094-9.345
			c1.59-3.456,2.75-6.773,3.479-9.958c0-0.728,0.089-1.454,0.273-2.183c0.362-1.91,0.545-3.866,0.545-5.866
			c0-2.638-0.457-5.503-1.364-8.595C172.442,166.06,170.668,163.512,168.032,161.511z M86.383,120.106
			c-1.774-0.955-3.253-2.16-4.434-3.615c-1.638-2.456-2.456-5.503-2.456-9.141c0-2.092,0.225-4.25,0.682-6.48
			c0.453-2.228,1.044-4.479,1.774-6.753c1.544,2.639,3.705,4.843,6.48,6.617c2.772,1.773,5.662,2.933,8.663,3.479
			c3.001,0.546,8.502,1.48,16.507,2.797c8.002,1.319,17.233,2.796,27.694,4.434c9.093,1.547,15.869,4.413,20.327,8.595
			c4.455,4.183,6.865,11.097,7.23,20.736c0.181,2.094,0,4.549-0.545,7.367c-1.637-3.547-4.048-6.501-7.23-8.868
			c-3.186-2.364-6.437-4.182-9.754-5.457c-3.321-1.273-6.437-2.136-9.345-2.592c-2.912-0.455-4.822-0.818-5.729-1.091l-38.335-6.412
			c-2.548-0.362-4.663-0.818-6.344-1.364C89.882,121.811,88.156,121.061,86.383,120.106z M86.724,144.798
			c0.181-1.955,0.658-4.001,1.432-6.139c0.771-2.136,1.795-4.093,3.07-5.866c1.272-1.773,3.045-3.115,5.321-4.025
			c0.908-0.362,2.022-0.455,3.342-0.272c1.318,0.184,2.431,0.364,3.343,0.546l32.469,5.593c2.545,0.364,5.546,1.024,9.004,1.979
			c3.455,0.955,6.729,2.23,9.823,3.82c3.09,1.591,5.706,3.594,7.844,6.002c2.136,2.411,3.206,5.299,3.206,8.663
			c0,0.909-0.184,1.774-0.546,2.592c-0.365,0.818-0.729,1.728-1.091,2.729c-3.185,5.913-6.412,10.504-9.686,13.778
			c-3.274,3.274-6.231,5.64-8.868,7.094c-3.73,2.093-8.005,3.73-12.823,4.911c-4.822,1.183-10.143,1.773-15.961,1.773
			c-5.368,0-9.733-0.682-13.097-2.046c-3.367-1.364-6.027-3.07-7.981-5.116c-1.958-2.046-3.389-4.25-4.297-6.617
			c-0.911-2.364-1.637-4.547-2.183-6.548c-1.729-5.819-2.592-11.778-2.592-17.872C86.451,148.414,86.541,146.756,86.724,144.798z
			 M169.805,184.703c-0.818,3.001-1.957,6.025-3.411,9.072c-1.456,3.048-3.594,5.82-6.411,8.321
			c-2.821,2.503-6.549,4.549-11.188,6.14c-4.638,1.591-10.415,2.387-17.325,2.387h-23.738c-4.458,0-8.142-0.182-11.05-0.546
			c-2.912-0.362-5.208-0.818-6.889-1.364c-1.685-0.545-2.934-1.159-3.752-1.841c-0.819-0.682-1.5-1.385-2.046-2.115
			c4.273-6.458,6.229-14.37,5.866-23.738c2.183,3.001,5.343,5.617,9.482,7.845c4.137,2.229,9.891,3.342,17.258,3.342
			c12.551,0,22.919-2.408,31.104-7.23c2.545-1.546,5.458-3.841,8.732-6.889c3.273-3.047,6.501-7.252,9.686-12.62
			c1.637,1.456,2.75,3.343,3.342,5.662c0.589,2.319,0.887,4.617,0.887,6.889C170.351,180.93,170.168,183.156,169.805,184.703z"/>
		<path fill="#96934E" d="M194.98,207.469c0,0,6.596-7.179,13.387-9.313c6.791-2.134,38.842-0.367,44.82-2.716
			c8.925-3.506,16.104-11.835,16.104-11.835l-5.82-5.433l-15.716,7.955l-34.148,1.851l-15.698,7.657L194.98,207.469z"/>
		<path fill="#96934E" d="M346.901,207.469c0,0,5.218-7.179,10.59-9.313c5.371-2.134,29.313-4.38,34.261-6.222
			c10.445-3.888,16.384-11.822,16.384-11.822l-4.385-12.611l-15.135,16.687l-26.981,3.791l-12.417,7.657L346.901,207.469z"/>
		<path fill="#010101" d="M282.628,170.651c-1.548,0-2.319,0.866-2.319,2.592c-0.729,4.639-3.683,7.231-8.868,7.776
			c-2.093,0.364-3.41-0.089-3.956-1.364c-0.546-0.908-0.638-1.706-0.273-2.387c0.362-0.682,0.727-1.385,1.091-2.115
			c1.91-3.001,3.364-6.412,4.366-10.231c0.999-3.82,1.954-7.457,2.865-10.914c1.364-5.819,1.954-11.822,1.773-18.008
			c-0.184-2.544-0.706-5.638-1.569-9.276c-0.865-3.637-2.707-7.047-5.525-10.231c-2.548-2.818-6.118-5.298-10.709-7.436
			c-4.594-2.136-9.392-3.568-14.393-4.297l-6.685-1.091c-3.73-0.728-7.823-1.433-12.278-2.115c-4.458-0.682-7.732-1.205-9.823-1.568
			c-2.002-0.363-4.185-1.249-6.548-2.661c-2.366-1.41-4.185-3.115-5.457-5.116c-0.911-1.726-1.183-3.411-0.818-5.047
			c0.18-0.728,0.499-1.521,0.955-2.388c0.453-0.864,0.863-1.658,1.228-2.387c0.818-1.092,0.545-2-0.819-2.729
			c-1.457-0.728-2.456-0.455-3.001,0.818c-0.365,0.364-0.593,0.818-0.682,1.364c-0.093,0.546-0.366,1.002-0.819,1.364
			c-1.457,2.819-2.98,6.459-4.57,10.914c-1.593,4.457-2.388,8.958-2.388,13.506c0,4.638,1.228,8.458,3.684,11.46
			c1.454,2.001,3.114,3.57,4.979,4.707c1.863,1.138,3.684,2.025,5.458,2.66c1.773,0.637,3.41,1.046,4.911,1.228
			c1.5,0.184,2.613,0.364,3.342,0.546l23.192,3.956c3.363,0.546,6.865,1.433,10.504,2.661c3.636,1.228,6.889,2.707,9.754,4.434
			c2.865,1.729,5.273,3.867,7.231,6.412c1.954,2.546,3.022,5.504,3.206,8.867c0.18,3.73-0.501,7.868-2.046,12.415
			c-1.547,4.549-3.82,7.959-6.821,10.231c-1.548,1.091-3.138,2.137-4.774,3.138c-1.637,1.001-3.64,1.841-6.003,2.523
			c-2.366,0.682-5.208,1.207-8.526,1.569c-3.321,0.364-7.527,0.546-12.62,0.546c-3.093,0-6.322,0.091-9.686,0.272
			c-3.367,0.184-6.641,0.729-9.823,1.638c-3.185,0.909-6.07,2.298-8.663,4.16c-2.592,1.865-4.57,4.389-5.935,7.572
			c-1.091,2.639-1.82,5.116-2.183,7.435c-0.366,2.32-0.546,4.525-0.546,6.617c0,4.456,0.658,7.935,1.978,10.437
			c1.318,2.5,1.979,3.932,1.979,4.297c1.091,1.091,2.09,1.271,3.001,0.545c1.364-1.092,1.544-2.093,0.545-3.001
			c-0.729-1.185-1.275-2.503-1.637-3.957c0-0.545,0.044-1.138,0.137-1.773c0.089-0.638,0.316-1.275,0.682-1.91
			c1.271-1.637,3.683-2.456,7.23-2.456h34.106c8.002,0,14.573-0.796,19.713-2.387c5.137-1.59,9.298-3.684,12.483-6.275
			c3.182-2.592,5.546-5.435,7.094-8.526c1.544-3.091,2.729-6.229,3.547-9.414c0-0.546,0.09-1.454,0.273-2.729
			c0.181-1.273,0.363-2.66,0.546-4.161c0.18-1.5,0.362-2.954,0.545-4.365c0.181-1.41,0.273-2.477,0.273-3.207
			C284.9,171.879,284.265,170.834,282.628,170.651z M267.007,139.887c-2.319-2.135-4.958-4.045-7.913-5.729
			c-2.957-1.683-6.117-3.046-9.481-4.093c-3.367-1.044-6.732-1.842-10.095-2.388l-23.192-3.683
			c-2.548-0.545-4.663-1.091-6.343-1.637c-1.684-0.546-3.411-1.297-5.184-2.251s-3.253-2.16-4.434-3.615
			c-1.637-2.184-2.456-5.23-2.456-9.141c0-2.092,0.226-4.25,0.682-6.48c0.453-2.228,1.044-4.479,1.773-6.753
			c1.544,2.639,3.752,4.843,6.617,6.617s5.706,2.933,8.527,3.479c2.09,0.364,5.137,0.866,9.14,1.501
			c4,0.637,8.411,1.364,13.233,2.183l6.685,1.091c4.638,0.729,9.004,2.024,13.097,3.888c4.093,1.865,7.184,4.025,9.276,6.48
			c2.637,2.729,4.273,5.82,4.912,9.276c0.635,3.458,0.955,6.23,0.955,8.322c0.181,1.82,0.226,3.569,0.136,5.252
			c-0.092,1.684-0.229,3.342-0.409,4.979C271.168,144.458,269.327,142.024,267.007,139.887z M278.671,185.657
			c0,0.637-0.092,1.139-0.273,1.501c-0.729,2.819-1.797,5.616-3.206,8.39c-1.411,2.776-3.525,5.299-6.344,7.572
			c-2.82,2.274-6.504,4.047-11.05,5.321c-4.549,1.274-10.461,1.91-17.735,1.91l-34.106,0.273c-4.458,0-7.596,0.955-9.413,2.865
			c-0.184-4.092,0.545-8.458,2.183-13.096c1.091-2.638,2.817-4.707,5.184-6.208c2.363-1.5,4.98-2.569,7.845-3.206
			c2.865-0.635,5.798-1.044,8.799-1.228c3.001-0.182,5.773-0.272,8.321-0.272c4.912,0,9.072-0.205,12.483-0.614
			c3.411-0.41,6.434-0.933,9.072-1.569c2.637-0.635,4.933-1.454,6.89-2.455c1.954-1.001,3.841-2.273,5.662-3.82
			c1.545,3.001,4.046,4.502,7.503,4.502c3.182,0,6.003-0.728,8.458-2.183C278.761,184.248,278.671,185.022,278.671,185.657z"/>
		<path fill="#96934E" d="M341.274,130.635l2.88-7.761c0,0,11.768-3.82,30.764,0c22.235,4.473,31.81,14.94,32.974,19.402
			c1.164,4.463-2.21,11.398-2.21,11.398l-10.08-12.95l-18.206-7.179l-22.345-3.753L341.274,130.635z"/>
		<path fill="#96934E" d="M297.64,100.722c0,0,5.023,9.127,11.233,11.869c6.208,2.742,25.539,8.175,23.986,13.313
			c-1.552,5.137-4.778,11.522-4.778,11.522l-5.763-9.021l-14.602-4.949l-9.523-8.149L297.64,100.722z"/>
		<path fill="#96934E" d="M459.823,206.304c0,0,3.299-6.654,6.403-9.051c3.104-2.396,13.672-5.32,13.672-5.32l4.566-12.404
			l-12.321,3.88l-10.805,9.411l-2.68,9.798L459.823,206.304z"/>
		<path fill="#96934E" d="M315.847,199.901c0,0,4.279-16.298,5.832-15.91c1.552,0.389,11.269,8.829,11.269,8.829l-12.239-26.679
			l-5.414,19.015L315.847,199.901z"/>
		<path fill="#010101" d="M405.137,165.467c0.726-1.91,1.271-3.432,1.637-4.57c0.362-1.137,0.726-2.706,1.092-4.707
			c0.361-2.092,0.839-4.707,1.432-7.844c0.59-3.138,0.794-5.751,0.613-7.844c0-4.093-0.477-7.958-1.433-11.596
			c-0.954-3.637-3.024-7.047-6.206-10.231c-4.094-4.275-9.345-7.388-15.757-9.345c-6.413-1.955-12.482-2.933-18.213-2.933
			c-6.548-0.182-12.439,1.773-17.667,5.866c-5.231,4.093-9.118,9.87-11.665,17.326c-2.638,1.182-5.003,2.776-7.093,4.775
			c0.998-1.999,2.047-4.455,3.138-7.367c1.092-2.911,1.637-5.366,1.637-7.367c-0.184-3.729-1.661-7.592-4.434-11.596
			c-2.775-4.002-7.527-6.685-14.257-8.049c-2.093-0.546-4.344-1.522-6.752-2.934c-2.412-1.409-4.162-3.115-5.253-5.116
			c-0.729-0.908-1.092-2.046-1.092-3.411c0-1.091,0.272-2.16,0.819-3.206c0.546-1.044,1.091-2.023,1.637-2.933
			c0.546-1.092,0.272-2-0.818-2.729c-1.457-0.728-2.502-0.455-3.138,0.818c-2.003,3.73-3.889,8.003-5.662,12.823
			c-1.773,4.822-2.66,9.504-2.66,14.052c0,2.001,0.226,4.024,0.682,6.071c0.453,2.046,1.364,3.935,2.729,5.662
			c2.363,3.092,5.365,5.252,9.003,6.479c3.638,1.229,6.184,2.026,7.641,2.388c2.09,0.363,3.659,0.818,4.706,1.364
			c1.045,0.546,1.842,1.046,2.388,1.5c1.818,1.821,2.729,4.32,2.729,7.503c0,1.638-0.183,3.229-0.546,4.775
			c-0.729,2.183-1.479,4.389-2.25,6.617c-0.775,2.229-1.525,4.48-2.252,6.753c-2.183,7.823-3.888,15.234-5.116,22.237
			c-1.227,7.004-1.841,13.46-1.841,19.372c0,2.456,0.089,4.753,0.272,6.889c0.181,2.138,0.453,4.208,0.819,6.208l-5.594,1.228
			c-1.092,0-1.638,0.637-1.638,1.91c-0.183,0.727-0.046,1.317,0.409,1.773c0.453,0.454,0.955,0.59,1.501,0.41
			c2.091-0.184,3.933-0.41,5.525-0.683c1.59-0.272,3.479-0.592,5.661-0.955c5.457-1.092,9.389-3.227,11.801-6.412
			c2.409-3.184,3.615-6.821,3.615-10.914c0-3.184-0.614-6.161-1.842-8.937c-1.228-2.774-2.57-5.478-4.024-8.117
			c-2.093-3.729-3.684-7.367-4.775-10.914c-0.545-1.273-0.817-3.411-0.817-6.412c0-0.908,0-1.887,0-2.933
			c0-1.044,0.181-2.023,0.545-2.933c0.546-2.183,1.296-4.547,2.252-7.094c0.954-2.544,1.978-4.82,3.068-6.82
			c1.638-3.001,4.001-5.615,7.094-7.845c3.092-2.228,7.32-3.342,12.688-3.342c3.729,0,7.504,0.32,11.324,0.955
			c3.819,0.637,7.592,1.319,11.323,2.046c19.917,3.73,29.965,10.914,30.149,21.555c0.18,3.73-0.798,7.776-2.934,12.142
			c-2.139,4.365-4.663,7.687-7.571,9.959c-2.821,2.001-5.436,3.433-7.845,4.297c-2.411,0.865-4.844,1.479-7.299,1.842
			c-2.456,0.364-4.935,0.682-7.435,0.955c-2.503,0.272-5.162,0.682-7.98,1.228c-3.73,0.91-6.754,2.251-9.072,4.025
			c-2.319,1.773-4.208,4.252-5.662,7.435c-1.092,2.639-1.751,4.89-1.978,6.753c-0.229,1.864-0.342,3.798-0.342,5.797
			c0,4.546,0.659,8.298,1.979,11.255c1.316,2.955,2.066,4.614,2.25,4.98c0.726,1.091,1.773,1.271,3.139,0.545
			c1.091-1.092,1.271-2.093,0.545-3.001c-1.092-1.185-1.637-2.503-1.637-3.957c-0.457-1.457-0.184-2.685,0.818-3.684
			c1.092-1.637,3.501-2.456,7.229-2.456h8.868c7.82,0,14.3-0.84,19.44-2.523c5.138-1.683,9.298-3.773,12.483-6.276
			c3.181-2.501,5.568-5.297,7.161-8.389c1.59-3.091,2.749-6.229,3.479-9.414c0.363-0.908,0.547-1.862,0.547-2.865c0-1,0-2,0-3.001
			c0-3.091-0.435-6.185-1.297-9.277C408.295,170.016,406.954,167.468,405.137,165.467z M325.465,182.656
			c1.545,2.639,2.865,5.116,3.956,7.435c1.092,2.319,1.637,4.797,1.637,7.436c0,4.275-1.022,7.345-3.069,9.208
			c-2.047,1.864-5.208,3.16-9.48,3.888c-0.73-3.183-1.092-7.367-1.092-12.551c0-7.457,0.999-16.28,3.001-26.466
			c0.818,2,1.637,3.888,2.455,5.662C323.691,179.041,324.554,180.837,325.465,182.656z M328.33,132.725
			c-0.366-0.908-0.798-1.842-1.296-2.796c-0.502-0.955-1.207-1.706-2.115-2.251c-1.637-1.637-4.502-2.955-8.594-3.956
			c-1.365-0.362-3.616-1.044-6.754-2.046c-3.138-1-5.661-2.728-7.571-5.184c-1.638-2.184-2.456-5.23-2.456-9.141
			c0-4.366,0.818-8.776,2.456-13.233c1.544,2.639,3.705,4.843,6.48,6.617c2.771,1.773,5.568,2.933,8.39,3.479
			c5.546,1.091,9.481,3.138,11.801,6.14c2.319,3.001,3.479,6.093,3.479,9.276c0,1.637-0.408,3.706-1.228,6.207
			C330.103,128.338,329.238,130.633,328.33,132.725z M399.405,141.661c-2.364-2.046-5.025-3.773-7.979-5.185
			c-2.958-1.41-6.027-2.523-9.209-3.342c-3.185-0.818-6.275-1.5-9.276-2.046c-3.73-1-7.596-1.819-11.596-2.456
			c-4.004-0.635-7.869-0.955-11.597-0.955c-1.092,0-2.046,0.047-2.864,0.137c-0.819,0.091-1.73,0.228-2.729,0.409
			c2.092-4.638,5.137-8.731,9.141-12.278c4.001-3.547,8.912-5.32,14.734-5.32c5.184,0,10.753,0.934,16.711,2.797
			c5.956,1.864,10.799,4.661,14.53,8.39c2.635,2.639,4.365,5.572,5.184,8.8c0.818,3.229,1.228,6.616,1.228,10.163
			c0,2.456-0.272,5.185-0.817,8.186C403.588,146.142,401.771,143.707,399.405,141.661z M406.091,184.566
			c-0.093,0.818-0.229,1.684-0.409,2.592c-0.729,2.819-1.798,5.616-3.206,8.39c-1.41,2.776-3.504,5.299-6.275,7.572
			c-2.775,2.274-6.505,4.047-11.187,5.321c-4.686,1.274-10.573,1.91-17.667,1.91l-8.868,0.273c-4.457,0-7.731,0.955-9.822,2.865
			c0-1.91,0.045-3.934,0.137-6.071c0.09-2.136,0.727-4.479,1.91-7.025c1.092-2.818,2.524-4.844,4.298-6.071
			c1.772-1.228,4.341-2.204,7.707-2.933c2.729-0.728,5.41-1.228,8.05-1.5c2.636-0.273,5.204-0.659,7.707-1.159
			c2.501-0.499,5.048-1.206,7.64-2.115c2.593-0.908,5.296-2.408,8.117-4.502c4.093-2.728,7.184-6.638,9.277-11.732
			c1.638,3.185,2.456,7.004,2.456,11.459C406.135,182.839,406.18,183.748,406.091,184.566z"/>
		<path fill="#010101" d="M525.462,125.154c-1.092-2.954-2.821-5.751-5.185-8.39c-2.365-2.638-5.299-4.864-8.799-6.685
			c-3.503-1.819-7.708-3.046-12.619-3.683c-7.823-0.908-15.6-1.819-23.329-2.729c-7.731-0.908-15.508-2.136-23.329-3.683
			c-2.548-0.546-5.319-1.842-8.32-3.888c-3.001-2.047-4.502-4.57-4.502-7.572c0-0.908,0.409-2.115,1.228-3.615
			c0.818-1.501,1.454-2.706,1.91-3.615c1.271-2.637,2.66-5.116,4.161-7.435c1.5-2.319,2.976-4.66,4.433-7.025
			c1.091-1.91,2.022-3.798,2.797-5.662c0.771-1.863,1.16-3.796,1.16-5.798c0-3.547-1.116-7.14-3.343-10.777
			c-2.229-3.637-6.071-6.685-11.528-9.141c-2.183-0.908-4.502-2.524-6.957-4.843s-3.683-4.796-3.683-7.435
			c0-1.273,0.385-2.477,1.158-3.615c0.772-1.137,1.613-2.16,2.524-3.07c0.908-0.908,0.818-1.956-0.272-3.138
			c-0.911-0.908-1.958-0.818-3.138,0.273c-0.911,1.002-1.321,1.5-1.229,1.5c0.089,0-0.319,0.545-1.227,1.637
			c-1.092,1.456-2.299,3.207-3.616,5.252c-1.32,2.047-2.592,4.252-3.82,6.617c-1.228,2.367-2.204,4.798-2.934,7.299
			c-0.727,2.503-1.091,4.98-1.091,7.436c0,2.546,0.546,4.958,1.638,7.23c1.727,3.547,4.25,6.298,7.571,8.254
			c3.318,1.957,5.752,3.206,7.298,3.751c2.364,1.091,4.205,2.298,5.526,3.615c1.316,1.319,1.978,3.39,1.978,6.208
			c0,2.182-0.456,4.502-1.364,6.958c-2.274,4.276-4.39,8.778-6.344,13.506c-1.957,4.729-2.843,9.641-2.659,14.733
			c0,2.001,0.247,4.025,0.749,6.071c0.499,2.046,1.385,3.843,2.661,5.389c2.818,3.638,6.364,6.025,10.641,7.163
			c4.273,1.138,8.548,1.978,12.824,2.523c3.001,0.364,7.206,0.842,12.619,1.433c5.409,0.592,12.117,1.523,20.122,2.796
			c2.183,0.364,4.774,0.91,7.775,1.637c3.002,0.729,5.799,1.753,8.391,3.07c2.592,1.318,4.819,2.956,6.686,4.912
			c1.862,1.957,2.703,4.434,2.522,7.435c-0.364,3.911-2.318,7.55-5.865,10.914c-3.73,3.185-7.868,5.981-12.415,8.39
			c-4.549,2.41-8.96,4.707-13.233,6.889c-4.365,2.093-8.253,4.115-11.663,6.071c-3.411,1.957-6.164,3.935-8.254,5.935
			c-4.458,4.911-6.685,9.687-6.685,14.325c0.18,4.276,1.705,7.39,4.569,9.345c2.865,1.957,6.298,2.933,10.301,2.933h22.51
			c1.181,0,1.954-0.728,2.318-2.183c0-0.818-0.455-1.5-1.364-2.046c-0.272,0-1.001-0.362-2.183-1.091
			c-1.183-0.728-2.479-1.795-3.888-3.206c-1.41-1.41-2.66-3.183-3.752-5.321c-1.091-2.135-1.637-4.796-1.637-7.98
			c0-3.729,0.977-7.115,2.933-10.164c1.955-3.047,5.07-5.798,9.346-8.254c4.092-2.183,8.049-4.547,11.868-7.094
			c3.82-2.545,7.163-5.435,10.027-8.663c2.865-3.227,5.184-6.867,6.958-10.914c1.773-4.046,2.66-8.663,2.66-13.847
			C527.099,131.088,526.553,128.11,525.462,125.154z M434.058,58.647c-1.273-0.546-3.321-1.659-6.139-3.343
			c-2.821-1.682-4.958-3.933-6.412-6.753c-0.729-1.273-1.092-3.001-1.092-5.184c-0.184-2.456,0.317-5.274,1.501-8.458
			c1.181-3.184,2.546-5.866,4.093-8.049c0.908,2.912,2.568,5.504,4.979,7.775c2.408,2.274,4.933,3.957,7.571,5.048
			c4.455,2,7.616,4.412,9.481,7.23c1.863,2.819,2.797,5.64,2.797,8.458c-0.184,2.547-1.023,5.095-2.524,7.64
			c-1.501,2.547-2.889,4.822-4.16,6.821c-0.546-3.001-1.662-5.342-3.343-7.026C439.127,61.125,436.876,59.739,434.058,58.647z
			 M486.581,210.35h-15.279c-2.64,0-5.026-0.546-7.163-1.637c-2.138-1.091-3.205-3.138-3.205-6.139c0-3.729,1.68-7.457,5.048-11.187
			c1.452-1.453,3.615-2.979,6.479-4.57c2.865-1.59,5.979-3.251,9.346-4.98c-2.002,3.547-3.001,7.278-3.001,11.187
			c0,4.276,0.838,7.823,2.522,10.641C483.011,206.485,484.76,208.713,486.581,210.35z M521.778,142.479
			c-0.729,2.41-1.73,4.754-3.002,7.026c0-3.547-0.979-6.526-2.934-8.936c-1.956-2.408-4.433-4.411-7.434-6.002
			c-3.001-1.59-6.187-2.865-9.55-3.82c-3.366-0.955-6.323-1.705-8.867-2.251c-8.005-1.273-14.759-2.183-20.26-2.729
			c-5.504-0.546-9.847-1.045-13.028-1.501c-3.547-0.362-7.23-0.955-11.051-1.773c-3.819-0.819-6.913-2.818-9.275-6.002
			c-1.73-2.456-2.593-5.503-2.593-9.141c0-3.547,0.955-7.958,2.865-13.233c1.452,2.639,3.614,4.843,6.479,6.617
			s5.614,2.933,8.254,3.479c8.002,1.456,15.825,2.66,23.465,3.616c7.64,0.955,15.461,1.889,23.465,2.796
			c8.548,1.091,14.778,4.116,18.689,9.072c3.91,4.958,5.866,9.938,5.866,14.938C522.869,137.455,522.504,140.071,521.778,142.479z"
			/>
	</g>
	<g>
		<path fill="#676734" d="M227.576,147.186c-0.41-0.292-0.879-0.409-1.365-0.409c-1.348,0-2.825,0.893-3.55,1.364
			c-1.549,1.006-2.846,3.255-3.364,5.512c-0.518,2.257,0.775,4.469,1.552,6.021c0.328,0.656,1.534,0.896,2.974,0.896
			c1.966,0,4.369-0.448,5.563-0.896c2.069-0.776,2.07-5.95,2.328-7.501C231.973,150.62,229.128,148.292,227.576,147.186z"/>
		<path fill="#96934E" d="M220.592,162.261c0,0,0.324-8.055,3.46-8.586c3.136-0.533,9.151,0.148,9.151,0.148l-3.881-9.8l-7.373,0.97
			l-6.015,9.701L220.592,162.261z"/>
		<path fill="#010101" d="M230.278,143.394c-1.168-0.832-2.574-1.272-4.067-1.272h-0.001c-1.904,0-3.896,0.692-6.087,2.115
			c-2.984,1.938-4.727,5.598-5.365,8.376c-0.849,3.704,0.761,6.86,1.723,8.745l0.203,0.399c1.151,2.303,3.553,3.47,7.139,3.47
			c2.366,0,5.326-0.491,7.199-1.193c4.401-1.652,4.896-6.993,5.192-10.185c0.03-0.326,0.071-0.772,0.095-0.914
			C236.834,149.78,234.861,146.659,230.278,143.394z M231.715,152.173c-0.258,1.551-0.259,6.725-2.328,7.501
			c-1.195,0.448-3.597,0.896-5.563,0.896c-1.44,0-2.646-0.24-2.974-0.896c-0.777-1.552-2.07-3.764-1.552-6.021
			c0.518-2.257,1.814-4.506,3.364-5.512c0.725-0.471,2.202-1.364,3.55-1.364c0.485,0,0.955,0.116,1.365,0.409
			C229.128,148.292,231.973,150.62,231.715,152.173z"/>
	</g>
	<g>
		<path fill="#676734" d="M464.942,229.828c-0.412-0.292-0.881-0.409-1.365-0.409c-1.35,0-2.825,0.892-3.551,1.364
			c-1.549,1.006-2.845,3.255-3.363,5.512c-0.518,2.257,0.776,4.468,1.552,6.021c0.329,0.656,1.535,0.896,2.975,0.896
			c1.966,0,4.369-0.448,5.563-0.896c2.068-0.776,2.069-5.95,2.328-7.502C469.339,233.262,466.494,230.934,464.942,229.828z"/>
		<path fill="#96934E" d="M457.957,244.902c0,0,0.325-8.055,3.46-8.587c3.137-0.532,9.152,0.148,9.152,0.148l-3.881-9.799
			l-7.373,0.97l-6.016,9.701L457.957,244.902z"/>
		<path fill="#010101" d="M467.645,226.035c-1.169-0.832-2.575-1.273-4.067-1.273h-0.001c-1.904,0-3.896,0.692-6.086,2.116
			c-2.985,1.938-4.729,5.598-5.367,8.376c-0.848,3.704,0.764,6.859,1.725,8.745l0.203,0.399c1.151,2.303,3.552,3.47,7.139,3.47
			c2.366,0,5.325-0.491,7.199-1.193c4.4-1.651,4.896-6.993,5.191-10.185c0.029-0.326,0.07-0.772,0.095-0.913
			C474.2,232.422,472.227,229.3,467.645,226.035z M469.081,234.814c-0.259,1.552-0.26,6.726-2.328,7.502
			c-1.194,0.448-3.598,0.896-5.563,0.896c-1.439,0-2.646-0.24-2.975-0.896c-0.775-1.553-2.069-3.764-1.552-6.021
			c0.519-2.257,1.814-4.506,3.363-5.512c0.726-0.472,2.201-1.364,3.551-1.364c0.484,0,0.953,0.116,1.365,0.409
			C466.494,230.934,469.339,233.262,469.081,234.814z"/>
	</g>
	<g>
		<path fill="#676734" d="M494.009,229.828c-0.411-0.292-0.881-0.409-1.365-0.409c-1.349,0-2.826,0.892-3.55,1.364
			c-1.55,1.006-2.847,3.255-3.364,5.512c-0.518,2.257,0.776,4.468,1.553,6.021c0.328,0.656,1.533,0.896,2.974,0.896
			c1.966,0,4.368-0.448,5.563-0.896c2.069-0.776,2.07-5.95,2.328-7.502C498.406,233.262,495.561,230.934,494.009,229.828z"/>
		<path fill="#96934E" d="M487.023,244.902c0,0,0.324-8.055,3.461-8.587c3.136-0.532,9.15,0.148,9.15,0.148l-3.881-9.799
			l-7.372,0.97l-6.016,9.701L487.023,244.902z"/>
		<path fill="#010101" d="M496.711,226.035c-1.169-0.832-2.576-1.273-4.067-1.273h-0.001c-1.905,0-3.896,0.692-6.087,2.116
			c-2.983,1.938-4.729,5.598-5.365,8.376c-0.849,3.704,0.762,6.859,1.723,8.745l0.203,0.399c1.152,2.303,3.554,3.47,7.14,3.47
			c2.366,0,5.326-0.491,7.198-1.193c4.401-1.651,4.896-6.993,5.191-10.185c0.031-0.326,0.072-0.772,0.096-0.913
			C503.267,232.422,501.294,229.3,496.711,226.035z M498.146,234.814c-0.258,1.552-0.259,6.726-2.328,7.502
			c-1.194,0.448-3.597,0.896-5.563,0.896c-1.44,0-2.646-0.24-2.974-0.896c-0.776-1.553-2.07-3.764-1.553-6.021
			c0.518-2.257,1.814-4.506,3.364-5.512c0.724-0.472,2.201-1.364,3.55-1.364c0.484,0,0.954,0.116,1.365,0.409
			C495.561,230.934,498.406,233.262,498.146,234.814z"/>
	</g>
	<g>
		<path fill="#676734" d="M477.766,258.854c-0.41-0.293-0.88-0.409-1.364-0.409c-1.349,0-2.825,0.892-3.551,1.364
			c-1.549,1.006-2.846,3.255-3.363,5.512c-0.518,2.257,0.775,4.469,1.552,6.021c0.328,0.656,1.534,0.896,2.974,0.896
			c1.967,0,4.369-0.448,5.563-0.896c2.069-0.776,2.069-5.95,2.328-7.502S479.317,259.959,477.766,258.854z"/>
		<path fill="#96934E" d="M470.781,273.928c0,0,0.323-8.055,3.46-8.587c3.136-0.532,9.151,0.148,9.151,0.148l-3.882-9.8
			l-7.372,0.971l-6.015,9.701L470.781,273.928z"/>
		<path fill="#010101" d="M480.468,255.061c-1.168-0.833-2.574-1.273-4.066-1.273H476.4c-1.905,0-3.896,0.692-6.088,2.115
			c-2.984,1.939-4.727,5.598-5.364,8.376c-0.849,3.704,0.761,6.86,1.723,8.745l0.203,0.399c1.151,2.302,3.554,3.469,7.139,3.469
			c2.367,0,5.326-0.49,7.199-1.192c4.401-1.651,4.896-6.993,5.192-10.185c0.029-0.326,0.07-0.772,0.095-0.913
			C487.023,261.447,485.051,258.326,480.468,255.061z M481.904,263.839c-0.259,1.552-0.259,6.726-2.328,7.502
			c-1.194,0.448-3.597,0.896-5.563,0.896c-1.439,0-2.646-0.239-2.974-0.896c-0.776-1.552-2.069-3.764-1.552-6.021
			c0.518-2.256,1.814-4.505,3.363-5.512c0.726-0.472,2.202-1.364,3.551-1.364c0.484,0,0.954,0.116,1.364,0.409
			C479.317,259.959,482.163,262.287,481.904,263.839z"/>
	</g>
	<g>
		<path fill="#676734" d="M258.871,230.214c-0.018-0.228-0.036-0.457-0.053-0.688c-2.534,2.121-6.039,3.547-10.327,3.252
			c-0.945-0.064-1.891-0.132-2.831-0.2c-3.71-0.269-7.216-0.521-10.314-0.521c-4.3,0-7.102,0.526-8.325,1.565
			c-0.688,0.584-0.801,1.086-0.821,1.46c-0.13,2.254,3.078,5.683,4.62,7.331c0.243,0.26,0.466,0.5,0.662,0.713
			c2.315,2.544,5.529,6.3,8.291,9.574c-0.072-1.699,0.108-3.365,0.746-4.723c0.68-1.451,1.817-2.476,3.29-2.963
			c3.5-1.16,5.771-1.4,7.596-1.593c2.083-0.22,3.46-0.366,5.998-1.762C259.655,240.418,259.256,235.232,258.871,230.214z"/>
		<path fill="#96934E" d="M228.546,242.178c0,0-0.97-5.023,1.165-5.023c2.134,0,17.603,3.298,22.286,1.94
			c4.684-1.358,9.146-7.219,9.146-7.219l-1.758-6.079l-8.332,5.149l-16.69-1.022l-9.731,3.206v4.541L228.546,242.178z"/>
		<path fill="#010101" d="M263.146,229.887c-0.162-2.125-0.332-4.322-0.332-6.4c0-1.032-0.735-1.917-1.749-2.108
			c-1.021-0.188-2.021,0.371-2.394,1.332c-1.147,2.957-4.774,6.132-9.888,5.792c-0.939-0.065-1.879-0.133-2.813-0.2
			c-3.791-0.274-7.37-0.533-10.624-0.533c-5.571,0-8.994,0.797-11.1,2.585c-1.423,1.208-2.229,2.759-2.328,4.482
			c-0.235,4.09,3.525,8.107,5.771,10.507c0.229,0.245,0.439,0.47,0.623,0.67c4.847,5.326,13.748,16.111,13.837,16.219
			c0.409,0.497,1.002,0.767,1.608,0.779c0.02,0.001,0.04,0.001,0.061,0.001c1.185,0,2.144-0.96,2.144-2.144
			c0-0.362-0.089-0.702-0.247-1c-1.147-3.032-2.278-8.017-1.313-10.071c0.226-0.48,0.497-0.626,0.756-0.712
			c3.063-1.014,4.994-1.219,6.699-1.398c2.222-0.235,4.319-0.457,7.614-2.271C264.142,242.844,263.658,236.551,263.146,229.887z
			 M257.402,241.66c-2.538,1.396-3.915,1.542-5.998,1.762c-1.824,0.193-4.095,0.433-7.596,1.593c-1.473,0.487-2.61,1.512-3.29,2.963
			c-0.637,1.358-0.817,3.024-0.746,4.723c-2.762-3.273-5.976-7.029-8.291-9.574c-0.196-0.213-0.419-0.453-0.662-0.713
			c-1.542-1.647-4.75-5.076-4.62-7.331c0.021-0.374,0.134-0.876,0.821-1.46c1.223-1.039,4.024-1.565,8.325-1.565
			c3.099,0,6.604,0.252,10.314,0.521c0.939,0.068,1.886,0.136,2.831,0.2c4.288,0.295,7.793-1.132,10.327-3.252
			c0.017,0.23,0.036,0.459,0.053,0.688C259.256,235.232,259.655,240.418,257.402,241.66z"/>
	</g>
</g>
</svg>
