<?xml version="1.0" encoding="utf-8"?>
<!-- Generator: Adobe Illustrator 27.5.0, SVG Export Plug-In . SVG Version: 6.00 Build 0)  -->
<svg version="1.1" id="Layer_1" xmlns="http://www.w3.org/2000/svg" xmlns:xlink="http://www.w3.org/1999/xlink" x="0px" y="0px"
	 viewBox="0 0 442 235" style="enable-background:new 0 0 442 235;" xml:space="preserve">
<g>
	<path  fill="#614934" d="M228.97,180.3c-18.29,0.27-38.2-0.66-58.07-2.47c-5.5-0.5-10.96-1.71-16.45-1.83c-5.57-0.12-10.87-1.4-16.29-2.21
		c-11.14-1.67-20.51-7.33-30.11-12.65c-9.69-5.36-16.64-13.14-21.53-22.87c-4.93-9.8-5.68-20.26-4.05-30.93
		c3.51-22.96,15.17-41.72,31.23-57.76c14.16-14.14,30.67-24.8,50.54-29.33c4.25-0.97,8.6-1.98,12.97-0.42
		c2.61,0.93,4.79-0.36,6.86-1.47c8.15-4.4,17.04-6.21,26.01-7.72c9.27-1.56,18.63-2.01,27.98-1.41c8.17,0.53,16.47,0.86,24.21,3.87
		c3.66,1.43,7.82,2.29,10.22,6.06c0.54,0.85,1.76,0.69,2.74,0.72c11.99,0.39,23.21,3.77,33.82,9.17
		c5.92,3.01,11.12,7.13,15.26,12.33c6.67,8.38,13.69,16.52,19.5,25.55c6.55,10.17,11.79,20.96,13.42,33.1
		c2.23,16.53,1.05,32.44-9.38,46.47c-6.21,8.35-14.73,13.67-23.82,18.13c-9.19,4.51-18.74,8.13-28.85,10.06
		c-10.3,1.97-20.68,3.39-31.14,4.21C252.92,179.77,241.79,180.26,228.97,180.3z M256.84,99.85c-0.54,0.23-0.96-0.12-1.38-0.31
		c-5.51-2.45-11.23-2.82-17.1-1.69c-3.53,0.68-6.99,1.63-10.16,3.33c-1.91,1.02-4.15,0.66-5.92,1.56c-1.86,0.94-3.72,1.98-5.52,3.08
		c-8.46,5.15-16.73,10.71-26,14.33c-8.69,3.39-17.28,4.03-24.79-3.01c-2.01-1.88-3.96-3.92-5.16-6.4c-0.94-1.96-2.07-3.75-1.09-6.5
		c0.78-2.2-0.05-5.06,0.13-7.68c0.72-10.41,12.69-18.08,22.11-14.1c4.39,1.86,8.78,3.54,8.98,9.29c0.18,5.2-2.12,9.27-6.27,12.22
		c-2.27,1.61-6.34,1.04-8.73-0.83c-2.27-1.78-2.63-3.55-1.5-7.22c0.14-0.45,0.34-0.93-0.19-1.4c-1.43,0.39-2.21,1.42-2.71,2.79
		c-1.48,4.11,1.83,10.17,6.19,11.6c6.67,2.18,13.34-3.18,15.5-8.85c3.14-8.22-0.18-23.07-14.23-23.64
		c-5.25-0.22-10.35,0.84-14.38,4.19c-5.66,4.69-8.48,11.07-9.51,18.4c-1.08,7.74,0.56,14.64,5.91,20.27
		c5.72,6.02,13.25,7.74,21.29,7.71c1.31,0,2.63-0.2,4.46-0.34c-3.38,3.53-7.15,5.45-10.87,7.4c-3.72,1.95-7.53,3.71-11.26,5.64
		c-3.92,2.02-8.3,2.09-12.47,3.06c-4.05,0.95-8.28,0.84-12.37,1.88c1.84-0.72,2.71,1.38,4.21,1.4c10.94,0.14,21.49-1.31,31.24-6.8
		c5.23-2.95,10.46-5.87,15.33-9.41c4.27-3.11,9.13-5.49,13.21-8.67c8.84-6.91,17.27-14.12,27.74-18.72
		c4.08-1.79,8.1-2.46,12.27-3.17c1.32-0.23,2.62,0.07,4.3,1.21c-0.91-0.07-1.14-0.1-1.37-0.11c-0.21-0.01-0.49-0.15-0.55,0.38
		c6.2,0.84,11.79,2.66,13.94,9.5c0.2,0.65,1.29,0.61,1.45,1.5c0.72,4,1.7,7.99,2.34,11.96c0.85,5.3-0.77,10.59-4.14,14.89
		c-3.96,5.05-9.52,7.94-15.74,9.03c-12.8,2.25-21.96-4.25-22.23-17.67c-0.12-6.05,2.24-8.84,7.68-10.88
		c2.38-0.89,4.92-1.09,7.46-0.9c7.21,0.56,11.27,8.59,7.25,14.34c-1.13,1.61-3,2.41-4.79,2.62c-1.56,0.19-2.44-1.37-3.1-2.73
		c-0.25-0.52,0.03-1.52-1.01-1.31c-0.87,0.17-0.96,0.99-1.02,1.74c-0.25,2.95,2.92,5.4,6.22,4.81c5.7-1.02,9.24-4.95,9.35-10.76
		c0.05-2.96,0.21-6.19-2.53-8.28c-1.52-1.16-2.98-2.3-4.13-3.84c-0.29-0.39-0.98-0.55-1.52-0.68c-5.58-1.39-11.16-0.69-16.04,1.89
		c-6.78,3.58-9.76,8.81-8.68,16.92c0.33,2.44,0.4,4.94,1.82,7.3c-1.46,0.08-2.03-0.68-2.72-1.15c-2.96-2.03-6.08-3.9-9.48-4.86
		c-6.55-1.86-14.82,2.46-17.62,8.77c-1.79,4.02,0.83,10.74,4.91,12.45c2.31,0.97,4.69,0.33,6.82-0.42c2.22-0.78,2.86-2.81,1.98-4.5
		c-0.63-1.21-1.34-1.74-2.09-0.1c-0.56,1.23-1.47,2.16-2.81,1.83c-1.82-0.44-3.67-1.25-4.42-3.13c-0.89-2.19-1.18-4.67,0.82-6.34
		c2.63-2.2,5.67-3.89,9.33-3.33c4.05,0.63,7.82,2.06,11.41,4.08c4.15,2.35,7.97,5.35,12.76,6.48c11.29,2.67,22.69,1.43,34.03,0.75
		c8.18-0.49,16.24-0.71,24.1,2.06c0.63,0.22,1.93,0.71,1.97,0.1c0.15-2.01,1.72-0.93,2.85-1.35c-0.84-0.61-1.41-1.05-2-1.45
		c-3.64-2.46-7.86-2.89-12.05-3.4c-0.7-0.08-1.67-0.01-1.69-0.99c-0.02-0.99,1.02-1.24,1.74-1.4c0.82-0.19,1.69,0.25,2.58-0.25
		c4.46-2.5,8.93-4.91,12.86-8.3c5.35-4.61,11-8.87,16.51-13.3c2.17-1.75,4.83-2.69,7.33-3.57c3.32-1.17,6.74,0.03,9.85,1.63
		c2.89,1.49,6.49,2,7.87,5.92c0.98-2.95,0.59-5.09-2.01-6.53c-0.56-0.31-1.22-0.72-1.47-1.25c-1.14-2.47-2.79-2.88-5.61-3.2
		c-5.07-0.59-9.65,0.44-14.36,1.62c-1.04,0.26-2.4,1.46-3.1,0.33c-0.72-1.16,0.89-2.01,1.63-2.84c4.68-5.2,8.6-10.82,10.27-17.74
		c1.06-4.42,1.18-8.77-2.02-12.94c-1.09,2.8,1.17,5.24,0.12,7.92c-0.17-0.63-0.28-1.06-0.4-1.48c-0.88,8.48-3.19,16.22-10.49,21.65
		c-0.09-0.24-0.19-0.44-0.24-0.65c-1.1-4.66-0.65-9.57-2.27-14.16c-3.18-9.04-9.73-13.91-17.65-14.26
		c-9.49-0.42-16.3,7.44-14.47,16.87c1.29,6.62,8.02,9.22,13.53,5.41c1.47-1.02,2.48-2.44,2.1-4.34c-0.16-0.81-0.33-1.96-1.34-2.13
		c-1.01-0.17-1.16,0.93-1.54,1.62c-1.69,3.04-5.2,3.37-7.44,0.69c-2.67-3.18-1.14-9.26,2.9-11.58c4.69-2.69,12.1-0.67,15.63,3.43
		c3.67,4.25,5.53,8.97,4.8,14.33c-1.58,11.59-6.73,21.43-15.63,29.2c-6.78,5.92-15.08,8.46-23.54,10.63
		c-1.61,0.41-3.34,0.52-5.12-0.44c1.14-0.96,2.07-2.03,3.25-2.67c2.13-1.15,3.31-3.02,4.5-4.98c4.6-7.62,4.27-15.86,3.04-24.17
		c-0.8-5.41-2.62-10.4-6.97-14.11c-1.31-1.12-2.68-2.04-4.57-2.44C255.55,99.22,256.67,98.98,256.84,99.85z M215.45,26.82
		c5.16-0.84,9.91-1.18,14.7-1.01c0.76,0.03,1.63,0.15,2,0.72c0.52,0.79-0.5,1.25-0.87,1.81c-0.78,1.14-1.64,2.23-2.53,3.28
		c-4.01,4.8-8.34,9.36-12.02,14.41c-7.15,9.83-10.71,21.02-11.37,33.16c-0.18,3.31,1.68,4.74,4.66,3.23
		c5.24-2.65,10.12-5.94,14.43-9.89c4.75-4.35,9.63-8.5,14.95-12.13c3.64-2.48,7.69-3.98,12.19-3.33c6.25,0.9,9.68,3.81,9.66,9.77
		c-0.02,3.78-2.36,6.27-6.1,6.6c-0.39,0.03-1-0.5-1.07,0.41c-0.05,0.67,0.18,1.07,0.87,1.22c1.47,0.32,2.89,0.28,4.3-0.33
		c4.15-1.8,7.35-6.91,7.2-11.55c-0.16-4.82-2.93-8.24-7.85-9.99c-2.27-0.81-4.56-1.1-6.94-1.04c-1.09,0.02-2.21,0.15-3.1-0.82
		c11.27-10.76,23.87-17.57,40.1-14.97c-2.27-1.65-4.64-2.35-7.27-2.44c-4.65-0.15-8.88,1.61-13.29,2.62
		c-11.34,2.61-20.32,9.18-28.68,16.72c-4.56,4.11-8.61,8.79-12.94,13.15c-3.98,4.01-8.98,6.7-13.43,10.09
		c-1.29,0.98-2.44,0.43-2.33-1.34c0.43-7.21,1.97-14.18,5.44-20.55c3.25-5.96,7.54-11.17,12.51-15.79
		c5.22-4.85,10.11-10.14,16.89-12.97c0.41-0.17,0.77-0.4,0.72-0.85c-0.05-0.47-0.21-1.09-0.79-1.07c-1.76,0.04-3.29-0.83-4.96-1.16
		c-7.14-1.41-14.28-0.48-21.41-0.13c-5.22,0.25-10.3,1.22-15.21,3.14c-4.34,1.69-8.3,4.1-12.43,6.18
		c-5.31,2.69-10.93,5.04-15.34,9.06c-6.6,6.02-12.62,12.68-19.12,18.82c-3.82,3.61-6.01,8.56-10.31,11.73
		c-2.56,1.89-4.72,4.23-6.61,6.81c-0.36,0.49-0.69,1.27-1.47,1.07c-0.95-0.24-0.64-1.2-0.8-1.86c-0.07-0.3,0-0.64,0.03-0.96
		c1.02-9.53,3.32-18.69,7.83-27.21c2.87-5.43,5.97-10.72,11.37-14.7c-2.45,0.21-2.29,0.47-6.26,2.81
		c-7.47,4.4-15.08,15.9-15.99,25.25c-0.16,1.69-0.54,3.37-0.95,5.03c-1.37,5.52-1.41,11.12-1.02,16.74
		c0.06,0.88,0.25,1.78,0.52,2.62c0.33,1.02,1.02,0.42,1.57,0.21c0.34-0.13,0.91-0.36,0.91-0.54c-0.01-1.18-0.07-1.21,0.64-1.54
		c5.43-2.57,9.5-6.68,13.55-11.06c6.52-7.04,12.64-14.46,19.77-20.92c5.86-5.31,12.22-9.45,20.48-9.63
		c5.32-0.12,9.72,1.57,12.76,6.17c1.6,2.43,2.07,5.2,2.68,8.17c1.66-4.19,1.35-8.22,0.66-12.36c-0.76-4.59-3.93-6.19-7.88-7.11
		c-2.78-0.65-5.48-0.23-8.21,0.33c-0.7,0.14-1.65,0.7-2.08-0.47c-0.39-1.04,0.43-1.44,1.11-1.89c1.22-0.8,2.4-1.69,3.68-2.37
		c7.65-4.09,15.53-6.4,24.11-2.92C217.81,29.51,217.46,28.03,215.45,26.82z M118.71,114.54c-0.86,0.56-1.04,1.28-1.39,1.9
		c-0.98,1.75-3.12,2.37-4.54,1.05c-2.01-1.86-3.48-4.14-3-7.1c0.49-2.98,2.21-4.98,5.09-5.96c2.99-1.02,5.6-0.17,7.96,1.7
		c2.37,1.88,3.6,4.58,4.9,7.2c3.31,6.67,7.77,12.16,14.98,14.92c2.72,1.04,5.38,2.3,8.16,3.12c2.25,0.67,4.66,1.46,7.59-0.09
		c-2.03-0.11-3.7,1.05-4.91-0.65c0.64-0.54,1.4,0.75,1.9-0.17c-16.46-9.54-21.8-22.44-12.33-40.2c-0.26,2.29-2.7,1.81-3.36,3.25
		c-1.78,3.87-3.23,7.92-2.94,12.17c0.45,6.75,2.12,13.22,6.1,19.02c-1.14-0.25-1.9-0.85-2.68-1.43c-4.79-3.57-7.65-8.55-10.16-13.79
		c-1.75-3.64-3.86-7.01-7.38-9.18c-2.1-1.3-4.48-1.64-6.78-0.59c-3.3,1.52-7.02,1.65-9.48,5.48c-3.69,5.74-2.46,10.56,0.66,14.53
		c1.83,2.32,5.82,3.16,8.81,1.86C118.74,120.34,119.4,118.75,118.71,114.54z M297.82,48.07c-1.19,0.11-2.33,0.55-3.54,1.02
		c-2.63,1.03-4.73,2.99-7.23,4.07c-2.51,1.08-4.48,2.56-6.1,4.63c-1.8,2.3-3.56,4.64-5.24,7.03c-0.79,1.12-1.39,2.38-2.03,3.6
		c-0.26,0.5-0.48,1.17,0.11,1.51c0.41,0.24,0.92-0.11,1.29-0.48c1.09-1.09,2.25-2.11,3.27-3.26
		C284.27,59.53,290.96,53.68,297.82,48.07z M335.31,97.08c-0.65-2.26-0.81-2.37-2.08-1.08c-3.59,3.65-6.95,7.55-11.14,10.61
		c1.75-0.27,2.62-2.1,4.73-1.92c-0.87,0.56-1.73,1.12-2.6,1.68c6.39-1.47,12.35-7.8,11.8-11.87
		C335.83,95.17,335.64,95.86,335.31,97.08z M105.09,92.82c7.36-3.22,14.07-6.19,21.95-3.49C122.64,84.29,113.89,85.69,105.09,92.82z
		 M309.62,137.78c0.51-0.56,0.83-0.49,1.13-0.55c2.76-0.53,5.39-1.32,6.68-4.19c0.3-0.67,0.66-1.4-0.63-1.52
		C313.56,131.22,309.9,134.21,309.62,137.78z M218.12,88.62c-3.08,1.6-5.07,4.05-7.05,6.5c-0.34,0.43-0.85,1.16-0.31,1.76
		c0.6,0.66,1.31,0.33,1.98-0.06C215.8,95.01,217.79,92.48,218.12,88.62z M284.6,122.25c-0.76,0.27-1.24,0.87-1.32,1.54
		c-0.27,2.17-2.44,1.61-3.53,2.59c-0.79-1.09-1.83-2.1-1.09-3.66c0.16-0.33,0.45-0.76-0.15-0.97c-0.41-0.14-0.81-0.03-1.04,0.37
		c-0.88,1.56-1.19,3.25-0.34,4.84c0.76,1.41,1.67,2.13,3.68,1.18C283.49,126.88,284.33,124.9,284.6,122.25z M124.04,130.08
		c-0.51,1.52,0.31,2.84,0.9,4.12c0.63,1.37,1.74,2.15,3.3,1.19c1.68-1.03,0.51-2.2,0.02-3.23
		C127.44,130.43,125.54,130.64,124.04,130.08z M306.64,71.95c-0.96-2.63-2.83-3.8-5.37-3.55c-0.5,0.05-0.91,0.11-1.18,0.63
		c-0.42,0.8,0.32,0.96,0.66,1.31C302.32,71.96,304.4,71.74,306.64,71.95z M240.2,81.91c-1.65-0.32-3.13-0.33-3.62-2.1
		c-0.41,0.57-0.63,1.01-0.98,1.31c-0.49,0.42-1.77,0.15-1.08,1.52c0.57,1.13,1.52,0.88,2.29,0.69
		C237.83,83.09,238.79,82.52,240.2,81.91z M171.69,154.56c-1.23-2.42-3.27-1.15-4.85-1.56
		C168.19,154.29,169.66,155.12,171.69,154.56z M114.87,139.19c0.37-2.46-1.01-3.38-2.68-4.58
		C112.28,136.69,113.06,137.95,114.87,139.19z M276.04,47.64c-1.99-0.38-3.5-0.63-5.2-0.46C272.36,49.41,273.92,48.87,276.04,47.64z
		 M113.39,74.21c-2.46,0.04-4.33,1.24-5.82,3.13C109.51,76.29,111.45,75.25,113.39,74.21z M124.56,56.74
		c-2.07,0.62-2.76,2.4-3.64,4.03C122.55,59.79,123.73,58.42,124.56,56.74z M185.88,59.34c-1.13-0.43-1.72-0.38-1.75,0.55
		c-0.04,1.44,1.24,0.61,1.84,0.97c0.47,0.29,1.49,0.33,1.45-0.61C187.37,59.14,186.14,59.51,185.88,59.34z"/>
	<path fill="#41780c" d="M389.12,150.83c4.69-4.42,8.74-8.94,14.08-12.03c8.68-5.03,17.89-6.54,27.71-4.84c1.31,0.23,2.49,0.75,2.75,2.01
		c0.26,1.27-1.08,1.67-1.99,2.13c-5.93,2.97-10.76,7.21-14.76,12.5c-2.74,3.63-5.5,7.24-9.05,10.18c-3.1,2.57-6.74,3.66-10.57,3.85
		c-10.04,0.49-17.94,5.13-24.68,12.19c-1.12,1.17-2.37,2.17-3.62,3.28c10.61-2.57,20.2-0.06,29.17,5.5c8.08,5,14.97,21.72,7.38,32
		c-4.2,5.69-14.03,11.53-22.49,6.56c-3.55-2.08-5.32-5.09-5.14-9.25c0.17-3.92,1.37-7.03,5.37-8.69c2.18-0.9,3.81-0.29,5.36,0.96
		c1.3,1.05,2.22,2.49,1.67,4.28c-0.62,2.05-1.96,3.33-4.33,3.11c1.58,3.34,6.02,3.82,9.39,1.14c3.94-3.14,5.12-9.33,2.66-13.97
		c-3.39-6.41-8.97-9.73-15.76-11.71c-6.03-1.76-12.03-1.77-18.1-0.76c-9.21,1.55-18.4,3.23-27.59,4.87
		c-0.12,0.02-0.21,0.21-0.48,0.5c3.63,1.72,7.22,3.48,9.99,6.35c4.39,4.55,8.2,9.5,8.48,16.22c0.11,2.56-0.65,3.38-2.74,2.24
		c-6.5-3.52-14.07-5.3-19.06-11.38c-1.6-1.94-3.56-3.59-5.08-5.59c-3.09-4.07-7.4-5.33-12.16-5.64c-7.87-0.52-15.05,1.12-20.9,6.82
		c-0.35,0.34-0.73,0.65-1.12,0.93c-0.84,0.59-1.57,1.45-2.75,0.4c-1.12-1-0.33-1.75,0.13-2.53c1.88-3.17,4.36-5.84,6.91-8.48
		c3.49-3.62,7.59-5.16,12.68-5.04c5.76,0.13,11.54,0.16,17.32-0.35c7.72-0.69,12.89-4.22,15.74-11.6
		c2.05-5.31,5.14-10.06,10.09-13.36c2.15-1.43,4.17-3.17,5.89-5.09c1.2-1.33,2.7-1.7,4.14-2.28c1.29-0.52,1.05,0.72,1.14,1.39
		c1.06,7.16-1.7,13.22-5.67,18.84c-1.54,2.19-3.45,4.09-5.61,5.74c-0.78,0.6-1.9,1.07-1.89,2.59c3.84-1.05,6.82-3.43,9.82-5.67
		c10.12-7.54,16.71-17.61,20.54-29.51c1.56-4.86,1.59-9.92,0.55-14.92c-0.95-4.53-4.41-7.46-9.24-8.06
		c-2.42-0.3-4.85-0.52-7.29-0.33c-0.62,0.05-1.35,0.46-1.7-0.37c-0.3-0.71,0.29-1.16,0.67-1.69c6.99-9.8,19.2-3.81,22.1,4.12
		c0.61,1.67,0.96,3.43,1.47,5.29c1.54-2.26,2.51-4.77,2.46-7.43c-0.11-5.95-1.03-11.82-2.82-17.5c-1.76-5.58-5.59-9.65-10.2-13.02
		c-9.29-6.81-13.66-16.2-14.79-27.42c-0.36-3.63-1.16-7.21-1.72-10.82c-0.28-1.77-1.05-3.19-2.44-4.35
		c-1.47-1.22-2.36-2.88-3.2-4.56c-0.39-0.79-1.01-1.56-0.16-2.43c0.72-0.75,1.49-0.35,2.26-0.12c6.53,1.97,12.61,4.99,17.84,9.28
		c5.56,4.57,10.51,9.95,12.54,17.07c2.11,7.41,3.92,14.97,2.49,22.82c-0.25,1.37-0.1,2.73,0.43,4.07c1.37,3.46,1.29,7.33,3.02,11.2
		c0.63-2.97,0.51-5.58,0.75-8.15c0.73-7.9,1.73-15.86,7.2-22.08c6.26-7.11,14.12-11.88,23.52-13.85c1.05-0.22,1.89,0.09,2.57,0.97
		c0.78,1.02,0.36,1.96-0.32,2.64c-5.51,5.45-5.19,12.61-5.95,19.51c-1,9.09-5.54,16.34-12.28,22.32c-1.58,1.4-3.12,2.87-4.83,4.11
		c-5.07,3.68-7.87,8.71-9.22,14.71c-1.34,5.95-3.37,11.68-5.6,17.34C389.79,148.82,389.53,149.66,389.12,150.83z M402.72,107.24
		c2.98-4.99,6.79-9.56,8.07-16.07C406.65,96.19,403.72,101.22,402.72,107.24z M382.13,86.84c0.97-5.6-2.64-8.87-6-12.65
		C377.38,78.95,379.83,82.76,382.13,86.84z M405.22,148.97c-3.65,1.5-7.34,4.4-10,7.7C400.63,154.58,401.95,153.59,405.22,148.97z"
	/>
	<path fill="#41780c" d="M106.29,194.45c-8.84-2.56-17.59-2.9-26.04-4.87c-9.72-2.26-19-1.1-27.94,3.3c-6.24,3.07-10.71,11.02-9.55,17.19
		c0.77,4.06,4.61,7.71,8.65,8.23c2.22,0.29,3.95-0.6,5.41-2.19c0.8-0.87,1.05-1.78,0.26-2.92c-1.21,1.31-2.73,1.58-3.92,0.24
		c-1.19-1.35-2.39-2.9-1.41-5.02c1.41-3.03,4.59-4.62,7.17-2.63c2.77,2.13,5.08,5.06,5.46,8.96c0.35,3.59-0.87,6.4-3.78,8.44
		c-5.79,4.04-14.06,3.44-19.82-0.9c-8.93-6.72-9.57-19.76-3.49-28.82c7.73-11.52,19.02-14.96,32.25-13.55
		c1.01,0.11,2.01,0.47,3.39,0.07c-5.18-3.63-9.29-8.17-14.33-11.58c-3.64-2.46-7.84-3.52-12.01-3.57
		c-7.42-0.09-12.88-3.42-17.43-8.82c-2.36-2.8-4.47-5.8-6.87-8.56c-3.39-3.9-7.49-6.94-12.08-9.34c-0.88-0.46-2.21-0.82-1.85-2.2
		c0.31-1.19,1.41-1.71,2.61-1.9c11.94-1.82,22.94,0.17,32.6,7.89c3.37,2.69,6.54,5.55,9.51,9.06c-1.63-4.76-3.23-9.27-4.72-13.82
		c-0.99-3-1.82-6.05-2.72-9.09c-1.35-4.57-3.86-8.32-7.64-11.29c-3.58-2.81-6.84-5.96-9.87-9.39c-5.72-6.47-8.33-14.03-8.45-22.55
		c-0.05-3.73-1.15-7.2-2.48-10.62c-0.39-1.02-1.13-1.74-1.98-2.39c-1.48-1.14-1.38-2.62-0.74-4.17c0.73-1.76,2.07-0.88,3.13-0.62
		c8.53,2.11,15.69,6.59,21.7,12.91c5.1,5.37,6.29,12.33,7.34,19.25c0.54,3.59,0.69,7.23,1.07,11.49c1.1-2.42,1.48-4.39,1.72-6.35
		c0.19-1.54,0.44-3.03,0.96-4.5c0.72-2.07,0.76-4.16,0.65-6.4c-0.76-16.18,3.51-30.3,17.59-39.95c4.7-3.22,9.69-5.94,15.31-7.34
		c0.98-0.24,1.79-0.14,2.48,0.51c0.86,0.82,0.13,1.7-0.38,2.12c-6.27,5.16-6.16,12.71-6.97,19.66
		c-1.36,11.64-6.01,21.08-15.59,28.06c-4.85,3.53-9.19,7.67-10.49,13.89c-1.35,6.52-2.69,13.08-1.03,19.77
		c0.18,0.71,0.46,1.39,0.74,2.06c0.22,0.51,0.52,0.98,1.05,1.96c1.1-8.66,5.7-13.73,13.88-14.86c4.64-0.65,6.7,1.18,10.21,7.53
		c-1.12-0.41-2.03-1.05-2.92-1.01c-4.2,0.15-8.46,0.6-11.93,3.15c-3.55,2.62-3.62,6.92-4.05,10.84c-0.92,8.4,3.1,15.42,6.68,22.5
		c3.71,7.33,8.98,13.22,16.09,17.54c3.05,1.85,5.91,3.94,9.58,5.01c-1.92-2.5-4.48-4.16-6.64-6.22c-4.72-4.51-6.82-10.16-7.73-16.41
		c-0.08-0.55-0.08-1.16,0.06-1.7c0.32-1.23,0.11-2.9,1.47-3.42c1.29-0.5,1.9,1.14,2.89,1.68c5.46,2.97,9.27,7.7,13.4,12.13
		c1.26,1.35,0.94,3.11,1.85,4.53c0.99,1.56,1.87,3.28,2.38,5.06c1.21,4.22,4.43,5.62,8.23,6.02c9.61,1.03,19.22,2.21,28.9,2.51
		c2.99,0.09,5.38,1.85,7.54,3.69c3.17,2.7,5.89,5.83,7.61,9.71c0.4,0.9,1.05,1.91,0.06,2.65c-1.09,0.81-1.78-0.4-2.39-0.99
		c-7.59-7.28-16.76-8.32-26.54-6.63c-4.36,0.75-7.76,3.34-10.25,6.93c-3.71,5.33-8.61,8.97-14.66,11.2c-2.45,0.9-4.6,2.42-6.83,3.75
		c-1.67,1-2.61,0.45-2.59-1.52c0.03-2.64,0.77-5.16,1.9-7.5c2.99-6.23,7.02-11.52,13.64-14.33
		C104.43,195.65,105.15,195.11,106.29,194.45z M40.27,108.83c-1.93-6.47-3.77-12.99-9.24-18.14C32.67,97.8,37.48,102.8,40.27,108.83
		z M59.98,87.02c2.53-3.58,3.89-7.5,5.27-11.43C61.52,78.29,59.91,82.04,59.98,87.02z M47.61,156.57
		c-3.44-2.76-5.89-6.16-10.05-7.22C39.83,153.05,42.88,155.6,47.61,156.57z"/>
</g>
</svg>
