<?xml version="1.0" encoding="utf-8"?>
<svg version="1.1" id="Layer_1" xmlns="http://www.w3.org/2000/svg" x="0px" y="0px"
	 width="569.375px" height="393.273px" viewBox="0 0 569.375 393.273" enable-background="new 0 0 569.375 393.273"
	 xml:space="preserve">
<g>
	<g>
		<g>
			<path fill="#63873F" d="M308.224,227.264c-2.287,11.645-3.431,21.731-3.431,30.256c0,5.927,0.413,10.709,1.248,14.349
				c4.885-0.832,8.499-2.313,10.839-4.445c2.34-2.13,3.509-5.639,3.509-10.526c0-3.017-0.623-5.851-1.87-8.5
				c-1.247-2.651-2.757-5.483-4.522-8.501c-1.043-2.078-2.028-4.132-2.965-6.159C310.096,231.708,309.159,229.55,308.224,227.264z"
				/>
			<path fill="#63873F" d="M151.699,220.246c-3.641,6.136-7.331,10.943-11.073,14.427c-3.743,3.485-7.071,6.108-9.982,7.876
				c-9.356,5.512-21.21,8.265-35.558,8.265c-8.422,0-15-1.271-19.729-3.82c-4.731-2.547-8.344-5.536-10.84-8.967
				c0.415,10.709-1.82,19.754-6.706,27.136c0.625,0.835,1.404,1.639,2.34,2.417c0.936,0.78,2.363,1.483,4.29,2.105
				c1.921,0.625,4.546,1.146,7.875,1.561c3.325,0.416,7.536,0.624,12.633,0.624h27.138c7.899,0,14.503-0.909,19.806-2.729
				c5.303-1.818,9.564-4.158,12.79-7.021c3.22-2.858,5.664-6.027,7.329-9.512c1.662-3.483,2.964-6.942,3.899-10.371
				c0.414-1.769,0.623-4.313,0.623-7.643c0-2.598-0.34-5.225-1.014-7.876C154.843,224.067,153.57,221.909,151.699,220.246z"/>
			<path fill="#63873F" d="M265.382,193.656c0.104-1.926,0.052-3.925-0.155-6.005c0-2.393-0.364-5.562-1.091-9.513
				c-0.73-3.953-2.602-7.487-5.615-10.607c-2.393-2.807-5.926-5.276-10.604-7.408c-4.678-2.13-9.671-3.61-14.973-4.443l-7.642-1.248
				c-5.512-0.937-10.556-1.769-15.128-2.496c-4.577-0.726-8.06-1.3-10.449-1.715c-3.225-0.624-6.473-1.949-9.747-3.977
				c-3.275-2.027-5.799-4.549-7.564-7.565c-0.833,2.6-1.51,5.174-2.027,7.721c-0.522,2.549-0.779,5.017-0.779,7.408
				c0,4.47,0.935,7.954,2.807,10.449c1.35,1.664,3.041,3.041,5.068,4.133s4.001,1.948,5.927,2.573
				c1.921,0.623,4.34,1.249,7.251,1.871l26.515,4.212c3.845,0.622,7.692,1.535,11.541,2.729c3.845,1.197,7.457,2.755,10.838,4.68
				c3.378,1.925,6.395,4.108,9.047,6.549c2.651,2.444,4.756,5.226,6.316,8.345C265.122,197.476,265.278,195.58,265.382,193.656z"/>
			<path fill="#63873F" d="M73.719,172.521l43.825,7.331c1.038,0.312,3.222,0.728,6.551,1.248c3.324,0.521,6.886,1.507,10.683,2.963
				c3.793,1.457,7.51,3.535,11.152,6.238c3.637,2.705,6.393,6.082,8.265,10.138c0.624-3.222,0.83-6.029,0.624-8.423
				c-0.418-11.019-3.173-18.924-8.267-23.704c-5.096-4.782-12.842-8.058-23.237-9.826c-11.959-1.872-22.512-3.561-31.66-5.068
				c-9.151-1.506-15.439-2.574-18.871-3.197c-3.431-0.624-6.734-1.949-9.903-3.977c-3.173-2.027-5.643-4.549-7.408-7.565
				c-0.834,2.6-1.51,5.174-2.027,7.721c-0.521,2.549-0.779,5.017-0.779,7.408c0,4.158,0.936,7.642,2.807,10.449
				c1.35,1.664,3.041,3.041,5.068,4.133s4.002,1.948,5.927,2.573C68.389,171.585,70.806,172.108,73.719,172.521z"/>
			<path fill="#63873F" d="M253.998,238.026c-2.081,1.768-4.237,3.222-6.473,4.367c-2.237,1.145-4.861,2.081-7.876,2.807
				c-3.016,0.728-6.472,1.324-10.371,1.793c-3.899,0.468-8.655,0.702-14.271,0.702c-2.911,0-6.08,0.104-9.511,0.313
				c-3.433,0.209-6.786,0.677-10.061,1.403c-3.274,0.728-6.266,1.95-8.968,3.664c-2.705,1.716-4.68,4.081-5.927,7.097
				c-1.87,5.302-2.706,10.293-2.494,14.972c2.077-2.183,5.663-3.274,10.761-3.274l38.989-0.313c8.316,0,15.075-0.727,20.275-2.184
				c5.195-1.455,9.408-3.482,12.632-6.083c3.222-2.597,5.639-5.48,7.252-8.654c1.611-3.172,2.832-6.369,3.665-9.592
				c0.207-0.414,0.313-0.989,0.313-1.717c0-0.725,0.102-1.61,0.313-2.65c-2.808,1.663-6.032,2.496-9.67,2.496
				C258.624,243.172,255.764,241.457,253.998,238.026z"/>
			<path fill="#63873F" d="M403.204,225.861c-2.394,5.823-5.927,10.293-10.605,13.412c-3.227,2.393-6.316,4.109-9.28,5.146
				c-2.963,1.04-5.875,1.849-8.733,2.419c-2.861,0.571-5.799,1.013-8.812,1.325c-3.017,0.312-6.083,0.885-9.202,1.715
				c-3.848,0.834-6.784,1.949-8.812,3.354c-2.026,1.404-3.664,3.719-4.912,6.94c-1.354,2.911-2.081,5.591-2.184,8.032
				c-0.105,2.444-0.157,4.757-0.157,6.939c2.391-2.183,6.135-3.274,11.229-3.274l10.138-0.313c8.109,0,14.84-0.727,20.197-2.184
				c5.352-1.455,9.615-3.482,12.789-6.083c3.168-2.597,5.562-5.48,7.173-8.654c1.61-3.172,2.833-6.369,3.665-9.592
				c0.207-1.038,0.362-2.027,0.469-2.963c0.102-0.936,0.05-1.974-0.155-3.118C406.012,233.869,405.076,229.501,403.204,225.861z"/>
			<path fill="#63873F" d="M474.433,251.75c0-4.469,1.143-8.733,3.431-12.787c-3.849,1.975-7.409,3.872-10.683,5.691
				c-3.274,1.817-5.748,3.563-7.408,5.224c-3.852,4.265-5.771,8.527-5.771,12.79c0,3.43,1.22,5.769,3.664,7.017
				c2.442,1.248,5.171,1.872,8.188,1.872h17.467c-2.082-1.872-4.081-4.419-6.004-7.641
				C475.392,260.693,474.433,256.638,474.433,251.75z"/>
			<path fill="#63873F" d="M496.734,157.55c-9.15-1.038-18.092-2.105-26.825-3.197s-17.678-2.47-26.825-4.133
				c-3.018-0.624-6.16-1.949-9.437-3.977c-3.274-2.027-5.746-4.549-7.406-7.565c-2.184,6.031-3.275,11.073-3.275,15.129
				c0,4.158,0.986,7.642,2.964,10.449c2.7,3.641,6.237,5.926,10.604,6.862c4.368,0.937,8.579,1.612,12.633,2.026
				c3.638,0.521,8.602,1.092,14.895,1.717c6.289,0.623,14.01,1.663,23.161,3.118c2.907,0.624,6.288,1.483,10.138,2.574
				c3.844,1.092,7.485,2.549,10.916,4.367c3.432,1.818,6.262,4.108,8.498,6.861c2.235,2.756,3.354,6.162,3.354,10.217
				c1.453-2.599,2.598-5.279,3.431-8.033c0.831-2.755,1.248-5.743,1.248-8.968c0-5.716-2.236-11.409-6.706-17.077
				C513.629,162.254,506.506,158.797,496.734,157.55z"/>
			<path fill="#63873F" d="M405.698,192.016c0-4.056-0.468-7.927-1.402-11.617c-0.937-3.691-2.914-7.043-5.926-10.062
				c-4.267-4.262-9.803-7.459-16.61-9.59c-6.813-2.13-13.179-3.197-19.104-3.197c-6.656,0-12.271,2.027-16.846,6.082
				c-4.576,4.056-8.057,8.734-10.448,14.035c1.142-0.207,2.184-0.362,3.12-0.466c0.936-0.104,2.025-0.156,3.274-0.156
				c4.261,0,8.68,0.366,13.257,1.093c4.572,0.727,8.991,1.662,13.257,2.806c3.431,0.624,6.964,1.404,10.604,2.339
				c3.638,0.937,7.146,2.209,10.527,3.821c3.377,1.614,6.42,3.589,9.123,5.927c2.703,2.339,4.78,5.122,6.24,8.343
				C405.387,197.945,405.698,194.824,405.698,192.016z"/>
			<path fill="#63873F" d="M434.818,110.918c1.453-2.285,3.04-4.887,4.755-7.798c1.717-2.91,2.677-5.823,2.887-8.734
				c0-3.222-1.067-6.446-3.197-9.669c-2.132-3.222-5.746-5.979-10.84-8.266c-3.016-1.247-5.902-3.172-8.654-5.771
				c-2.756-2.596-4.655-5.561-5.693-8.889c-1.769,2.494-3.329,5.563-4.679,9.202c-1.354,3.639-1.926,6.861-1.716,9.669
				c0,2.495,0.415,4.471,1.248,5.927c1.662,3.223,4.105,5.796,7.33,7.719c3.221,1.925,5.563,3.197,7.019,3.821
				c3.222,1.247,5.795,2.833,7.72,4.758C432.918,104.812,434.194,107.488,434.818,110.918z"/>
			<path fill="#63873F" d="M317.66,157.239c-2.651-3.432-7.15-5.771-13.49-7.019c-3.226-0.624-6.423-1.949-9.592-3.977
				c-3.173-2.027-5.644-4.549-7.407-7.565c-1.873,5.096-2.808,10.138-2.808,15.129c0,4.47,0.935,7.954,2.808,10.449
				c2.183,2.809,5.067,4.782,8.654,5.926c3.587,1.146,6.161,1.926,7.722,2.339c4.677,1.146,7.953,2.653,9.824,4.524
				c1.038,0.622,1.844,1.481,2.418,2.573c0.569,1.091,1.063,2.158,1.482,3.196c1.037-2.392,2.025-5.016,2.962-7.875
				c0.937-2.86,1.403-5.226,1.403-7.097C321.637,164.204,320.312,160.669,317.66,157.239z"/>
			<path fill="#8BB54F" d="M53.444,146.399c0,0-3.614,10.383,20.341,14.773c23.955,4.392,79.475,8.627,82.748,21.643
				c3.275,13.017-1.638,24.118-1.638,24.118l-13.237-18.744l-47.91-11.522L65.8,173.549l-15.083-12.377L53.444,146.399z"/>
			<g>
				<path fill="#8BB54F" d="M179.615,146.399c0,0-3.04,10.383,17.099,14.773c20.138,4.392,66.81,8.627,69.561,21.643
					c2.752,13.017-1.378,24.118-1.378,24.118l-11.126-18.744l-40.274-11.522l-23.494-3.117l-12.681-12.377L179.615,146.399z"/>
			</g>
			<path fill="#8BB54F" d="M423.804,146.229c0,0-3.532,10.381,19.885,14.774c23.416,4.391,77.688,8.625,80.889,21.642
				c3.202,13.018-1.602,24.119-1.602,24.119l-12.939-18.745l-46.833-11.522l-27.318-3.117l-14.744-12.376L423.804,146.229z"/>
			<path fill="#8BB54F" d="M60.618,246.057c0,0,9.175,14.887,29.58,13.998c20.406-0.888,42.449-6.649,50.129-13.998
				c7.431-7.109,11.535-12.508,14.568-25.812l-2.813-2.445l-5.544,5.436l-10.093,12.642l-16.082,8.208L99.403,247.3l-18.188-0.776
				l-17.633-12.975L60.618,246.057z"/>
			<path fill="#3C2415" d="M153.883,215.723c4.055-7.695,6.082-15.597,6.082-23.707c0.206-12.577-2.783-21.679-8.967-27.292
				c-6.189-5.615-15.104-9.255-26.747-10.917c-11.541-1.974-21.991-3.716-31.349-5.225c-9.358-1.507-15.752-2.574-19.184-3.196
				c-2.289-0.416-4.756-1.429-7.407-3.043c-2.652-1.611-4.655-3.562-6.005-5.848c-0.833-1.039-1.248-2.44-1.248-4.212
				c0-1.246,0.313-2.47,0.936-3.663c0.624-1.195,1.143-2.313,1.56-3.354c0.728-1.456,0.415-2.497-0.936-3.12
				c-1.665-0.83-2.808-0.52-3.431,0.936c-2.394,4.68-4.602,9.671-6.629,14.972c-2.026,5.303-3.04,10.762-3.04,16.377
				c0.205,2.286,0.596,4.548,1.169,6.783c0.57,2.237,1.584,4.237,3.041,6.006c1.663,2.287,3.899,4.186,6.707,5.692
				c2.807,1.507,5.353,2.572,7.642,3.197c-2.289,1.664-4.133,3.664-5.537,6.004c-1.403,2.34-2.417,4.733-3.041,7.175
				c-0.623,2.441-1.041,4.834-1.247,7.173c-0.21,2.34-0.313,4.289-0.313,5.848c-0.312,3.225-0.183,6.422,0.391,9.593
				c0.57,3.173,1.063,6.37,1.48,9.592c0.414,2.082,0.727,4.133,0.937,6.16c0.206,2.027,0.414,4.03,0.624,6.005
				c0.414,7.589-0.288,14.636-2.106,21.132c-1.82,6.499-6.004,12.19-12.554,17.078c-0.624,0.415-1.821,1.092-3.588,2.027
				c-1.457,0.625-1.769,1.77-0.936,3.432c0.83,1.249,2.027,1.56,3.587,0.936c2.286-1.248,4.184-2.47,5.693-3.666
				c1.505-1.193,3.197-2.937,5.068-5.225c1.974,2.082,4.991,3.822,9.046,5.225c4.055,1.404,11.175,2.105,21.366,2.105h27.138
				c8.938,0,16.348-1.065,22.224-3.197c5.872-2.129,10.605-4.781,14.191-7.954c3.589-3.171,6.289-6.729,8.11-10.684
				c1.817-3.949,3.144-7.743,3.978-11.383c0-0.833,0.102-1.663,0.312-2.497c0.415-2.184,0.624-4.418,0.624-6.706
				c0-3.015-0.521-6.29-1.56-9.825C158.924,220.923,156.896,218.011,153.883,215.723z M60.54,168.389
				c-2.027-1.092-3.719-2.469-5.068-4.133c-1.871-2.808-2.807-6.291-2.807-10.449c0-2.392,0.258-4.859,0.779-7.408
				c0.518-2.547,1.193-5.121,2.027-7.721c1.766,3.017,4.235,5.538,7.408,7.565c3.169,2.027,6.473,3.353,9.903,3.977
				c3.432,0.623,9.72,1.691,18.871,3.197c9.148,1.508,19.701,3.196,31.66,5.068c10.396,1.769,18.142,5.044,23.237,9.826
				c5.094,4.78,7.849,12.686,8.267,23.704c0.206,2.394,0,5.201-0.624,8.423c-1.872-4.056-4.628-7.433-8.265-10.138
				c-3.643-2.703-7.359-4.781-11.152-6.238c-3.797-1.456-7.358-2.441-10.683-2.963c-3.329-0.521-5.513-0.937-6.551-1.248
				l-43.825-7.331c-2.913-0.413-5.33-0.936-7.252-1.559C64.542,170.337,62.567,169.481,60.54,168.389z M60.931,196.618
				c0.206-2.234,0.752-4.575,1.637-7.018c0.882-2.443,2.053-4.679,3.51-6.707c1.454-2.027,3.48-3.562,6.083-4.601
				c1.037-0.414,2.311-0.519,3.82-0.313c1.506,0.211,2.779,0.416,3.821,0.624l37.119,6.395c2.909,0.416,6.339,1.17,10.293,2.262
				c3.949,1.092,7.692,2.55,11.229,4.367c3.532,1.819,6.522,4.108,8.967,6.862c2.443,2.755,3.667,6.057,3.667,9.902
				c0,1.04-0.21,2.029-0.625,2.965c-0.418,0.936-0.833,1.976-1.247,3.12c-3.642,6.757-7.33,12.007-11.073,15.75
				c-3.743,3.744-7.123,6.447-10.138,8.11c-4.265,2.392-9.152,4.265-14.661,5.613c-5.512,1.353-11.594,2.028-18.246,2.028
				c-6.137,0-11.127-0.779-14.972-2.339c-3.85-1.56-6.891-3.509-9.125-5.85c-2.237-2.339-3.874-4.858-4.912-7.563
				c-1.042-2.702-1.872-5.199-2.495-7.485c-1.978-6.653-2.964-13.466-2.964-20.433C60.618,200.75,60.722,198.855,60.931,196.618z
				 M155.91,242.237c-0.936,3.429-2.237,6.888-3.899,10.371c-1.665,3.484-4.109,6.653-7.329,9.512
				c-3.226,2.862-7.487,5.202-12.79,7.021c-5.303,1.819-11.906,2.729-19.806,2.729H84.948c-5.097,0-9.308-0.208-12.633-0.624
				c-3.329-0.415-5.954-0.936-7.875-1.561c-1.927-0.622-3.354-1.325-4.29-2.105c-0.936-0.778-1.715-1.582-2.34-2.417
				c4.886-7.382,7.121-16.427,6.706-27.136c2.496,3.431,6.108,6.42,10.84,8.967c4.729,2.549,11.308,3.82,19.729,3.82
				c14.348,0,26.201-2.753,35.558-8.265c2.911-1.768,6.239-4.391,9.982-7.876c3.742-3.483,7.433-8.291,11.073-14.427
				c1.871,1.663,3.144,3.821,3.82,6.473c0.674,2.651,1.014,5.278,1.014,7.876C156.533,237.923,156.324,240.468,155.91,242.237z"/>
			<path fill="#8BB54F" d="M176.258,268.262c0,0,7.542-8.207,15.305-10.647c7.764-2.439,44.404-0.419,51.237-3.104
				c10.204-4.008,18.41-13.53,18.41-13.53l-6.653-6.211l-17.967,9.094l-39.038,2.116l-17.945,8.753L176.258,268.262z"/>
			<path fill="#8BB54F" d="M338.501,268.262c0,0,5.966-8.207,12.106-10.647c6.142-2.439,33.51-5.007,39.167-7.112
				c11.941-4.445,18.729-13.515,18.729-13.515l-5.012-14.418l-17.303,19.074l-30.845,4.335l-14.195,8.753L338.501,268.262z"/>
			<path fill="#3C2415" d="M276.456,226.171c-1.77,0-2.651,0.99-2.651,2.963c-0.833,5.304-4.211,8.268-10.138,8.892
				c-2.393,0.414-3.898-0.103-4.521-1.561c-0.625-1.039-0.73-1.95-0.313-2.729c0.414-0.78,0.831-1.584,1.247-2.419
				c2.183-3.432,3.846-7.33,4.991-11.695c1.143-4.367,2.234-8.525,3.275-12.477c1.561-6.654,2.234-13.515,2.026-20.588
				c-0.209-2.908-0.806-6.445-1.793-10.605c-0.989-4.156-3.095-8.056-6.317-11.696c-2.912-3.222-6.992-6.056-12.242-8.501
				c-5.251-2.44-10.735-4.079-16.453-4.912l-7.642-1.247c-4.265-0.832-8.943-1.638-14.037-2.417
				c-5.096-0.78-8.839-1.378-11.229-1.793c-2.289-0.416-4.783-1.429-7.485-3.043c-2.705-1.611-4.784-3.562-6.238-5.848
				c-1.042-1.975-1.352-3.899-0.935-5.77c0.205-0.833,0.569-1.74,1.091-2.731c0.518-0.986,0.985-1.896,1.403-2.728
				c0.936-1.249,0.624-2.285-0.936-3.12c-1.666-0.83-2.807-0.52-3.432,0.936c-0.418,0.418-0.677,0.936-0.78,1.561
				c-0.104,0.624-0.417,1.146-0.935,1.559c-1.666,3.225-3.408,7.384-5.226,12.477c-1.819,5.096-2.729,10.241-2.729,15.44
				c0,5.303,1.404,9.67,4.212,13.102c1.661,2.287,3.559,4.08,5.691,5.379c2.13,1.303,4.211,2.315,6.238,3.042
				c2.027,0.728,3.898,1.196,5.615,1.404c1.715,0.21,2.987,0.415,3.82,0.622l26.514,4.524c3.844,0.623,7.848,1.638,12.008,3.041
				c4.158,1.403,7.877,3.095,11.151,5.068c3.275,1.977,6.028,4.42,8.267,7.331c2.234,2.911,3.455,6.292,3.665,10.136
				c0.206,4.266-0.573,8.995-2.34,14.193c-1.769,5.2-4.367,9.1-7.798,11.697c-1.77,1.247-3.587,2.442-5.458,3.588
				c-1.871,1.144-4.162,2.104-6.863,2.885c-2.704,0.778-5.953,1.379-9.747,1.793c-3.797,0.415-8.605,0.624-14.428,0.624
				c-3.535,0-7.228,0.104-11.072,0.312c-3.849,0.21-7.591,0.834-11.229,1.872c-3.641,1.039-6.939,2.627-9.902,4.756
				c-2.964,2.131-5.226,5.019-6.786,8.656c-1.247,3.016-2.081,5.848-2.493,8.5c-0.419,2.651-0.626,5.173-0.626,7.563
				c0,5.095,0.753,9.072,2.263,11.932c1.507,2.857,2.262,4.494,2.262,4.914c1.248,1.246,2.389,1.453,3.432,0.623
				c1.559-1.248,1.765-2.395,0.622-3.432c-0.834-1.354-1.458-2.859-1.87-4.521c0-0.625,0.049-1.301,0.155-2.029
				c0.102-0.729,0.362-1.457,0.779-2.183c1.454-1.87,4.212-2.808,8.267-2.808h38.989c9.147,0,16.66-0.909,22.537-2.729
				c5.872-1.817,10.63-4.211,14.27-7.174c3.637-2.964,6.34-6.214,8.109-9.748c1.767-3.533,3.119-7.12,4.056-10.761
				c0-0.626,0.102-1.662,0.312-3.119c0.205-1.456,0.414-3.041,0.623-4.758c0.207-1.716,0.415-3.377,0.624-4.991
				c0.207-1.612,0.312-2.831,0.312-3.665C279.054,227.576,278.327,226.381,276.456,226.171z M258.6,191.002
				c-2.652-2.44-5.669-4.624-9.047-6.549c-3.381-1.925-6.993-3.482-10.838-4.68c-3.849-1.193-7.696-2.106-11.541-2.729
				l-26.515-4.212c-2.911-0.622-5.33-1.248-7.251-1.871c-1.926-0.625-3.899-1.481-5.927-2.573s-3.719-2.469-5.068-4.133
				c-1.872-2.495-2.807-5.979-2.807-10.449c0-2.392,0.257-4.859,0.779-7.408c0.518-2.547,1.194-5.121,2.027-7.721
				c1.766,3.017,4.289,5.538,7.564,7.565c3.274,2.027,6.522,3.353,9.747,3.977c2.39,0.415,5.872,0.989,10.449,1.715
				c4.572,0.728,9.616,1.56,15.128,2.496l7.642,1.248c5.302,0.833,10.295,2.313,14.973,4.443c4.679,2.132,8.212,4.602,10.604,7.408
				c3.014,3.12,4.885,6.654,5.615,10.607c0.727,3.951,1.091,7.12,1.091,9.513c0.207,2.08,0.259,4.079,0.155,6.005
				c-0.104,1.924-0.26,3.82-0.466,5.691C263.355,196.228,261.251,193.447,258.6,191.002z M271.934,243.327
				c0,0.728-0.105,1.303-0.313,1.717c-0.833,3.223-2.054,6.42-3.665,9.592c-1.613,3.174-4.03,6.058-7.252,8.654
				c-3.224,2.601-7.437,4.628-12.632,6.083c-5.2,1.457-11.959,2.184-20.275,2.184l-38.989,0.313c-5.098,0-8.684,1.092-10.761,3.274
				c-0.212-4.679,0.624-9.67,2.494-14.972c1.247-3.016,3.222-5.381,5.927-7.097c2.702-1.714,5.693-2.937,8.968-3.664
				c3.274-0.727,6.628-1.194,10.061-1.403c3.431-0.208,6.6-0.313,9.511-0.313c5.616,0,10.372-0.234,14.271-0.702
				c3.899-0.469,7.355-1.065,10.371-1.793c3.015-0.726,5.639-1.662,7.876-2.807c2.235-1.146,4.392-2.6,6.473-4.367
				c1.766,3.431,4.626,5.146,8.578,5.146c3.638,0,6.862-0.833,9.67-2.496C272.035,241.716,271.934,242.602,271.934,243.327z"/>
			<path fill="#8BB54F" d="M332.068,180.425l3.293-8.873c0,0,13.452-4.367,35.169,0c25.419,5.114,36.364,17.082,37.695,22.182
				c1.33,5.102-2.527,13.03-2.527,13.03l-11.522-14.804l-20.814-8.207l-25.544-4.29L332.068,180.425z"/>
			<path fill="#8BB54F" d="M282.187,146.229c0,0,5.741,10.434,12.84,13.568c7.099,3.134,29.197,9.346,27.422,15.22
				c-1.774,5.873-5.462,13.172-5.462,13.172l-6.589-10.313l-16.691-5.656l-10.888-9.318L282.187,146.229z"/>
			<path fill="#8BB54F" d="M452.732,266.931c0,0,3.771-7.606,7.319-10.346c3.549-2.741,15.631-6.083,15.631-6.083l5.221-14.181
				l-14.086,4.436l-12.353,10.76l-3.063,11.198L452.732,266.931z"/>
			<path fill="#8BB54F" d="M303,259.611c0,0,4.892-18.631,6.667-18.188c1.773,0.445,12.882,10.095,12.882,10.095l-13.992-30.501
				l-6.188,21.738L303,259.611z"/>
			<path fill="#3C2415" d="M405.076,220.246c0.829-2.183,1.454-3.923,1.871-5.225c0.414-1.3,0.83-3.093,1.248-5.381
				c0.412-2.392,0.959-5.38,1.637-8.968c0.674-3.587,0.907-6.573,0.701-8.967c0-4.681-0.545-9.099-1.638-13.257
				c-1.092-4.158-3.458-8.057-7.096-11.697c-4.679-4.888-10.683-8.447-18.013-10.685c-7.332-2.233-14.27-3.353-20.82-3.353
				c-7.486-0.209-14.222,2.028-20.197,6.707c-5.98,4.679-10.424,11.282-13.336,19.808c-3.015,1.351-5.719,3.172-8.108,5.457
				c1.141-2.285,2.34-5.091,3.587-8.42c1.249-3.329,1.871-6.137,1.871-8.423c-0.209-4.263-1.898-8.68-5.067-13.256
				c-3.173-4.575-8.606-7.643-16.299-9.201c-2.393-0.626-4.967-1.741-7.72-3.354c-2.757-1.612-4.759-3.563-6.005-5.849
				c-0.832-1.038-1.248-2.34-1.248-3.9c0-1.246,0.312-2.47,0.937-3.663c0.625-1.195,1.247-2.313,1.872-3.354
				c0.623-1.249,0.311-2.285-0.936-3.12c-1.666-0.83-2.86-0.52-3.588,0.936c-2.289,4.265-4.444,9.149-6.473,14.66
				c-2.027,5.514-3.041,10.865-3.041,16.064c0,2.288,0.259,4.601,0.78,6.94c0.519,2.338,1.56,4.498,3.12,6.473
				c2.7,3.535,6.133,6.004,10.291,7.406c4.158,1.405,7.069,2.315,8.735,2.731c2.389,0.416,4.183,0.935,5.38,1.558
				c1.194,0.625,2.105,1.197,2.729,1.716c2.079,2.082,3.119,4.938,3.119,8.577c0,1.873-0.209,3.691-0.624,5.46
				c-0.834,2.495-1.691,5.018-2.572,7.563c-0.886,2.549-1.744,5.123-2.574,7.72c-2.496,8.943-4.444,17.417-5.85,25.422
				c-1.401,8.009-2.104,15.388-2.104,22.146c0,2.807,0.102,5.436,0.311,7.876c0.207,2.444,0.519,4.812,0.938,7.096l-6.396,1.404
				c-1.247,0-1.872,0.728-1.872,2.184c-0.209,0.83-0.053,1.504,0.469,2.027c0.517,0.518,1.091,0.674,1.715,0.47
				c2.391-0.212,4.496-0.47,6.316-0.781c1.818-0.313,3.977-0.678,6.473-1.093c6.237-1.249,10.733-3.689,13.491-7.33
				c2.754-3.639,4.132-7.798,4.132-12.476c0-3.639-0.702-7.044-2.105-10.218c-1.402-3.17-2.938-6.262-4.6-9.277
				c-2.393-4.263-4.212-8.423-5.459-12.478c-0.624-1.456-0.936-3.899-0.936-7.33c0-1.038,0-2.159,0-3.353
				c0-1.195,0.207-2.313,0.623-3.354c0.624-2.496,1.481-5.198,2.574-8.109c1.091-2.91,2.261-5.511,3.508-7.798
				c1.872-3.431,4.573-6.419,8.109-8.969c3.535-2.546,8.369-3.82,14.504-3.82c4.264,0,8.579,0.366,12.946,1.091
				c4.366,0.729,8.679,1.508,12.945,2.34c22.769,4.265,34.256,12.478,34.466,24.643c0.206,4.265-0.912,8.889-3.354,13.879
				c-2.445,4.99-5.331,8.788-8.655,11.385c-3.225,2.289-6.213,3.926-8.968,4.914c-2.757,0.989-5.537,1.69-8.345,2.105
				c-2.808,0.417-5.641,0.778-8.499,1.092c-2.861,0.311-5.9,0.778-9.122,1.403c-4.266,1.04-7.723,2.573-10.372,4.602
				c-2.651,2.026-4.811,4.861-6.473,8.499c-1.248,3.016-2.001,5.59-2.261,7.721c-0.263,2.131-0.391,4.343-0.391,6.627
				c0,5.198,0.753,9.486,2.262,12.867c1.506,3.377,2.363,5.273,2.572,5.693c0.83,1.246,2.028,1.453,3.589,0.623
				c1.247-1.248,1.452-2.395,0.622-3.432c-1.247-1.354-1.871-2.859-1.871-4.521c-0.521-1.666-0.209-3.07,0.937-4.212
				c1.247-1.87,4.002-2.808,8.265-2.808h10.138c8.94,0,16.348-0.96,22.225-2.885c5.873-1.922,10.63-4.314,14.271-7.174
				c3.636-2.86,6.365-6.058,8.187-9.592c1.817-3.533,3.143-7.12,3.977-10.761c0.415-1.038,0.625-2.13,0.625-3.275
				c0-1.143,0-2.287,0-3.432c0-3.533-0.497-7.069-1.482-10.605C408.687,225.446,407.153,222.534,405.076,220.246z M313.996,239.896
				c1.766,3.018,3.275,5.85,4.522,8.501c1.247,2.649,1.87,5.483,1.87,8.5c0,4.888-1.169,8.396-3.509,10.526
				c-2.34,2.133-5.954,3.613-10.839,4.445c-0.835-3.64-1.248-8.422-1.248-14.349c0-8.524,1.144-18.611,3.431-30.256
				c0.936,2.286,1.872,4.444,2.808,6.473C311.968,235.764,312.953,237.818,313.996,239.896z M317.271,182.815
				c-0.42-1.038-0.913-2.105-1.482-3.196c-0.574-1.092-1.38-1.951-2.418-2.573c-1.871-1.871-5.147-3.379-9.824-4.524
				c-1.561-0.413-4.135-1.193-7.722-2.339c-3.587-1.144-6.472-3.117-8.654-5.926c-1.873-2.495-2.808-5.979-2.808-10.449
				c0-4.991,0.935-10.033,2.808-15.129c1.764,3.017,4.234,5.538,7.407,7.565c3.169,2.027,6.366,3.353,9.592,3.977
				c6.34,1.247,10.839,3.587,13.49,7.019c2.651,3.431,3.977,6.965,3.977,10.604c0,1.871-0.467,4.236-1.403,7.097
				C319.297,177.799,318.309,180.423,317.271,182.815z M398.524,193.031c-2.703-2.338-5.746-4.313-9.123-5.927
				c-3.382-1.612-6.89-2.885-10.527-3.821c-3.641-0.935-7.174-1.715-10.604-2.339c-4.266-1.144-8.685-2.079-13.257-2.806
				c-4.577-0.727-8.996-1.093-13.257-1.093c-1.249,0-2.339,0.053-3.274,0.156c-0.937,0.104-1.979,0.259-3.12,0.466
				c2.392-5.301,5.872-9.979,10.448-14.035c4.574-4.055,10.189-6.082,16.846-6.082c5.926,0,12.292,1.067,19.104,3.197
				c6.808,2.131,12.344,5.328,16.61,9.59c3.012,3.019,4.989,6.37,5.926,10.062c0.935,3.69,1.402,7.562,1.402,11.617
				c0,2.808-0.312,5.929-0.934,9.357C403.305,198.153,401.228,195.37,398.524,193.031z M406.167,242.081
				c-0.106,0.936-0.262,1.925-0.469,2.963c-0.832,3.223-2.055,6.42-3.665,9.592c-1.611,3.174-4.005,6.058-7.173,8.654
				c-3.174,2.601-7.438,4.628-12.789,6.083c-5.357,1.457-12.088,2.184-20.197,2.184l-10.138,0.313
				c-5.095,0-8.839,1.092-11.229,3.274c0-2.183,0.052-4.495,0.157-6.939c0.103-2.441,0.83-5.121,2.184-8.032
				c1.248-3.222,2.886-5.536,4.912-6.94c2.027-1.404,4.964-2.52,8.812-3.354c3.119-0.83,6.186-1.403,9.202-1.715
				c3.013-0.313,5.95-0.754,8.812-1.325c2.858-0.57,5.771-1.379,8.733-2.419c2.964-1.036,6.054-2.753,9.28-5.146
				c4.679-3.119,8.212-7.589,10.605-13.412c1.872,3.641,2.808,8.008,2.808,13.102C406.217,240.107,406.269,241.145,406.167,242.081z
				"/>
			<path fill="#3C2415" d="M527.77,174.161c-1.247-3.378-3.224-6.575-5.926-9.593c-2.704-3.015-6.058-5.56-10.06-7.644
				c-4.004-2.078-8.812-3.481-14.425-4.21c-8.944-1.038-17.834-2.079-26.67-3.118c-8.84-1.038-17.729-2.442-26.671-4.21
				c-2.913-0.626-6.081-2.105-9.512-4.446c-3.431-2.339-5.146-5.225-5.146-8.656c0-1.037,0.468-2.417,1.403-4.133
				c0.935-1.715,1.662-3.092,2.184-4.133c1.453-3.015,3.041-5.848,4.757-8.499c1.714-2.651,3.401-5.327,5.067-8.031
				c1.247-2.184,2.313-4.342,3.197-6.474c0.882-2.129,1.326-4.339,1.326-6.628c0-4.055-1.275-8.161-3.821-12.32
				c-2.548-4.158-6.94-7.642-13.18-10.45c-2.494-1.037-5.146-2.884-7.953-5.536c-2.807-2.65-4.21-5.483-4.21-8.5
				c0-1.456,0.44-2.831,1.324-4.133c0.883-1.3,1.845-2.469,2.886-3.51c1.039-1.038,0.937-2.235-0.312-3.586
				c-1.041-1.038-2.237-0.936-3.586,0.312c-1.042,1.146-1.511,1.715-1.405,1.715c0.102,0-0.365,0.624-1.401,1.871
				c-1.249,1.665-2.629,3.666-4.135,6.005c-1.509,2.34-2.964,4.861-4.367,7.565c-1.403,2.704-2.52,5.483-3.354,8.344
				c-0.831,2.861-1.247,5.692-1.247,8.5c0,2.91,0.624,5.668,1.872,8.265c1.974,4.055,4.858,7.201,8.656,9.436
				c3.792,2.237,6.575,3.667,8.342,4.289c2.703,1.248,4.809,2.628,6.318,4.134c1.505,1.508,2.261,3.874,2.261,7.095
				c0,2.497-0.522,5.147-1.561,7.956c-2.6,4.888-5.018,10.035-7.251,15.439c-2.237,5.406-3.251,11.021-3.041,16.843
				c0,2.287,0.283,4.602,0.856,6.94c0.57,2.339,1.583,4.393,3.042,6.161c3.223,4.158,7.275,6.888,12.165,8.188
				c4.886,1.299,9.772,2.259,14.66,2.884c3.431,0.415,8.239,0.962,14.427,1.637c6.184,0.679,13.853,1.742,23.004,3.197
				c2.495,0.416,5.458,1.041,8.889,1.872c3.432,0.833,6.629,2.005,9.591,3.51c2.964,1.508,5.511,3.378,7.645,5.614
				c2.128,2.237,3.09,5.068,2.884,8.5c-0.417,4.471-2.651,8.631-6.706,12.477c-4.265,3.641-8.995,6.838-14.192,9.593
				c-5.2,2.755-10.243,5.379-15.129,7.875c-4.99,2.394-9.435,4.704-13.334,6.939c-3.898,2.237-7.046,4.499-9.435,6.785
				c-5.097,5.613-7.643,11.072-7.643,16.376c0.205,4.887,1.95,8.447,5.225,10.683c3.275,2.237,7.198,3.353,11.775,3.353h25.733
				c1.35,0,2.233-0.831,2.65-2.496c0-0.934-0.521-1.715-1.561-2.338c-0.312,0-1.144-0.414-2.494-1.248
				c-1.352-0.832-2.834-2.053-4.445-3.665c-1.612-1.611-3.041-3.639-4.289-6.083c-1.247-2.441-1.87-5.483-1.87-9.123
				c0-4.264,1.116-8.134,3.353-11.618c2.234-3.482,5.796-6.63,10.683-9.437c4.679-2.496,9.202-5.198,13.568-8.108
				c4.368-2.91,8.188-6.215,11.464-9.905c3.275-3.689,5.925-7.85,7.954-12.477c2.027-4.625,3.041-9.903,3.041-15.829
				C529.642,180.944,529.018,177.539,527.77,174.161z M423.277,98.129c-1.456-0.624-3.798-1.896-7.019-3.821
				c-3.225-1.923-5.668-4.496-7.33-7.719c-0.833-1.456-1.248-3.432-1.248-5.927c-0.21-2.808,0.362-6.03,1.716-9.669
				c1.35-3.64,2.91-6.708,4.679-9.202c1.038,3.328,2.938,6.293,5.693,8.889c2.752,2.6,5.639,4.524,8.654,5.771
				c5.094,2.287,8.708,5.044,10.84,8.266c2.13,3.223,3.197,6.447,3.197,9.669c-0.21,2.911-1.17,5.824-2.887,8.734
				c-1.715,2.911-3.302,5.513-4.755,7.798c-0.624-3.431-1.9-6.106-3.821-8.031C429.072,100.962,426.499,99.376,423.277,98.129z
				 M483.321,271.556h-17.467c-3.018,0-5.746-0.624-8.188-1.872c-2.444-1.248-3.664-3.587-3.664-7.017
				c0-4.263,1.919-8.525,5.771-12.79c1.66-1.661,4.134-3.406,7.408-5.224c3.273-1.819,6.834-3.717,10.683-5.691
				c-2.288,4.054-3.431,8.318-3.431,12.787c0,4.889,0.959,8.943,2.885,12.166C479.24,267.137,481.239,269.684,483.321,271.556z
				 M523.559,193.966c-0.833,2.754-1.978,5.435-3.431,8.033c0-4.055-1.119-7.461-3.354-10.217c-2.236-2.753-5.066-5.043-8.498-6.861
				c-3.431-1.818-7.072-3.275-10.916-4.367c-3.85-1.091-7.23-1.95-10.138-2.574c-9.151-1.455-16.872-2.495-23.161-3.118
				c-6.293-0.625-11.257-1.195-14.895-1.717c-4.054-0.414-8.265-1.09-12.633-2.026c-4.366-0.937-7.903-3.222-10.604-6.862
				c-1.978-2.808-2.964-6.291-2.964-10.449c0-4.056,1.092-9.098,3.275-15.129c1.66,3.017,4.132,5.538,7.406,7.565
				c3.276,2.027,6.419,3.353,9.437,3.977c9.147,1.663,18.092,3.041,26.825,4.133s17.675,2.159,26.825,3.197
				c9.771,1.247,16.895,4.704,21.366,10.371c4.47,5.668,6.706,11.361,6.706,17.077C524.807,188.223,524.39,191.211,523.559,193.966z
				"/>
			<path fill="#63873F" d="M213.521,199.347c-0.469-0.335-1.006-0.468-1.56-0.468c-1.542,0-3.229,1.021-4.059,1.56
				c-1.771,1.15-3.254,3.722-3.846,6.302c-0.592,2.579,0.887,5.108,1.775,6.883c0.375,0.75,1.752,1.024,3.398,1.024
				c2.248,0,4.994-0.511,6.36-1.024c2.365-0.887,2.366-6.801,2.662-8.576C218.548,203.273,215.295,200.612,213.521,199.347z"/>
			<path fill="#8BB54F" d="M205.537,216.58c0,0,0.371-9.207,3.955-9.815c3.586-0.608,10.462,0.169,10.462,0.169l-4.437-11.203
				l-8.428,1.108l-6.877,11.091L205.537,216.58z"/>
			<path fill="#3C2415" d="M216.61,195.012c-1.335-0.952-2.943-1.455-4.648-1.455h-0.002c-2.177,0-4.452,0.791-6.958,2.417
				c-3.411,2.217-5.404,6.4-6.134,9.577c-0.971,4.233,0.871,7.842,1.97,9.997l0.232,0.457c1.317,2.632,4.063,3.967,8.161,3.967
				c2.706,0,6.089-0.561,8.229-1.364c5.03-1.887,5.598-7.995,5.935-11.644c0.036-0.372,0.083-0.882,0.11-1.045
				C224.104,202.313,221.85,198.744,216.61,195.012z M218.254,205.047c-0.296,1.775-0.297,7.689-2.662,8.576
				c-1.366,0.514-4.112,1.024-6.36,1.024c-1.646,0-3.023-0.274-3.398-1.024c-0.889-1.774-2.367-4.304-1.775-6.883
				c0.592-2.58,2.074-5.151,3.846-6.302c0.829-0.539,2.517-1.56,4.059-1.56c0.554,0,1.091,0.133,1.56,0.468
				C215.295,200.612,218.548,203.273,218.254,205.047z"/>
			<path fill="#63873F" d="M458.585,293.824c-0.472-0.336-1.008-0.469-1.562-0.469c-1.542,0-3.229,1.02-4.059,1.561
				c-1.771,1.148-3.253,3.721-3.846,6.301c-0.592,2.58,0.888,5.109,1.774,6.883c0.377,0.75,1.755,1.025,3.401,1.025
				c2.246,0,4.994-0.514,6.359-1.025c2.364-0.889,2.365-6.803,2.662-8.576C463.61,297.748,460.358,295.087,458.585,293.824z"/>
			<path fill="#8BB54F" d="M450.599,311.056c0,0,0.372-9.209,3.956-9.814c3.585-0.611,10.463,0.166,10.463,0.166l-4.438-11.201
				l-8.429,1.109l-6.877,11.09L450.599,311.056z"/>
			<path fill="#3C2415" d="M461.674,289.488c-1.336-0.951-2.944-1.457-4.65-1.457h-0.001c-2.177,0-4.453,0.793-6.957,2.42
				c-3.413,2.217-5.405,6.4-6.137,9.576c-0.968,4.234,0.874,7.84,1.972,9.998l0.232,0.455c1.316,2.633,4.06,3.967,8.162,3.967
				c2.704,0,6.087-0.561,8.229-1.363c5.03-1.887,5.597-7.992,5.935-11.643c0.034-0.371,0.08-0.883,0.108-1.045
				C469.168,296.789,466.912,293.22,461.674,289.488z M463.316,299.523c-0.297,1.773-0.298,7.688-2.662,8.576
				c-1.365,0.512-4.113,1.025-6.359,1.025c-1.646,0-3.024-0.275-3.401-1.025c-0.887-1.773-2.366-4.303-1.774-6.883
				c0.593-2.58,2.074-5.152,3.846-6.301c0.829-0.541,2.517-1.561,4.059-1.561c0.554,0,1.09,0.133,1.562,0.469
				C460.358,295.087,463.61,297.748,463.316,299.523z"/>
			<path fill="#63873F" d="M491.813,293.824c-0.471-0.336-1.007-0.469-1.561-0.469c-1.543,0-3.231,1.02-4.059,1.561
				c-1.771,1.148-3.255,3.721-3.846,6.301c-0.592,2.58,0.887,5.109,1.774,6.883c0.375,0.75,1.753,1.025,3.399,1.025
				c2.247,0,4.994-0.514,6.359-1.025c2.365-0.889,2.367-6.803,2.662-8.576C496.841,297.748,493.587,295.087,491.813,293.824z"/>
			<path fill="#8BB54F" d="M483.828,311.056c0,0,0.37-9.209,3.956-9.814c3.585-0.611,10.461,0.166,10.461,0.166l-4.437-11.201
				l-8.429,1.109l-6.877,11.09L483.828,311.056z"/>
			<path fill="#3C2415" d="M494.902,289.488c-1.336-0.951-2.945-1.457-4.649-1.457h-0.001c-2.179,0-4.454,0.793-6.96,2.42
				c-3.41,2.217-5.405,6.4-6.133,9.576c-0.97,4.234,0.87,7.84,1.969,9.998l0.232,0.455c1.317,2.633,4.063,3.967,8.162,3.967
				c2.705,0,6.09-0.561,8.23-1.363c5.031-1.887,5.597-7.992,5.934-11.643c0.035-0.371,0.082-0.883,0.11-1.045
				C502.396,296.789,500.142,293.22,494.902,289.488z M496.544,299.523c-0.295,1.773-0.297,7.688-2.662,8.576
				c-1.365,0.512-4.112,1.025-6.359,1.025c-1.646,0-3.024-0.275-3.399-1.025c-0.888-1.773-2.366-4.303-1.774-6.883
				c0.591-2.58,2.074-5.152,3.846-6.301c0.827-0.541,2.516-1.561,4.059-1.561c0.554,0,1.09,0.133,1.561,0.469
				C493.587,295.087,496.841,297.748,496.544,299.523z"/>
			<path fill="#63873F" d="M473.244,327.005c-0.47-0.334-1.006-0.467-1.56-0.467c-1.542,0-3.23,1.02-4.06,1.559
				c-1.771,1.15-3.253,3.723-3.845,6.301c-0.591,2.582,0.886,5.107,1.774,6.883c0.375,0.752,1.753,1.023,3.399,1.023
				c2.248,0,4.994-0.51,6.359-1.023c2.365-0.887,2.365-6.801,2.662-8.576C478.271,330.931,475.018,328.269,473.244,327.005z"/>
			<path fill="#8BB54F" d="M465.26,344.24c0,0,0.37-9.211,3.956-9.818c3.585-0.607,10.461,0.172,10.461,0.172l-4.438-11.205
				l-8.427,1.109l-6.877,11.092L465.26,344.24z"/>
			<path fill="#3C2415" d="M476.334,322.669c-1.336-0.951-2.944-1.453-4.649-1.453h-0.001c-2.179,0-4.454,0.789-6.96,2.418
				c-3.412,2.215-5.403,6.398-6.132,9.574c-0.971,4.236,0.869,7.842,1.969,9.998l0.231,0.455c1.317,2.633,4.063,3.969,8.162,3.969
				c2.705,0,6.088-0.561,8.229-1.365c5.032-1.887,5.599-7.992,5.936-11.641c0.034-0.373,0.081-0.885,0.108-1.047
				C483.828,329.97,481.572,326.402,476.334,322.669z M477.976,332.705c-0.297,1.775-0.297,7.689-2.662,8.576
				c-1.365,0.514-4.111,1.023-6.359,1.023c-1.646,0-3.024-0.271-3.399-1.023c-0.889-1.775-2.365-4.301-1.774-6.883
				c0.592-2.578,2.074-5.15,3.845-6.301c0.829-0.539,2.518-1.559,4.06-1.559c0.554,0,1.09,0.133,1.56,0.467
				C475.018,328.269,478.271,330.931,477.976,332.705z"/>
			<path fill="#63873F" d="M249.298,294.265c-0.021-0.26-0.041-0.521-0.061-0.785c-2.896,2.424-6.903,4.055-11.806,3.717
				c-1.081-0.074-2.161-0.152-3.235-0.229c-4.242-0.307-8.25-0.596-11.792-0.596c-4.916,0-8.118,0.602-9.517,1.789
				c-0.786,0.668-0.916,1.242-0.939,1.67c-0.148,2.576,3.52,6.496,5.28,8.381c0.28,0.297,0.534,0.57,0.758,0.814
				c2.648,2.908,6.32,7.203,9.478,10.945c-0.081-1.943,0.125-3.848,0.854-5.398c0.777-1.66,2.076-2.832,3.761-3.389
				c4.003-1.326,6.599-1.6,8.684-1.822c2.381-0.252,3.956-0.416,6.857-2.014C250.193,305.929,249.737,300.001,249.298,294.265z"/>
			<path fill="#8BB54F" d="M214.63,307.941c0,0-1.108-5.742,1.332-5.742c2.439,0,20.123,3.771,25.477,2.219
				c5.354-1.553,10.456-8.254,10.456-8.254l-2.009-6.949l-9.526,5.885l-19.079-1.166l-11.125,3.664v5.193L214.63,307.941z"/>
			<path fill="#3C2415" d="M254.185,293.89c-0.185-2.43-0.379-4.941-0.379-7.316c0-1.18-0.839-2.193-1.999-2.41
				c-1.167-0.215-2.31,0.424-2.736,1.523c-1.312,3.381-5.457,7.01-11.304,6.619c-1.074-0.072-2.148-0.15-3.218-0.227
				c-4.334-0.314-8.424-0.609-12.145-0.609c-6.37,0-10.282,0.91-12.689,2.953c-1.627,1.383-2.548,3.156-2.662,5.125
				c-0.269,4.676,4.029,9.268,6.597,12.012c0.263,0.279,0.503,0.535,0.713,0.768c5.539,6.088,15.716,18.418,15.817,18.539
				c0.469,0.568,1.145,0.879,1.839,0.893c0.023,0.002,0.045,0.002,0.069,0.002c1.354,0,2.451-1.1,2.451-2.451
				c0-0.414-0.102-0.805-0.282-1.145c-1.313-3.467-2.604-9.166-1.501-11.514c0.258-0.549,0.567-0.717,0.864-0.814
				c3.501-1.16,5.708-1.395,7.657-1.598c2.54-0.27,4.938-0.521,8.705-2.596C255.323,308.703,254.771,301.507,254.185,293.89z
				 M247.619,307.349c-2.901,1.598-4.477,1.762-6.857,2.014c-2.085,0.223-4.681,0.496-8.684,1.822
				c-1.685,0.557-2.983,1.729-3.761,3.389c-0.729,1.551-0.935,3.455-0.854,5.398c-3.157-3.742-6.829-8.037-9.478-10.945
				c-0.224-0.244-0.478-0.518-0.758-0.814c-1.761-1.885-5.429-5.805-5.28-8.381c0.023-0.428,0.153-1.002,0.939-1.67
				c1.398-1.188,4.601-1.789,9.517-1.789c3.542,0,7.55,0.289,11.792,0.596c1.074,0.076,2.154,0.154,3.235,0.229
				c4.902,0.338,8.909-1.293,11.806-3.717c0.02,0.264,0.04,0.525,0.061,0.785C249.737,300.001,250.193,305.929,247.619,307.349z"/>
		</g>
	</g>
</g>
</svg>
